<svg id="Layer_1" xmlns="http://www.w3.org/2000/svg" viewBox="0 0 781.7 677.7"><style>.Arched_x0020_Green{fill:url(#SVGID_1_);stroke:#fff;stroke-width:.25;stroke-miterlimit:1}.st0{fill:#fff}.st1{font-family:&apos;Lobster-Regular&apos;}.st2{font-size:98.6895px}</style><linearGradient id="SVGID_1_" gradientUnits="userSpaceOnUse" y1="841.89" x2=".707" y2="841.183"><stop offset="0" stop-color="#20ac4b"/><stop offset=".983" stop-color="#19361a"/></linearGradient><path d="M658.6 277.9c0 137.7-111.6 249.3-249.4 249.3-137.7 0-249.4-111.6-249.4-249.3 0-137.7 111.6-249.4 249.4-249.4s249.4 111.7 249.4 249.4z"/><path d="M638.3 275.9c0 127-103 230-230 230s-230-103-230-230 103-230 230-230 230 103 230 230z"/><path class="st0" d="M408.3 508.5c-128.2 0-232.6-104.3-232.6-232.6 0-128.2 104.3-232.6 232.6-232.6 128.2 0 232.6 104.3 232.6 232.6-.1 128.2-104.4 232.6-232.6 232.6zm0-460c-125.4 0-227.4 102-227.4 227.4s102 227.4 227.4 227.4 227.4-102 227.4-227.4-102-227.4-227.4-227.4z"/><path class="st0" d="M572.2 217.8c0 67.9-55 122.9-122.9 122.9s-122.9-55-122.9-122.9 55-122.9 122.9-122.9c67.9.1 122.9 55.1 122.9 122.9z"/><path d="M473.8 224.4c-2.5-6.3-7-11.2-13.1-14.3l-.2-.1c-.9-.4-1.7-.8-2.4-1.2l3.5-14.5c15.5-4.5 27.7-14.4 34.6-26.8 7.8-14.1 6.7-26.1 4.1-33-.6-1.5-1.5-2.6-2.7-3.2-.5-.3-.9-.4-1.3-.4-12.9-1.9-26.6 14-31.2 23.1-3.1 6.4-5.5 13.3-7.3 21.5-.7.1-1.6.3-2.4.6-17.5 5-39.3 11.2-46.7 29.9-8 19.5.3 41.3 19.3 50.8 2.5 1.4 5.4 2.4 8.4 3.4l-3.5 14.4c-.6 2.7-1.6 5.2-2.4 6.7-4 7-10.3 9.1-18.9 5.8-.2-.1-.3-.2-.7-.3-1.4-.7-2.8-1.8-3.7-2.8 2 .3 5.9 1.3 8.5 1.3 8.4-.2 12.2-5 12.5-12.9.1-6.9-8.3-10.5-15-11.8-7.7-1.7-15.7 1-18.6 8.3-3.5 9.6 3.8 20.1 12.3 24.3.7.3 1.4.7 2.1 1 12.7 5 23.4 1.6 28.8-8.8.7-1.4 1.4-2.9 2-5l5-19.4c13 .3 22.7-4.9 27.5-14.5 3.8-6.8 4.3-15 1.5-22.1zm-27.7-1.8l-7.8 30c-1.7-.4-3.4-1-4.9-1.7-.3-.2-.9-.4-1.2-.6-12.2-6-21.4-20-14.5-33.6 6.2-12.1 20.3-16.8 35.1-20.2l-2.8 10.3c-9.7-.6-19.8 4.6-23.6 12.1-4.3 8.6-2.2 19.3 5.3 26.3.1.3.1.3.3.3 1.9 1.3 4.5.9 5.3-.9.6-1.2.4-2.6-.7-3.5-3.6-4.5-4.5-8.3-2.8-11.9 1.9-4.1 7-6.7 12.3-6.6zm21-49.3c.9-3.2 1.9-6.1 3.3-8.6 3.2-5.7 12.1-16.9 20-14.8 2.7 1.5 2.1 4.4 1.4 6-4.1 8.9-14.9 14.6-24.7 17.4zm-7.4 70.9c-2.2 5.1-7 8.5-13 9.5l7.2-28.4c6.3 4.5 8.8 11.8 5.8 18.9zM197.7 394.7h354v138.7h-354z"/><path d="M136 574c-42.7 0-61.9-19.4-70.5-35.7-4.6-8.7-6.9-18.7-6.9-29.7 0-19.6 6-35.5 18-47.1 11.8-11.6 25.5-17.4 40.6-17.4 1.1 0 2.1 0 3.1.1-2.5-2.8-5-5.6-7.3-8.5-12.6-15.3-19-31-19-46.6 0-19.9 8.9-37.2 25.7-50.1 15.6-12 34.8-18 57.1-18 37.6 0 52.9 17 59.1 31.2 2.6 5.8 3.9 13.3 3.9 22.6 0 10.7-3.3 20.4-9.9 28.9-7 9-16.3 14.1-27.1 14.7 7.7 7.5 13.2 14 16.8 19.9 8.9 15.1 13.4 30.6 13.4 46.3 0 29-10.4 51.9-30.9 68.1-17.7 14.1-39.9 21.3-66.1 21.3zm6.7-76.4c-11.8 0-14.2 4.1-15.1 5.7-.3.5-.6 1.2-.6 2.6 0 4.8 1.5 7 2.7 8.5 1.3 1.4 3.9 2.2 7.8 2.2 4.3 0 7.3-1.3 10.1-4.3 1.9-2.1 4.5-5.6 4.5-13v-1.7h-9.4zM178 369.2c-3.5 0-5.9.6-7.3 1.9-.6.6-1.4 1.2-1.4 3.9 0 5.4.7 8.1 1.1 9.1l7-4.1c1.2-.7 3.9-2.2 4-10.5v-.1c-.6-.1-1.7-.2-3.4-.2z"/><path d="M186.2 395.1c8.5-4.9 12.7-13.6 12.7-26.2 0-3.7-1.5-7.5-4.5-11.3-3-3.9-8.5-5.8-16.4-5.8-8 0-14.3 2.1-19 6.4-4.7 4.3-7 9.9-7 16.8s.9 12.4 2.8 16.6c3.3 7.6 9.1 15.1 17.4 22.4l11.6 10.5c10.3 9.2 17.3 16.9 21 22.9 7.3 12.2 10.9 24.7 10.9 37.3 0 23.5-8.1 41.6-24.3 54.4-14.6 11.7-33.1 17.5-55.3 17.5-27.4 0-45.8-8.8-55.1-26.4-3.2-6.2-4.8-13.3-4.8-21.5 0-14.8 4.2-26.4 12.7-34.7 8.5-8.3 18-12.4 28.5-12.4s18 3.2 22.5 9.5c1.7 2.4 2.7 5.4 2.9 9.1-14.5 0-24.5 4.7-30.1 14.2-2 3.4-3 7.2-3 11.5 0 8 2.4 14.7 7.1 20 4.7 5.3 11.7 8 20.8 8 9.1 0 16.7-3.3 22.9-9.8 6.1-6.5 9.2-14.8 9.2-24.9 0-10-1.4-18.3-4.3-24.8s-6.4-12.5-10.8-18.2c-4.3-5.6-9-11-13.9-16.1-5-5.1-9.6-10.3-14-15.5-10-12.2-15.1-24-15.1-35.5 0-14.5 6.3-26.6 18.9-36.3 12.6-9.6 28.1-14.4 46.5-14.4 22.7 0 37.1 6.9 43.1 20.7 1.7 3.7 2.5 8.9 2.5 15.7 0 6.8-2.1 12.8-6.2 18.2-4.1 5.3-9.3 8-15.5 8-6.5.1-11.3-1.9-14.7-5.9z"/><path d="M256.2 569.7c-11.7 0-22.7-4.3-31.7-12.5-9.6-8.8-14.4-21.8-14.4-38.7 0-6.6.8-13.8 2.6-22.1l12.5-58.4H216l9.5-46.2h9.4l8.2-37.3 78.5-10.6-10.4 47.9h16.6l-9 46.2h-17.2l-9.8 46 .4-1.4h49.5l-8.1 23.1c-18.4 52.9-52.3 64-77.4 64z"/><path d="M317.1 500c-12.2 34.9-32.5 52.4-60.9 52.4-7.5 0-14.1-2.7-20-8-5.8-5.3-8.7-13.9-8.7-25.8 0-5.3.7-11.5 2.2-18.5l17-79.4h-9.4l2.3-11.3h9.3l8.6-39.1 41.9-5.7-9.7 44.8h17l-2.2 11.3h-17l-18.1 84.8c-.7 3.4-1.1 6.8-1.1 10.1 0 6.4 3.8 9.5 11.5 9.5 5.5 0 10.7-2.4 15.4-7.2 4.7-4.8 8.1-10.7 10.2-17.8h11.7z"/><path d="M409.2 569.7c-13.8 0-25.1-4.6-33-12.9-11.4 8.6-24.1 12.9-38 12.9-23.8 0-41.5-12.7-49.9-35.6-2.8-7.7-4.2-16.4-4.2-25.8 0-8.4.7-16.9 2.2-25.2 1.5-8.4 3.7-16.9 6.7-25.1 6.8-18.6 16.7-34.4 29.5-46.8 14.3-13.8 31.7-20.8 51.7-20.8 5.2 0 9.8.5 14 1.4h74.2l-19.2 90.8h46.9l-7.9 23.1c-18 52.9-49.7 64-73 64zM372.8 455c-5.7 10.1-9.6 23.2-11.5 39.2-.4 3.1-.6 6.4-.6 10 1.4-2 2.5-4.7 3.3-8.1l8.8-41.1z"/><path d="M465.9 500c-12 34.9-30.9 52.4-56.8 52.4-16.7 0-25.9-8.6-27.8-26-12.3 17.3-26.7 26-43.2 26-16.4 0-27.6-8.1-33.5-24.2-2.1-5.8-3.2-12.4-3.2-19.8s.6-14.8 1.9-22.2c1.3-7.4 3.3-14.8 5.9-22.2 5.9-16.2 14.3-29.6 25.3-40.2 11-10.6 24.2-15.9 39.6-15.9 8.1 0 13.9 1.4 17.5 4.1 3.6 2.7 5.4 6.1 5.4 10.3v2.1l3-15.1h40.7l-20.3 96.1c-.8 3.2-1.2 6.3-1.2 9.1 0 8.1 3.9 12.2 11.6 12.2 10 0 17.7-8.9 22.9-26.7h12.2zm-71.3-63.9c0-1.7-.8-4-2.4-6.7-1.6-2.7-5-4.1-10.3-4.1-5.3 0-10.4 2.8-15.3 8.4-12 13.5-19.5 33-22.5 58.3-.5 3.9-.7 8-.7 12.3 0 8.4 1.7 14.2 5.3 17.5 2 2 4.6 3 7.6 3 5.6 0 10.7-2.2 15.3-6.7 4.6-4.5 7.8-10.6 9.5-18.3l13.5-63.7z"/><path d="M506.3 638.8c-13.9 0-25.7-3.4-34.9-10.1-7.5-5.5-16.4-16.1-16.4-35.7 0-10.3 3.2-19.6 9.5-27.9-12.6-5.6-22-16.1-27.4-30.9-2.8-7.7-4.2-16.4-4.2-25.8 0-8.4.7-16.9 2.2-25.2 1.5-8.4 3.7-16.8 6.7-25.1 6.8-18.7 16.7-34.4 29.5-46.8 14.3-13.8 31.7-20.8 51.8-20.8 5.2 0 9.8.5 14 1.4h74.3L592 482.6h40.6L626 505c-8.6 29.3-24.1 49.1-46 59-1.9.9-3.8 1.7-5.7 2.4l-2.2 10.6c-4.4 22.2-13.9 39-28.2 49.6-11 8.1-23.7 12.2-37.6 12.2zm15.1-183.5c-5.6 10.1-9.4 23.1-11.3 38.9-.4 3.1-.6 6.4-.6 10 1.1-1.5 1.9-3.3 2.6-5.5l9.3-43.4z"/><path d="M522 536.8c-9.9 10.3-21.2 15.5-34 15.5-17.1 0-28.6-8.1-34.5-24.2-2.1-5.8-3.2-12.4-3.2-19.8s.6-14.8 1.9-22.2c1.3-7.4 3.3-14.8 5.9-22.2 5.9-16.2 14.3-29.6 25.3-40.2 11-10.6 24.2-15.9 39.7-15.9 8.1 0 14 1.4 17.5 4.1 3.6 2.7 5.4 6.1 5.4 10.3v1.7l3-14.6h40.8l-28 131.2c8.6-2.9 15.6-7.2 21.2-13.1 5.6-5.8 10.4-15 14.4-27.4h11.9c-7.2 24.3-19.3 40.3-36.5 48.1-4.7 2.1-9.2 3.7-13.5 4.8l-4.3 20.4c-3.6 18.1-10.8 31.2-21.5 39.2-7.9 5.9-17 8.8-27.2 8.8s-18.4-2.3-24.6-6.8c-6.2-4.5-9.3-11.7-9.3-21.7 0-17.2 15.4-31 46.1-41.2l3.5-14.8zm-6.3 29.2c-18.4 6.6-27.6 14.7-27.6 24 0 3.8 1.8 6.6 5.4 8.4 1.2.5 2.9.8 5.2.8 2.3 0 5-2 8-6.1s5.5-10.4 7.3-19l1.7-8.1zm27.7-130.1c0-4.2-2-7.3-5.9-9.3-1.5-.8-3.4-1.2-5.7-1.2-6 0-11.5 2.8-16.4 8.4-12 13.5-19.5 33-22.5 58.3-.5 3.9-.7 8-.7 12.3 0 8.4 1.7 14.2 5.2 17.5 2 2 4.5 3 7.5 3 5.2 0 10.1-2 14.6-6s7.7-9.4 9.5-16.1l14.4-66.9z"/><path d="M637.4 569.7c-17.5 0-32.1-4.9-43.3-14.7-12-10.4-18-26.4-18-47.6 0-24.4 6.2-48.2 18.5-70.9 10.2-18.7 24.5-32.3 42.4-40.4 9.5-4.5 19.8-6.8 30.4-6.8 18.2 0 31.1 4.2 39.3 12.8 7.8 8.1 11.8 19.1 11.8 31.7 0 11.5-2.5 22.1-7.4 31.7l1.2-1.1-8.9 49.2c-6.6 36.2-30 56.1-66 56.1z"/><path d="M635.3 502c0 15.7 6 23.5 18 23.5 5.2 0 10.9-1.5 17.1-4.6 6.1-3 11.4-6.5 16-10.5-5.1 27.9-21.4 41.9-48.9 41.9-13.3 0-23.9-3.5-31.9-10.4-8-7-12-18.4-12-34.5 0-21.6 5.5-42.4 16.4-62.6 8.4-15.4 19.8-26.3 34.3-32.9 7.5-3.5 15.2-5.3 23.2-5.3 13.1 0 22 2.5 26.7 7.4 4.7 4.9 7 11.5 7 19.7 0 16.2-6.5 29.9-19.4 41.2-12.9 11.2-28.2 17.4-45.7 18.5-.6 2.7-.8 5.5-.8 8.6zm43.9-70.1c0-6.8-2.3-10.2-7-10.2-8.9.4-17.5 10.8-25.8 31.2-3.5 8.8-6.3 17.8-8.4 27.1 10.9-.4 20.5-5.3 28.8-14.7 8.2-9.5 12.4-20.6 12.4-33.4z"/><g><path class="st0" d="M186.5 395.1c8.5-4.9 12.7-13.6 12.7-26.2 0-3.7-1.5-7.5-4.5-11.3-3-3.9-8.5-5.8-16.4-5.8-8 0-14.3 2.1-19 6.4-4.7 4.3-7 9.9-7 16.8s.9 12.4 2.8 16.6c3.3 7.6 9.1 15.1 17.4 22.4l11.6 10.5c10.3 9.2 17.3 16.9 21 22.9 7.3 12.2 10.9 24.7 10.9 37.3 0 23.5-8.1 41.6-24.3 54.4-14.6 11.7-33.1 17.5-55.3 17.5-27.4 0-45.8-8.8-55.1-26.4-3.2-6.2-4.8-13.3-4.8-21.5 0-14.8 4.2-26.4 12.7-34.7 8.5-8.3 18-12.4 28.5-12.4s18 3.2 22.5 9.5c1.7 2.4 2.7 5.4 2.9 9.1-14.5 0-24.5 4.7-30.1 14.2-2 3.4-3 7.2-3 11.5 0 8 2.4 14.7 7.1 20 4.7 5.3 11.7 8 20.8 8 9.1 0 16.7-3.3 22.9-9.8 6.1-6.5 9.2-14.8 9.2-24.9 0-10-1.4-18.3-4.3-24.8s-6.4-12.5-10.8-18.2c-4.3-5.6-9-11-13.9-16.1-5-5.1-9.6-10.3-14-15.5-10-12.2-15.1-24-15.1-35.5 0-14.5 6.3-26.6 18.9-36.3 12.6-9.6 28.1-14.4 46.5-14.4 22.7 0 37.1 6.9 43.1 20.7 1.7 3.7 2.5 8.9 2.5 15.7 0 6.8-2.1 12.8-6.2 18.2-4.1 5.3-9.3 8-15.5 8-6.5.1-11.3-1.9-14.7-5.9zM317.4 500c-12.2 34.9-32.5 52.4-60.9 52.4-7.5 0-14.1-2.7-20-8-5.8-5.3-8.7-13.9-8.7-25.8 0-5.3.7-11.5 2.2-18.5l17-79.4h-9.4l2.3-11.3h9.3l8.6-39.1 41.9-5.7-9.7 44.8h17l-2.2 11.3h-17l-18.1 84.8c-.7 3.4-1.1 6.8-1.1 10.1 0 6.4 3.8 9.5 11.5 9.5 5.5 0 10.7-2.4 15.4-7.2 4.7-4.8 8.1-10.7 10.2-17.8h11.7z"/><path class="st0" d="M466.2 500c-12 34.9-30.9 52.4-56.8 52.4-16.7 0-25.9-8.6-27.8-26-12.3 17.3-26.7 26-43.2 26-16.4 0-27.6-8.1-33.5-24.2-2.1-5.8-3.2-12.4-3.2-19.8s.6-14.8 1.9-22.2c1.3-7.4 3.3-14.8 5.9-22.2 5.9-16.2 14.3-29.6 25.3-40.2 11-10.6 24.2-15.9 39.6-15.9 8.1 0 14 1.4 17.5 4.1 3.6 2.7 5.4 6.1 5.4 10.3v2.1l3-15.1H441l-20.3 96.1c-.8 3.2-1.2 6.3-1.2 9.1 0 8.1 3.9 12.2 11.6 12.2 10 0 17.7-8.9 22.9-26.7h12.2zm-71.3-63.9c0-1.7-.8-4-2.4-6.7-1.6-2.7-5-4.1-10.3-4.1-5.3 0-10.4 2.8-15.3 8.4-12 13.5-19.5 33-22.5 58.3-.5 3.9-.7 8-.7 12.3 0 8.4 1.7 14.2 5.2 17.5 2 2 4.6 3 7.6 3 5.6 0 10.7-2.2 15.3-6.7 4.6-4.5 7.8-10.6 9.5-18.3l13.6-63.7z"/><path class="st0" d="M522.3 536.8c-9.9 10.3-21.2 15.5-34 15.5-17.1 0-28.6-8.1-34.5-24.2-2.1-5.8-3.2-12.4-3.2-19.8s.6-14.8 1.9-22.2c1.3-7.4 3.3-14.8 5.9-22.2 5.9-16.2 14.3-29.6 25.3-40.2 11-10.6 24.2-15.9 39.6-15.9 8.1 0 14 1.4 17.5 4.1 3.6 2.7 5.4 6.1 5.4 10.3v1.7l3-14.6H590l-28 131.2c8.6-2.9 15.6-7.2 21.2-13.1 5.6-5.8 10.4-15 14.4-27.4h11.9c-7.2 24.3-19.3 40.3-36.5 48.1-4.7 2.1-9.2 3.7-13.5 4.8l-4.3 20.4c-3.6 18.1-10.8 31.2-21.5 39.2-7.9 5.9-17 8.8-27.2 8.8s-18.4-2.3-24.6-6.8c-6.2-4.5-9.3-11.7-9.3-21.7 0-17.2 15.4-31 46.1-41.2l3.6-14.8zm-6.4 29.2c-18.4 6.6-27.6 14.7-27.6 24 0 3.8 1.8 6.6 5.4 8.4 1.2.5 2.9.8 5.2.8 2.3 0 5-2 8-6.1s5.5-10.4 7.3-19l1.7-8.1zm27.8-130.1c0-4.2-2-7.3-5.9-9.3-1.5-.8-3.4-1.2-5.7-1.2-6 0-11.5 2.8-16.4 8.4-12 13.5-19.5 33-22.5 58.3-.5 3.9-.7 8-.7 12.3 0 8.4 1.7 14.2 5.2 17.5 2 2 4.5 3 7.5 3 5.3 0 10.1-2 14.6-6s7.7-9.4 9.5-16.1l14.4-66.9z"/><path class="st0" d="M635.6 502c0 15.7 6 23.5 18 23.5 5.2 0 10.9-1.5 17.1-4.6 6.1-3 11.4-6.5 16-10.5-5.1 27.9-21.4 41.9-48.9 41.9-13.3 0-23.9-3.5-31.9-10.4-8-7-12-18.4-12-34.5 0-21.6 5.5-42.4 16.4-62.6 8.4-15.4 19.8-26.3 34.3-32.9 7.5-3.5 15.2-5.3 23.2-5.3 13.1 0 22 2.5 26.7 7.4 4.7 4.9 7 11.5 7 19.7 0 16.2-6.5 29.9-19.4 41.2-12.9 11.2-28.2 17.4-45.7 18.5-.6 2.7-.8 5.5-.8 8.6zm43.9-70.1c0-6.8-2.3-10.2-7-10.2-8.9.4-17.5 10.8-25.8 31.2-3.5 8.8-6.3 17.8-8.4 27.1 10.9-.4 20.5-5.3 28.8-14.7 8.2-9.5 12.4-20.6 12.4-33.4z"/></g><g><path d="M334.9 402.1c-6.4 0-12.4-2.2-17.4-6.3-4.1-3.4-8.9-9.7-8.9-20.7 0-3 .4-6.3 1.2-9.9l2.1-9.1h-3.5l7.8-34.4h3.7l2.9-12.2 48.2-5.9-4.3 18.2h6.1l-6.8 31.7h14.1l-7.9 20.7c-9.1 24.3-27.3 27.9-37.3 27.9z"/><path d="M358.3 368.6c-4.7 12.2-12.5 18.3-23.4 18.3-2.9 0-5.4-.9-7.7-2.8-2.2-1.9-3.3-4.9-3.3-9 0-1.9.3-4 .8-6.5l6.5-27.7h-3.6l.9-4h3.6l3.3-13.6 16.1-2-3.7 15.6h6.5l-.8 4H347l-6.9 29.6c-.3 1.2-.4 2.4-.4 3.5 0 2.2 1.5 3.3 4.4 3.3 2.1 0 4.1-.8 5.9-2.5 1.8-1.7 3.1-3.7 3.9-6.2h4.4z"/><path d="M392.3 402.1c-3.6 0-7.1-.7-10.5-2-1.2-.4-2.3-1-3.3-1.5l-.7 3h-46.9l22.5-96.1 48.2-5.9-5.3 22.8c3.8.9 7.2 2.5 10.2 4.8 6.1 4.6 9.5 11.7 9.5 19.8 0 2.1-.2 4.3-.4 6.5h20l-7.8 20.6c-7.9 20.7-20.3 26.5-29.3 27.7h-.3c-1.8.2-3.7.3-5.9.3z"/><path d="M395.5 373.1c0 2.8 1.3 4.2 4 4.2 2.4 0 4.3-.7 5.6-2.1 1.3-1.4 2.6-3.6 3.9-6.6h4.6c-4.2 11.1-9.9 17.1-17.1 18.1-1.1.1-2.5.2-4.2.2-1.7 0-3.3-.3-4.9-1-4.5-1.7-6.8-5.1-6.8-10.2 0-2.7.8-7 2.4-12.9 1.6-5.9 2.4-10 2.4-12.2 0-3.4-1.3-5.1-3.9-5.1-2.6 0-5 1.9-7 5.6-.6 1.1-1.1 2.2-1.5 3.5l-7.4 31.7H350l15.7-67.1 16.1-2-5.8 24.9c3.5-3.7 7.8-5.5 12.7-5.5 3.5 0 6.3.9 8.6 2.6 2.3 1.7 3.4 4.3 3.4 7.7 0 3.4-.6 7.3-1.8 11.6l-2.6 9.5c-.5 2.1-.8 3.8-.8 5.1z"/><path d="M424.7 402.1c-8.6 0-15.9-2.3-21.7-6.9-4.7-3.8-10.4-10.9-10.4-24 0-10.3 2.8-20.2 8.5-29.6 4.9-8.2 11.8-14.2 20.4-17.7 4.6-1.9 9.6-3 14.7-3 9.2 0 15.9 2.2 20.7 6.8 2.8 2.7 4.9 5.9 6.1 9.5v.2l1.4 8v.2c0 4.5-.9 8.8-2.6 12.8l-3.4 16.9c-3.4 16.8-16 26.8-33.7 26.8z"/><path d="M423.9 369.4c0 5.5 2.3 8.2 6.9 8.2 2 0 4.2-.5 6.5-1.6s4.4-2.3 6.1-3.7c-1.9 9.7-8.2 14.6-18.8 14.6-5.1 0-9.2-1.2-12.2-3.6-3.1-2.4-4.6-6.4-4.6-12 0-7.5 2.1-14.8 6.3-21.8 3.2-5.4 7.6-9.2 13.1-11.5 2.9-1.2 5.8-1.8 8.9-1.8 5 0 8.4.9 10.2 2.6 1.8 1.7 2.7 4 2.7 6.9 0 5.7-2.5 10.4-7.4 14.4-5 3.9-10.8 6.1-17.5 6.5-.1.7-.2 1.7-.2 2.8zm16.9-24.5c0-2.4-.9-3.6-2.7-3.6-3.4.1-6.7 3.8-9.9 10.9-1.3 3-2.4 6.2-3.2 9.4 4.2-.1 7.9-1.8 11.1-5.1 3.1-3.3 4.7-7.2 4.7-11.6z"/><text transform="matrix(1.1 0 0 1 324.721 385.426)" class="st0 st1 st2">the</text></g><g><path d="M82.1 584.4c-3.9 0-7.4-1.4-10.4-4.1-2.2-2-4.8-5.8-4.8-12.3 0-1.8.2-3.8.7-6.1l8.3-38.9 27.6-3.7-7.6 35.9h12.3l-3.9 11.3c-5.4 15.5-16.2 17.9-22.2 17.9z"/><path d="M96.3 563.7c-2.8 8.1-7.6 12.2-14.2 12.2-1.7 0-3.3-.6-4.7-1.9-1.3-1.2-2-3.2-2-6 0-1.2.2-2.7.5-4.3l7-33 9.8-1.3-7.6 35.6c-.2.8-.3 1.6-.3 2.3 0 1.5.9 2.2 2.7 2.2 1.3 0 2.5-.6 3.6-1.7s1.9-2.5 2.4-4.1h2.8z"/><path d="M99.7 584.4c-3.8 0-7.4-1.4-10.4-4.1-2.2-2-4.8-5.8-4.8-12.3 0-1.8.2-3.8.7-6.1l5.7-26.8c0-.4-.1-.9-.1-1.3 0-3.6 1.3-7 3.9-9.6 2.6-2.7 6.1-4.2 9.8-4.2 3.7 0 7.1 1.4 9.8 4 2.6 2.6 4 6 4 9.7 0 2.3-.6 4.6-1.7 6.6l-3.1 14.9h12.3l-3.9 11.3c-5.4 15.5-16.2 17.9-22.2 17.9z"/><path d="M113.9 563.7c-2.8 8.1-7.6 12.2-14.2 12.2-1.7 0-3.3-.6-4.7-1.9-1.4-1.2-2-3.2-2-6 0-1.2.2-2.7.5-4.3l4.5-21.1h9.5l-4.7 22.4c-.2.8-.3 1.6-.3 2.3 0 1.5.9 2.2 2.7 2.2 1.3 0 2.5-.6 3.6-1.7s1.9-2.5 2.4-4.1h2.7zm-4.1-29.9c0 1.5-.5 2.7-1.6 3.7-1 1-2.3 1.5-3.7 1.5-1.4 0-2.7-.5-3.7-1.5s-1.5-2.2-1.5-3.7c0-1.4.5-2.7 1.5-3.7s2.2-1.6 3.7-1.6 2.7.5 3.7 1.5c1.1 1.1 1.6 2.3 1.6 3.8z"/><path d="M118.7 584.4c-5.7 0-9.4-2.2-11.5-4-2.3-2-5.1-5.8-5.1-12.2 0-1.7.2-3.3.5-4.9l6.2-29.2h18.5c1.7-.9 3.6-1.3 5.6-1.3 4.7 0 8.7 2.1 10.9 5.8 1.5 2.5 2.2 5.3 2.2 8.6 0 2.1-.2 4.3-.5 6.9-.4 2.5-.9 5.1-1.7 7.6-1.8 6-4.6 11.1-8.2 15.2-4.6 4.9-10.4 7.5-16.9 7.5z"/><path d="M120 567.3c0 1.5.8 2.2 2.3 2.2 2 0 4-1.4 5.8-4.1 2.5-3.7 4.2-8.3 5.2-13.8.3-1.5.4-2.9.4-4.1-.1.2-.4.4-.9.5l-.7.1h-.5c-.8 0-1.4-.4-1.8-1.1-.4-.7-.6-1.6-.6-2.4 0-.9.3-1.7 1-2.4s1.5-1 2.6-1c1.7 0 2.9.6 3.6 1.7.7 1.1 1 2.5 1 4.2 0 1.7-.2 3.6-.4 5.7-.3 2.1-.8 4.2-1.4 6.4-1.4 4.8-3.6 8.8-6.4 12-2.8 3.2-6.3 4.7-10.5 4.7-2.5 0-4.5-.6-5.9-1.9-1.4-1.3-2.2-3.2-2.2-5.9 0-1.1.1-2.2.3-3.2l4.7-22.4h9.5l-4.7 22.4c-.2 1.1-.4 1.9-.4 2.4z"/><path d="M147.7 584.4c-5.2 0-9.6-1.5-13-4.5-3.8-3.3-5.7-8.2-5.7-14.4 0-6.4 1.6-12.7 4.9-18.6 2.8-5.2 6.9-9 11.9-11.3 2.8-1.3 5.8-2 8.9-2 5.5 0 9.6 1.4 12.4 4.4 1.4 1.4 2.9 3.7 3.6 6.9l1.1-1-.8 4.2v.3c0 2.7-.5 5.3-1.5 7.8l-2.1 11.6c-1.8 10.3-9.2 16.6-19.7 16.6z"/><path d="M147.3 564.2c0 3.6 1.4 5.5 4.2 5.5 1.2 0 2.5-.4 4-1.1 1.4-.7 2.7-1.5 3.7-2.4-1.2 6.5-5 9.8-11.4 9.8-3.1 0-5.6-.8-7.4-2.4-1.9-1.6-2.8-4.3-2.8-8 0-5 1.3-9.9 3.8-14.6 1.9-3.6 4.6-6.1 8-7.7 1.7-.8 3.5-1.2 5.4-1.2 3 0 5.1.6 6.2 1.7 1.1 1.1 1.6 2.7 1.6 4.6 0 3.8-1.5 7-4.5 9.6-3 2.6-6.6 4.1-10.6 4.3-.2.5-.2 1.1-.2 1.9zm10.2-16.4c0-1.6-.5-2.4-1.6-2.4-2.1.1-4.1 2.5-6 7.3-.8 2-1.5 4.1-2 6.3 2.5-.1 4.8-1.2 6.7-3.4 1.9-2.2 2.9-4.8 2.9-7.8zM217.6 584.4c-4 0-7.4-.9-10.1-2.6l-.5 2.2h-43.1l10.6-49.9h20.1c1.2-.2 2.4-.3 3.6-.3 3 0 5.6.7 7.9 1.9 2.9-1.4 5.7-1.8 8.1-1.8 4 0 7.7 1.3 10.6 3.7 2.4 2 5.2 5.6 5.2 11.6 0 1.9-.2 3.9-.6 6.1H241l-3.8 11.2c-2.2 6.5-5.1 11.2-9 14.2-3.2 2.4-6.8 3.7-10.6 3.7z"/><path d="M217.6 575.9c-5.6 0-8.4-2.5-8.4-7.4 0-1.8.5-4.7 1.5-8.6 1-3.9 1.5-6.7 1.5-8.2 0-2.3-.8-3.4-2.4-3.4-1.6 0-3 1.3-4.2 3.8-.4.7-.7 1.5-.9 2.3l-4.5 21.1h-9.5l4.8-22.8c.1-.5.2-1.1.2-1.6 0-1.9-.6-2.9-1.9-2.9-1.3 0-2.4.6-3.3 1.8-.9 1.2-1.6 2.7-2.1 4.3l-4.5 21.1h-9.5l7-33h9.5l-.7 3.4c2.2-2.5 4.9-3.7 8-3.7 3.9 0 6.1 1.9 6.8 5.7 2.4-3.7 5.5-5.6 9.2-5.6 2.1 0 3.8.6 5.2 1.7 1.4 1.2 2.1 2.9 2.1 5.1 0 2.2-.4 4.8-1.1 7.7l-1.5 6.4c-.3 1.4-.5 2.5-.5 3.4 0 1.9.8 2.8 2.4 2.8 1.5 0 2.6-.5 3.4-1.4.8-.9 1.6-2.4 2.4-4.4h2.8c-1.6 4.8-3.7 8.2-6.2 10.2-1.9 1.5-3.7 2.2-5.6 2.2z"/><path d="M249.2 584.4c-3 0-5.6-.7-7.9-2-3 1.5-6 2-8.4 2-4.1 0-7.8-1.4-10.7-4.1-2.2-2-4.8-5.8-4.8-12.3 0-1.8.2-3.8.7-6.1L224 534h43.1l-4.5 21.1h11.7l-3.9 11.2c-5.2 15.7-15.5 18.1-21.2 18.1z"/><path d="M262.5 563.7c-2.8 8.1-7.2 12.2-13.2 12.2-3.9 0-6.1-2.1-6.5-6.2-2.6 4.2-5.8 6.2-9.8 6.2-2 0-3.6-.6-5-1.9-1.3-1.2-2-3.2-2-6 0-1.2.2-2.7.5-4.3l4.5-21.1h9.5l-4.7 22.4c-.1.7-.2 1.3-.2 1.9 0 1.8.7 2.7 2 2.7 2.3 0 4.1-1.9 5.3-5.8l4.5-21.1h9.5l-4.7 22.4c-.2.8-.3 1.5-.3 2.3 0 1.5.9 2.3 2.7 2.3 2.5 0 4.2-1.9 5.3-5.8h2.6z"/><path d="M267.2 584.4c-6.8 0-10.9-2.7-13.2-5-4.1-4.1-4.9-8.5-4.9-11.3 0-3.7.9-6.8 2.6-9.3.9-1.2 1.8-2.3 2.9-3.2 2.4-4.6 4.6-10.1 6.5-16.2l1.6-5.2 24.4-3.2.4 9.3c.2 4 .3 7.4.5 10.2l.4 4.9h17.8l-12 14c-3.1 3.6-6.9 6.8-11.3 9.5-3.1 2.6-8.1 5.5-15.7 5.5z"/><path d="M287.6 563.7c-2.7 3.2-6.1 5.9-10.1 8.2-2.5 2.6-5.9 4-10.4 4-3.1 0-5.5-.8-7.1-2.5-1.7-1.7-2.5-3.5-2.5-5.4 0-1.9.4-3.4 1.1-4.4.7-1.1 1.5-1.8 2.4-2.2 3.1-5.5 5.8-12 8.1-19.5l9.8-1.3c.2 4.1.3 7.6.5 10.3l.8 10.5c.1 1 .1 2 .1 3.1 0 1-.1 1.9-.3 2.6 1.9-1.1 3.5-2.2 4.7-3.3h2.9zm-23.1 7c4.2 0 6.3-2 6.3-6.1 0-1.1-.1-2.5-.3-4l-.4-3.8c-.2-2.4-.4-5-.6-7.8-1.1 3.6-2.9 7.8-5.3 12.5 1 .5 1.5 1.2 1.5 2.1 0 .9-.3 1.7-.8 2.4s-1.2 1-2.1 1c-.9 0-1.5-.3-1.8-.9.1 3 1.2 4.6 3.5 4.6z"/><path d="M291.1 584.4c-3.9 0-7.4-1.4-10.4-4.1-2.2-2-4.8-5.8-4.8-12.3 0-1.8.2-3.8.7-6.1l5.7-26.8c0-.4-.1-.9-.1-1.3 0-3.6 1.3-7 3.9-9.6 2.6-2.7 6.1-4.2 9.8-4.2 3.7 0 7.1 1.4 9.8 4 2.6 2.6 4 6 4 9.7 0 2.3-.6 4.6-1.7 6.6l-3.1 14.9h12.3l-3.9 11.3c-5.5 15.5-16.3 17.9-22.2 17.9z"/><path d="M305.2 563.7c-2.8 8.1-7.6 12.2-14.2 12.2-1.7 0-3.3-.6-4.7-1.9-1.4-1.2-2-3.2-2-6 0-1.2.2-2.7.5-4.3l4.5-21.1h9.5l-4.7 22.4c-.2.8-.3 1.6-.3 2.3 0 1.5.9 2.2 2.7 2.2 1.3 0 2.5-.6 3.6-1.7s1.9-2.5 2.4-4.1h2.7zm-4-29.9c0 1.5-.5 2.7-1.6 3.7-1 1-2.3 1.5-3.7 1.5-1.5 0-2.7-.5-3.7-1.5s-1.5-2.2-1.5-3.7c0-1.4.5-2.7 1.5-3.7s2.2-1.6 3.7-1.6 2.7.5 3.8 1.5c1 1.1 1.5 2.3 1.5 3.8z"/><path d="M311.4 584.4c-5.2 0-9.5-1.5-13-4.5-3.8-3.3-5.7-8.2-5.7-14.4 0-6.5 1.6-12.7 4.9-18.7 2.8-5.2 6.8-9 11.9-11.3 2.8-1.3 5.8-2 8.9-2 5.6 0 9.6 1.4 12.4 4.4 2 2.1 3.3 4.7 3.8 7.6l1.2-1-1.1 5.5c-.1 1-.3 1.9-.5 2.8l-2.9 15c-2.2 10.4-9.6 16.6-19.9 16.6z"/><path d="M310.9 564.3c0 3.7 1.3 5.5 4 5.5 2.4 0 5-1.2 7.9-3.6-1.3 6.5-5.1 9.8-11.4 9.8-3.1 0-5.5-.8-7.4-2.4-1.9-1.6-2.8-4.3-2.8-8 0-5 1.3-9.9 3.8-14.6 1.9-3.5 4.6-6.1 8-7.6 1.7-.8 3.5-1.2 5.4-1.2 3.1 0 5.2.6 6.2 1.7 1.1 1.1 1.6 2.6 1.6 4.3 0 1.7-.4 3-1.1 3.7-.7.7-1.5 1.1-2.4 1.1-.9 0-1.6-.3-2.3-.8.5-1.3.8-2.6.8-3.9 0-1.8-.6-2.7-1.8-2.7-1.3 0-2.7 1.2-4.1 3.5-2 3.2-3.3 7.1-4.1 11.7-.2 1.2-.3 2.4-.3 3.5z"/><path d="M322.9 590.9c-2.8-1.8-4.4-4.9-4.4-8.3 0-2 .6-3.7 1.3-5.1-1.6-2.6-1.9-5-1.9-6.6 0-3.9 1.3-7.3 3.9-9.9 2.6-2.7 6.1-4.2 9.8-4.2 5.8 0 10.5 3.4 12.3 8.9.5 1.5.7 3.1.7 4.8 0 3.6-1.2 7.2-3.6 11.2-2.2 3.6-5.1 6.7-8.7 9.2l-4.7 3.2-4.7-3.2z"/><path d="M327.6 583.8c-.4-.3-.6-.7-.6-1.2 0-.7.6-1.7 1.7-2.9s1.7-2.1 1.7-2.8c0-.7-.4-1.2-1.1-1.7-1.9-1.2-2.9-2.7-2.9-4.3 0-1.7.5-3 1.5-4s2.2-1.6 3.7-1.6c2.1 0 3.5 1 4.2 3 .2.6.3 1.4.3 2.2 0 2-.8 4.2-2.3 6.8-1.5 2.6-3.6 4.7-6.2 6.5z"/><path d="M347.5 600.5c-4 0-7.8-1.4-10.9-4-3.5-2.9-5.4-6.9-5.4-11.2 0-3.3.7-6.1 2-8.5 1.2-2.1 2.8-3.9 4.8-5.3 1.5-1.1 3.3-2 5.7-2.9l7-33c2.4-11.4 9.8-17.9 20.3-17.9 4 0 7.8 1.4 10.9 4 3.5 2.9 5.3 7.1 5.3 11.6 0 1.5-.1 2.8-.3 4.1l-1.2 7.1h-5.3l-1.7 9.2h-5.1l-6.2 28.9c-2.1 11.3-9.4 17.9-19.9 17.9z"/><path d="M375.5 535.9c.1-.7.1-1.3.1-2 0-.6-.3-1.1-.8-1.5-.5-.4-1-.6-1.5-.6-1.1 0-2.1.4-2.9 1.2-.9.8-1.5 2.2-1.9 4.2l-1.1 5.2h4.8l-.5 2.6h-4.9l-7.6 35.6c-1.5 7.5-5.4 11.2-11.8 11.2-2 0-3.8-.7-5.4-2-1.6-1.3-2.4-2.9-2.4-4.7 0-1.8.3-3.2.9-4.2.6-1 1.4-2 2.4-2.7 1.5-1.1 4.2-2.2 8-3.3l8-37.7c1.6-7.5 5.6-11.2 12-11.2 2 0 3.8.7 5.4 2 1.6 1.3 2.3 3 2.3 5.1 0 1-.1 1.9-.2 2.7h-2.9zm-24.9 41.2c-2.3.8-3.9 1.6-4.8 2.3-1.6 1.3-2.4 2.8-2.4 4.5 0 .9.5 1.5 1.6 2 .3.1.8.2 1.3.2s1.2-.4 1.8-1.1c.7-.8 1.2-2.1 1.6-4l.9-3.9z"/><path d="M380.7 584.2c-8.5 0-15-4-17.7-11-.9-2.3-1.4-4.8-1.4-7.4 0-2 .2-4.1.5-6.2.3-2.1.9-4.2 1.6-6.4 1.7-5.2 4.4-9.6 7.8-12.9 4.5-4.5 10.3-6.8 16.6-6.8 5.6 0 11.4 2.3 14.6 8.2l9.4-6.5 5.6 17.6-3.5 3.6c-2.7 2.8-6.2 5-10.3 6.5-1.2 5-3.2 9.4-6.1 13-4.5 5.4-10.5 8.3-17.1 8.3z"/><path d="M408.1 550.5c-2.7 2.8-6.6 4.6-11.7 5.5-.5 6-2.2 10.8-5.2 14.4-2.9 3.6-6.5 5.4-10.6 5.4-5.1 0-8.3-1.9-9.8-5.6-.5-1.3-.8-2.8-.8-4.3s.1-3.2.4-4.8c.3-1.6.7-3.3 1.3-5.1 1.3-3.9 3.2-7.1 5.7-9.6 3-2.9 6.5-4.4 10.7-4.4 5.6 0 8.5 3.5 8.5 10.5v.1c.2 0 .6.1 1.1.1 1.2 0 2.7-.4 4.6-1.1 1.9-.8 3.6-1.7 5.2-2.8l.6 1.7zm-17.1 5.6c-1.2-.3-1.8-1.3-1.8-2.9 0-1.7.7-2.8 2.1-3.4-.1-1.4-.3-2.4-.7-3-.4-.6-1-.9-2.1-.9-2 0-3.9 2.2-5.8 6.7-1.8 4.5-2.8 8.4-2.8 11.9 0 2.1.2 3.5.6 4 .4.6.8.9 1.2 1.1.4.2 1 .2 1.7.2 1.5 0 3-1.3 4.5-4 1.5-2.6 2.5-5.8 3.1-9.7z"/><path d="M409.6 584.2c-8.5 0-15-4-17.7-11-.9-2.3-1.4-4.8-1.4-7.4 0-2 .2-4.1.5-6.2.3-2 .9-4.2 1.6-6.4 1.7-5.2 4.3-9.5 7.8-12.9 4.5-4.5 10.3-6.8 16.6-6.8 5.6 0 11.4 2.3 14.6 8.2l9.4-6.5 5.6 17.6-3.5 3.7c-2.7 2.8-6.2 5-10.3 6.4-1.2 5-3.2 9.4-6.1 13-4.5 5.4-10.4 8.3-17.1 8.3z"/><path d="M437 550.5c-2.7 2.8-6.6 4.6-11.7 5.5-.5 6-2.2 10.8-5.2 14.4-2.9 3.6-6.5 5.4-10.6 5.4-5.1 0-8.3-1.9-9.8-5.6-.5-1.3-.8-2.8-.8-4.3s.1-3.2.4-4.8c.3-1.6.7-3.3 1.3-5.1 1.3-3.9 3.2-7.1 5.7-9.6 3-2.9 6.5-4.4 10.7-4.4 5.6 0 8.5 3.5 8.5 10.5v.1c.2 0 .6.1 1.1.1 1.2 0 2.7-.4 4.6-1.1 1.9-.8 3.6-1.7 5.2-2.8l.6 1.7zm-17.1 5.6c-1.2-.3-1.8-1.3-1.8-2.9 0-1.7.7-2.8 2.1-3.4-.1-1.4-.3-2.4-.7-3-.4-.6-1-.9-2.1-.9-2 0-3.9 2.2-5.8 6.7-1.8 4.5-2.8 8.4-2.8 11.9 0 2.1.2 3.5.6 4 .4.6.8.9 1.2 1.1.4.2 1 .2 1.7.2 1.5 0 3-1.3 4.5-4 1.6-2.6 2.6-5.8 3.1-9.7z"/><path d="M453.1 584.4c-3.2 0-5.9-.6-8.1-2-3.1 1.5-6.1 2-8.5 2-7.4 0-13.1-4.1-15.7-11.2-.8-2.3-1.3-4.8-1.3-7.5 0-2.2.2-4.4.6-6.6.4-2.3 1-4.5 1.8-6.6 1.8-5 4.5-9.2 8-12.6 3.9-3.8 8.9-5.9 14.4-6.1l2.3-10.7 27.6-3.7-8.2 38.4 3.7-1.4-.9 13.4c-.4 5.8-3.1 9.2-5.4 11-2.9 2.3-6.4 3.6-10.3 3.6z"/><path d="M458.2 569.5c.7 0 1.4-.1 2.1-.4-.1 2.2-.9 3.9-2.3 5.1-1.4 1.2-3 1.7-4.9 1.7-1.8 0-3.2-.3-4.1-1-1.5-1.2-2.5-2.7-2.9-4.5-2.7 3.6-5.9 5.5-9.7 5.5-3.8 0-6.4-1.9-7.7-5.6-.5-1.4-.7-2.9-.7-4.6 0-1.7.2-3.5.5-5.2.3-1.7.8-3.4 1.4-5.2 1.4-3.8 3.3-6.9 5.9-9.4 2.6-2.5 5.6-3.7 9.2-3.7 1.9 0 3.3.3 4.1 1 .8.6 1.3 1.4 1.3 2.4v.3l3.2-15.2 9.7-1.3-7.6 35.6c-.2.7-.3 1.3-.3 1.9.1 1.7 1 2.6 2.8 2.6zm-20.4-4.8c0 3.2 1.1 4.8 3.3 4.8.9 0 1.9-.4 2.9-1.2 1-.8 1.8-2 2.3-3.6l3.5-16.2c-.4-1.5-1.3-2.3-2.7-2.3-1.4 0-2.7.7-3.8 2-2.8 3.2-4.5 7.7-5.2 13.6-.2 1-.3 1.9-.3 2.9zM489.9 584.4c-4.2 0-7.6-.6-10.4-1.9-2.8-1.2-5.1-2.9-7.1-5-3.7-3.9-5.6-9-5.6-14.7 0-5.4 1.6-10.3 4.8-14.5.7-.9 1.4-1.7 2.2-2.5-1.1-2.4-1.6-5-1.6-7.8 0-5.6 2.3-10.7 6.8-14.7 4.3-3.8 9.8-5.8 16.3-5.8 5 0 9.4 1.2 13.1 3.5 4.9 3 7.5 7.9 7.5 13.8 0 1.8-.2 3.4-.6 4.9H528v8.5c0 3-1 7.4-5.7 11.9-1.9 1.7-3.9 3.1-6.1 4.1-3.5 9.6-9 15.9-16.3 18.6-2.7 1.1-6 1.6-10 1.6z"/><path d="M507.9 550.8l5 .3c1.2 0 2.4-.2 3.6-.7 1.2-.4 2.1-1.2 2.7-2.2h.4c0 1.9-1 3.8-3 5.7-2 1.9-4.4 3-7 3.5-2.6 9.5-6.8 15.3-12.5 17.4-1.8.7-4.1 1-7.1 1-2.9 0-5.2-.4-6.9-1.1-1.7-.8-3.1-1.8-4.2-3-2.3-2.4-3.4-5.4-3.4-8.9s1-6.7 3.1-9.5 5-4.6 8.8-5.3c-4.4-2.3-6.5-5.7-6.5-10 0-3.2 1.3-6 4-8.4 2.7-2.4 6.2-3.6 10.7-3.6 3.4 0 6.2.7 8.6 2.2 2.4 1.5 3.5 3.7 3.5 6.6 0 4.1-1.5 6.1-4.6 6.1-1.5 0-2.8-.6-3.8-1.7.7-.2 1.4-1 2-2.2.6-1.2.9-2.2.9-2.8 0-3.6-1.4-5.3-4.3-5.3-2.3 0-4.3.8-5.8 2.4-1.5 1.6-2.3 3.4-2.3 5.5s.7 4.1 2 6.1c1.4 1.9 3.6 3.6 6.7 5.1-3.9 1.7-6.8 3.6-8.7 6-1.9 2.3-2.8 4.7-2.8 7.2s.8 4.6 2.3 6.3c1.5 1.7 3.3 2.6 5.5 2.6 4.2 0 7.5-2.1 9.8-6.4.9-1.6 1.6-3.6 2.1-6l-2.4-.3c-.8-.1-1.5-.1-2.2-.1-2.9 0-4.9 1-6.2 3l-.5-.1c.7-2.7 2.1-5 4.3-6.7 1.9-1.8 4.7-2.7 8.2-2.7zM542.1 584.4c-6.2 0-10.1-2.5-12.2-4.6-2.3-2.2-4.9-6-4.9-12.3 0-1.8.2-3.7.7-5.7l8.3-38.7 27.6-3.7-3.3 15.4c5.9 2 11 7.6 11 18.9 0 6.6-1.7 12.7-5 18.3-2.9 5-7 8.5-12.1 10.7-3.1 1.1-6.3 1.7-10.1 1.7z"/><path d="M552.9 542.3c5.2 0 7.8 3.8 7.8 11.3 0 5.1-1.3 9.7-3.8 14-2 3.3-4.7 5.7-8.1 7.1-1.8.7-4.1 1.1-6.7 1.1-2.7 0-4.8-.7-6.4-2.2-1.5-1.5-2.3-3.6-2.3-6.2 0-1.2.1-2.4.5-3.8l7-33 9.8-1.3-3.2 14.8c2-1.1 3.8-1.8 5.4-1.8zm-9.9 22.6c-.1.6-.2 1.1-.2 1.5 0 2 1.2 3.1 3.5 3.1 1.9 0 3.8-1.8 5.5-5.5 1.5-3.4 2.3-6.7 2.3-10s-.7-5.4-2-6.5c-.5-.4-.9-.5-1.3-.5-.8 0-1.7.1-2.4.3-.8.2-1.4.5-1.7.9l-3.7 16.7z"/><path d="M569.3 584.4c-3.9 0-7.4-1.4-10.4-4.1-2.2-2-4.8-5.8-4.8-12.3 0-1.8.2-3.8.7-6l5.7-26.8c0-.4-.1-.9-.1-1.4 0-3.6 1.3-6.9 3.8-9.6 2.6-2.7 6-4.2 9.8-4.2 3.7 0 7.1 1.4 9.8 4 2.6 2.6 4 6 4 9.7 0 2.3-.6 4.6-1.7 6.6l-3.1 14.8h12.4l-3.9 11.3c-5.4 15.6-16.3 18-22.2 18z"/><path d="M583.5 563.7c-2.8 8.1-7.6 12.2-14.2 12.2-1.7 0-3.3-.6-4.7-1.9-1.3-1.2-2-3.2-2-6 0-1.2.2-2.7.5-4.3l4.5-21.1h9.5l-4.7 22.4c-.2.8-.3 1.6-.3 2.3 0 1.5.9 2.2 2.7 2.2 1.3 0 2.5-.6 3.6-1.7s1.9-2.5 2.4-4.1h2.7zm-4.1-29.9c0 1.5-.5 2.7-1.6 3.7-1 1-2.3 1.5-3.7 1.5-1.5 0-2.7-.5-3.7-1.5s-1.5-2.2-1.5-3.7c0-1.4.5-2.7 1.5-3.7s2.2-1.6 3.7-1.6 2.7.5 3.7 1.5c1.1 1.1 1.6 2.3 1.6 3.8z"/><path d="M586.9 584.4c-3.8 0-7.4-1.4-10.4-4.1-2.2-2-4.8-5.8-4.8-12.3 0-1.8.2-3.9.7-6.1l8.3-38.9 27.6-3.7-7.6 35.9H613l-3.9 11.3c-5.4 15.5-16.3 17.9-22.2 17.9z"/><path d="M601.1 563.7c-2.8 8.1-7.6 12.2-14.2 12.2-1.7 0-3.3-.6-4.7-1.9-1.4-1.2-2-3.2-2-6 0-1.2.2-2.7.5-4.3l7-33 9.8-1.3-7.6 35.6c-.2.8-.3 1.6-.3 2.3 0 1.5.9 2.2 2.7 2.2 1.3 0 2.5-.6 3.6-1.7s1.9-2.5 2.4-4.1h2.8z"/><path d="M622.5 584.4c-3 0-5.7-.7-8-2.1-3.1 1.6-6.1 2.1-8.6 2.1-7.4 0-13.2-4.1-15.8-11.2-.8-2.3-1.3-4.8-1.3-7.5 0-2.2.2-4.5.6-6.7.4-2.2 1-4.4 1.8-6.6 1.8-5 4.5-9.2 8-12.6 4.1-4 9.3-6.1 15.1-6.1 1.3 0 2.6.1 3.7.3h22.3l-4.5 21.1h11.7l-3.9 11.2c-5.2 15.7-15.5 18.1-21.1 18.1z"/><path d="M635.7 563.7c-2.8 8.1-7.2 12.2-13.2 12.2-3.9 0-6-2-6.5-6.1-2.9 4-6.2 6.1-10.1 6.1-3.8 0-6.4-1.9-7.8-5.6-.5-1.4-.7-2.9-.7-4.6 0-1.7.1-3.5.5-5.2.3-1.7.8-3.4 1.4-5.2 1.4-3.8 3.3-6.9 5.9-9.4 2.5-2.5 5.6-3.7 9.2-3.7 1.9 0 3.3.3 4.1 1 .8.6 1.3 1.4 1.3 2.4v.5l.7-3.5h9.5l-4.7 22.4c-.2.8-.3 1.5-.3 2.1 0 1.9.9 2.8 2.7 2.8 2.3 0 4.1-2.1 5.3-6.2h2.7zm-16.6-14.9c0-.4-.2-.9-.6-1.6-.4-.6-1.2-1-2.4-1s-2.4.7-3.6 2c-2.8 3.2-4.5 7.7-5.2 13.6-.1.9-.2 1.9-.2 2.9 0 2 .4 3.3 1.2 4.1.5.5 1.1.7 1.8.7 1.3 0 2.5-.5 3.6-1.6 1.1-1 1.8-2.5 2.2-4.3l3.2-14.8z"/><path d="M620 584l10.6-49.9h26.8l-.1.4c2.8.7 5.2 2.2 6.9 4.5 1.9 2.5 2.9 5.2 2.9 8.1 0 3.6-1.2 6.9-3.3 9.4-2.5 2.9-5.8 4.4-9.5 4.4-.9 0-1.7-.1-2.5-.2l-4.9 23.4H620z"/><path d="M630.5 575.5l7-33h9.5l-.8 4.1c1.1-1 2.3-1.9 3.6-2.8 1.3-.9 2.7-1.3 4.3-1.3 1.5 0 2.7.5 3.5 1.5.8 1 1.2 2 1.2 2.9 0 1.6-.4 2.9-1.3 3.9-.8 1-1.9 1.5-3.1 1.5-1.2 0-2-.3-2.4-.8-.4-.5-.6-1.1-.7-1.7-.1-.6-.2-1-.3-1.4-.1-.3-.4-.5-.9-.5-.9 0-1.7.2-2.4.6-.7.4-1.5 1-2.4 1.9l-5.3 25h-9.5z"/><path d="M682 584.4c-3.2 0-5.9-.6-8.1-2-3.1 1.5-6.1 2-8.5 2-7.4 0-13.1-4.1-15.7-11.2-.8-2.3-1.3-4.8-1.3-7.5 0-2.2.2-4.4.6-6.6.4-2.3 1-4.5 1.8-6.6 1.8-5 4.5-9.2 8-12.6 3.9-3.8 8.9-5.9 14.4-6.1l2.3-10.7 27.6-3.7-8.2 38.4 3.7-1.4-.9 13.4c-.4 5.8-3.1 9.2-5.4 11-3 2.3-6.5 3.6-10.3 3.6z"/><path d="M687 569.5c.7 0 1.4-.1 2.1-.4-.1 2.2-.9 3.9-2.3 5.1-1.4 1.2-3 1.7-4.9 1.7-1.9 0-3.2-.3-4.1-1-1.5-1.2-2.5-2.7-2.9-4.5-2.7 3.6-5.9 5.5-9.7 5.5-3.8 0-6.4-1.9-7.7-5.6-.5-1.4-.7-2.9-.7-4.6 0-1.7.2-3.5.5-5.2.3-1.7.8-3.4 1.4-5.2 1.4-3.8 3.3-6.9 5.9-9.4 2.6-2.5 5.6-3.7 9.2-3.7 1.9 0 3.2.3 4.1 1 .8.6 1.3 1.4 1.3 2.4v.3l3.2-15.2 9.8-1.3-7.6 35.6c-.2.7-.3 1.3-.3 1.9 0 1.7.9 2.6 2.7 2.6zm-20.4-4.8c0 3.2 1.1 4.8 3.3 4.8.9 0 1.9-.4 2.9-1.2 1-.8 1.8-2 2.3-3.6l3.5-16.2c-.4-1.5-1.3-2.3-2.7-2.3-1.4 0-2.7.7-3.8 2-2.8 3.2-4.5 7.7-5.2 13.6-.2 1-.3 1.9-.3 2.9z"/><g><path class="st0" d="M96.6 564.4c-.6 1.8-1.3 3.3-2.1 4.6-.8 1.3-1.6 2.4-2.4 3.3-.8.9-1.7 1.6-2.5 2.2-.9.6-1.7 1-2.5 1.3-.8.3-1.6.5-2.3.6-.7.1-1.4.2-2 .2-1 0-1.9-.1-2.8-.5-.9-.3-1.6-.8-2.2-1.4-.6-.6-1.1-1.5-1.5-2.4-.4-1-.5-2.2-.5-3.6 0-.6 0-1.3.1-2s.2-1.5.4-2.3l7-33 9.8-1.3-7.6 35.6c-.1.4-.2.7-.2 1.1v1c0 .9.2 1.6.6 1.9.4.4 1.1.5 2 .5.6 0 1.3-.1 1.9-.4.6-.3 1.2-.7 1.7-1.2s1-1.1 1.4-1.9c.4-.7.7-1.5 1-2.3h2.7z"/><path class="st0" d="M114.2 564.4c-.6 1.8-1.3 3.3-2.1 4.6-.8 1.3-1.6 2.4-2.4 3.3-.8.9-1.7 1.6-2.5 2.2-.9.6-1.7 1-2.5 1.3-.8.3-1.6.5-2.3.6-.7.1-1.4.2-2 .2-1 0-1.9-.1-2.8-.5-.9-.3-1.6-.8-2.2-1.4-.6-.6-1.1-1.5-1.5-2.4-.4-1-.5-2.2-.5-3.6 0-.6 0-1.3.1-2s.2-1.5.4-2.3l4.5-21.1h9.5l-4.7 22.4c-.1.4-.2.7-.2 1.1v1c0 .9.2 1.6.6 1.9.4.4 1.1.5 2 .5.6 0 1.3-.1 1.9-.4.6-.3 1.2-.7 1.7-1.2s1-1.1 1.4-1.9c.4-.7.7-1.5 1-2.3h2.6zm-4.1-29.9c0 .7-.1 1.4-.4 2-.3.6-.7 1.2-1.1 1.6-.5.5-1 .8-1.7 1.1-.6.3-1.3.4-2 .4s-1.4-.1-2-.4c-.6-.3-1.2-.6-1.7-1.1-.5-.5-.8-1-1.1-1.6-.3-.6-.4-1.3-.4-2s.1-1.4.4-2c.3-.6.6-1.2 1.1-1.7.5-.5 1-.9 1.7-1.1.6-.3 1.3-.4 2-.4s1.4.1 2 .4c.6.3 1.2.7 1.7 1.1.5.5.9 1 1.1 1.7.2.6.4 1.3.4 2z"/><path class="st0" d="M115.9 543.3h9.5l-4.7 22.4c-.1.5-.2.9-.3 1.3-.1.4-.1.7-.1 1 0 .7.2 1.2.5 1.6.4.4.9.6 1.7.6 1.1 0 2.1-.4 3.1-1.1s1.9-1.7 2.7-3c.8-1.2 1.6-2.6 2.3-4.2s1.3-3.2 1.8-4.8c.5-1.6.9-3.2 1.1-4.8s.4-2.9.4-4.1c0 .1-.2.2-.3.3-.2.1-.4.2-.6.2-.2.1-.4.1-.6.1h-.5c-.4 0-.7-.1-1-.3-.3-.2-.6-.5-.8-.8-.2-.3-.4-.7-.5-1.1-.1-.4-.1-.8-.1-1.2 0-1 .3-1.9 1-2.6.7-.7 1.7-1 3.1-1 .8 0 1.5.2 2 .5s.9.8 1.3 1.3c.3.5.6 1.1.7 1.8s.2 1.4.2 2.1c0 1.8-.2 3.7-.5 5.8-.3 2.1-.8 4.2-1.4 6.4-.7 2.1-1.5 4.2-2.5 6.2s-2.2 3.8-3.6 5.3c-1.4 1.6-3 2.8-4.8 3.7-1.8.9-3.8 1.4-6.1 1.4-2.5 0-4.5-.6-5.9-1.9s-2.2-3.2-2.2-5.8c0-.4 0-.8.1-1.4 0-.6.1-1.2.3-1.8l4.7-22.1zM159.4 566.9c-.3 1.9-.9 3.5-1.6 4.7-.7 1.2-1.6 2.2-2.6 3-1 .8-2.1 1.3-3.3 1.6-1.2.3-2.5.5-3.8.5-1.5 0-2.9-.2-4.2-.6-1.3-.4-2.3-1-3.2-1.9-.9-.8-1.6-1.9-2.1-3.2-.5-1.3-.7-2.9-.7-4.8 0-1.3.1-2.7.4-4.4.3-1.7.7-3.3 1.2-5.1.6-1.7 1.3-3.4 2.2-5.1.9-1.7 2-3.2 3.3-4.5 1.3-1.3 2.8-2.4 4.6-3.2 1.8-.8 3.8-1.2 6-1.2 1.5 0 2.7.2 3.6.5.9.4 1.7.8 2.2 1.4.5.6.9 1.2 1.1 2 .2.8.3 1.5.3 2.4 0 1.9-.4 3.7-1.3 5.3-.8 1.6-2 3.1-3.4 4.3-1.4 1.2-3 2.2-4.8 3-1.8.8-3.7 1.2-5.7 1.3 0 .4-.1.7-.1 1v.9c0 1.1.1 1.9.3 2.6.2.7.5 1.3.9 1.7.4.4.8.7 1.3.9.5.2 1 .3 1.6.3.6 0 1.3-.1 2-.3.7-.2 1.4-.5 2.1-.8.7-.3 1.3-.7 2-1.1.6-.3 1.2-.7 1.7-1.2zm-11.3-7.1c1.3 0 2.5-.4 3.6-1 1.2-.6 2.2-1.4 3.1-2.4.9-1 1.6-2.1 2.1-3.4.5-1.3.8-2.6.8-4 0-.8-.1-1.5-.4-2-.2-.5-.7-.7-1.3-.7-.8 0-1.7.4-2.5 1.2-.8.8-1.6 1.9-2.3 3.2-.7 1.3-1.3 2.8-1.9 4.4-.4 1.5-.8 3.1-1.2 4.7zM229.5 564.4c-.9 2.7-1.9 4.9-3 6.5-1.1 1.6-2.1 2.8-3.2 3.7-1.1.8-2.1 1.4-3.2 1.7-1 .3-2 .4-2.9.4-1.5 0-2.7-.2-3.7-.6-1-.4-1.8-1-2.4-1.7s-1-1.5-1.3-2.4c-.3-.9-.4-1.8-.4-2.8 0-1.1.2-2.4.5-3.9s.6-3 1-4.6c.4-1.6.7-3.1 1-4.5s.5-2.7.5-3.8c0-2.3-.8-3.4-2.4-3.4-.6 0-1.2.2-1.7.5s-1 .8-1.4 1.3-.8 1.2-1.2 1.9-.6 1.5-.9 2.4l-4.5 21.1h-9.5l4.8-22.8c.1-.5.2-1.1.2-1.6 0-.4 0-.8-.1-1.1l-.3-.9c-.2-.3-.4-.5-.6-.6-.2-.2-.6-.2-.9-.2-.6 0-1.2.2-1.8.5-.5.3-1 .8-1.5 1.3-.4.6-.8 1.2-1.2 2-.3.8-.6 1.5-.9 2.4l-4.5 21.1h-9.5l7-33h9.5l-.7 3.4c.7-.8 1.4-1.4 2.1-1.9.7-.5 1.4-.9 2.1-1.1s1.4-.5 2-.5c.6-.1 1.3-.1 1.8-.1.9 0 1.7.1 2.4.3.8.2 1.4.5 2 1 .6.5 1.1 1 1.5 1.8s.7 1.6.9 2.6c.8-1.2 1.6-2.2 2.4-2.9s1.7-1.3 2.4-1.7c.8-.4 1.6-.6 2.3-.8.7-.1 1.4-.2 2-.2 1.1 0 2 .1 2.9.4.9.3 1.7.7 2.3 1.3.7.6 1.2 1.4 1.5 2.3.4.9.5 2.1.5 3.4 0 .9-.1 1.8-.2 2.8-.2 1-.4 2.1-.6 3.1-.2 1.1-.5 2.1-.8 3.2-.3 1.1-.5 2.1-.8 3-.2 1-.4 1.9-.6 2.7-.2.8-.2 1.5-.2 2.2 0 .8.2 1.5.6 2 .4.5 1.1.8 2.1.8.7 0 1.3-.1 1.9-.4.5-.3 1-.7 1.4-1.2.4-.5.8-1.1 1.2-1.9s.7-1.5 1-2.4h3.1z"/><path class="st0" d="M262.7 564.4c-.6 1.8-1.3 3.3-2 4.6s-1.5 2.4-2.3 3.3c-.8.9-1.6 1.6-2.4 2.2-.8.6-1.6 1-2.4 1.3-.8.3-1.5.5-2.2.6-.7.1-1.4.2-1.9.2-1.9 0-3.4-.5-4.5-1.6-1.1-1-1.8-2.6-2-4.7-.8 1.4-1.7 2.4-2.5 3.3-.9.8-1.7 1.4-2.5 1.9s-1.7.7-2.4.9c-.8.1-1.5.2-2.2.2-1 0-1.9-.1-2.8-.5-.9-.3-1.6-.8-2.2-1.4-.6-.6-1.1-1.5-1.5-2.4-.4-1-.5-2.2-.5-3.6 0-.6 0-1.3.1-2s.2-1.5.4-2.3l4.5-21.1h9.5l-4.7 22.4c-.1.7-.2 1.3-.2 1.9 0 .8.1 1.4.4 1.9.3.5.8.8 1.5.8.6 0 1.2-.1 1.8-.4.5-.3 1-.7 1.5-1.2.4-.5.8-1.1 1.2-1.9.3-.7.6-1.5.9-2.3l4.5-21.1h9.5l-4.7 22.4c-.1.4-.2.7-.2 1.1 0 .4-.1.7-.1 1 0 .9.2 1.6.7 1.9.4.4 1.1.5 2 .5.6 0 1.2-.1 1.8-.4.5-.3 1-.7 1.5-1.2s.8-1.1 1.2-1.9c.3-.7.6-1.5.9-2.3h2.3z"/><path class="st0" d="M287.9 564.4c-1.7 2-3.4 3.6-5.2 4.9-1.7 1.3-3.4 2.4-4.9 3.3-.7.7-1.5 1.3-2.3 1.9-.8.5-1.7.9-2.6 1.2-.9.3-1.8.5-2.8.7-.9.1-1.8.2-2.7.2-1.7 0-3.1-.3-4.3-.8-1.2-.5-2.2-1.2-3-2-.8-.8-1.4-1.7-1.8-2.7-.4-1-.6-2-.6-3 0-.8.1-1.5.3-2.1.2-.7.5-1.2.8-1.8.3-.5.7-1 1.1-1.3.4-.4.9-.7 1.3-.9 1.8-3.3 3.4-6.6 4.7-9.8 1.3-3.2 2.4-6.5 3.4-9.7l9.8-1.3c.1 2.9.3 5.3.4 7.4.1 2.1.2 3.9.3 5.4.1 1.5.2 2.8.3 3.9.1 1.1.2 2 .2 2.8.1.8.1 1.6.2 2.3v3.5c0 .4-.1.8-.2 1.2 1-.6 1.8-1.1 2.6-1.7.8-.5 1.5-1.1 2.1-1.7h2.9zm-26.6 2.4c0 1.5.3 2.7.9 3.5.6.8 1.6 1.1 3.1 1.1.7 0 1.4-.1 2.1-.3.7-.2 1.3-.5 1.8-1s1-1.1 1.3-1.9.5-1.7.5-2.9v-1.6c0-.5-.1-1.1-.1-1.7 0-.6-.1-1.2-.2-2-.1-.7-.2-1.6-.3-2.5-.1-1-.2-2.1-.3-3.3-.1-1.3-.2-2.7-.4-4.4-.7 2.1-1.4 4.2-2.3 6.2-.9 2-1.9 4.1-3 6.2.4.2.8.5 1.1.9.3.4.4.8.4 1.4 0 .4-.1.8-.2 1.2-.1.4-.3.7-.6 1-.3.3-.6.6-.9.7s-.8.3-1.2.3c-.4 0-.7-.1-1-.2s-.5-.3-.7-.7z"/><path class="st0" d="M305.5 564.4c-.6 1.8-1.3 3.3-2.1 4.6s-1.6 2.4-2.4 3.3c-.8.9-1.7 1.6-2.5 2.2-.9.6-1.7 1-2.5 1.3-.8.3-1.6.5-2.3.6-.7.1-1.4.2-2 .2-1 0-1.9-.1-2.8-.5-.9-.3-1.6-.8-2.2-1.4-.6-.6-1.1-1.5-1.5-2.4-.4-1-.5-2.2-.5-3.6 0-.6 0-1.3.1-2s.2-1.5.4-2.3l4.5-21.1h9.5l-4.7 22.4c-.1.4-.2.7-.2 1.1v1c0 .9.2 1.6.6 1.9.4.4 1.1.5 2 .5.6 0 1.3-.1 1.9-.4.6-.3 1.2-.7 1.7-1.2s1-1.1 1.4-1.9.7-1.5 1-2.3h2.6zm-4.1-29.9c0 .7-.1 1.4-.4 2-.3.6-.7 1.2-1.1 1.6-.5.5-1 .8-1.7 1.1-.6.3-1.3.4-2 .4s-1.4-.1-2-.4c-.6-.3-1.2-.6-1.7-1.1-.5-.5-.8-1-1.1-1.6-.3-.6-.4-1.3-.4-2s.1-1.4.4-2c.3-.6.6-1.2 1.1-1.7.5-.5 1-.9 1.7-1.1.6-.3 1.3-.4 2-.4s1.4.1 2 .4c.6.3 1.2.7 1.7 1.1.5.5.9 1 1.1 1.7.3.6.4 1.3.4 2z"/><path class="st0" d="M323 566.9c-.3 1.9-.9 3.5-1.6 4.7-.7 1.2-1.6 2.2-2.6 3-1 .8-2.1 1.3-3.4 1.6-1.2.3-2.5.5-3.8.5-1.5 0-2.9-.2-4.2-.6-1.3-.4-2.3-1-3.2-1.9s-1.6-1.9-2.1-3.2c-.5-1.3-.7-2.9-.7-4.8 0-1.3.1-2.7.4-4.4.3-1.7.7-3.4 1.2-5.1.6-1.7 1.3-3.4 2.2-5.1.9-1.7 2-3.2 3.3-4.5 1.3-1.3 2.8-2.4 4.6-3.2 1.7-.8 3.7-1.2 6-1.2 1.4 0 2.6.2 3.6.5.9.3 1.7.8 2.3 1.4s.9 1.2 1.2 2c.2.7.3 1.5.3 2.3 0 .8-.1 1.6-.3 2.2-.2.6-.5 1.1-.8 1.5-.3.4-.7.7-1.1.8-.4.2-.9.3-1.3.3-.8 0-1.6-.3-2.3-.8.3-.7.5-1.4.6-2 .1-.6.2-1.3.2-1.9 0-.8-.1-1.4-.4-1.9-.3-.5-.7-.8-1.4-.8s-1.4.3-2.1.9-1.3 1.5-2 2.5c-.6 1-1.2 2.2-1.8 3.5-.5 1.3-1 2.7-1.4 4.1-.4 1.4-.7 2.8-.9 4.1s-.3 2.6-.3 3.7c0 1 .1 1.9.3 2.6.2.7.5 1.3.8 1.7.4.4.8.7 1.3.9.5.2 1 .3 1.6.3.6 0 1.3-.1 2-.3.7-.2 1.4-.5 2.1-.9.7-.4 1.4-.7 2-1.2.6-.5 1.2-.9 1.7-1.3zM327.9 584.5c-.4-.3-.6-.6-.6-1.1 0-.6.2-1.1.5-1.6.4-.5.7-.9 1.2-1.4.4-.5.8-.9 1.2-1.4.4-.5.5-1 .5-1.6 0-.2-.1-.5-.2-.7-.1-.2-.4-.4-.7-.6-.9-.6-1.6-1.2-2.2-2-.6-.8-.9-1.7-.9-2.8 0-.7.1-1.4.4-2 .3-.6.6-1.2 1.1-1.7.5-.5 1-.8 1.7-1.1.6-.3 1.3-.4 2-.4 1.5 0 2.6.5 3.3 1.4.8.9 1.1 2.1 1.1 3.6 0 1-.2 2-.6 3.2-.4 1.2-.9 2.4-1.7 3.6s-1.6 2.4-2.7 3.6c-.8 1.1-2.1 2.1-3.4 3zM359.3 538.1c.5-2.4 1.2-4.3 2.1-5.7.9-1.5 1.9-2.6 3-3.4 1.1-.8 2.3-1.4 3.5-1.6 1.2-.3 2.3-.4 3.4-.4 1 0 1.9.2 2.9.5.9.3 1.8.8 2.5 1.4.7.6 1.3 1.4 1.7 2.2.4.9.7 1.8.7 2.9 0 1-.1 1.9-.2 2.7h-3.1c0-.4.1-.7.1-.9v-.8c0-.8-.3-1.3-.8-1.7-.5-.4-1.1-.6-1.8-.6-.3 0-.7.1-1.2.2-.4.2-.9.4-1.3.8s-.8.9-1.2 1.7-.7 1.6-.9 2.7l-1.1 5.2h4.8l-.5 2.6H367l-7.6 35.6c-.5 2.4-1.2 4.3-2 5.7-.9 1.5-1.9 2.6-3 3.4s-2.2 1.4-3.4 1.6c-1.2.3-2.3.4-3.4.4-1 0-1.9-.2-2.9-.5-.9-.3-1.8-.8-2.5-1.4-.7-.6-1.3-1.4-1.8-2.2-.4-.9-.7-1.8-.7-2.9 0-1.5.3-2.8.9-3.8.6-1 1.4-1.9 2.4-2.7 1-.7 2.2-1.4 3.6-1.9s2.8-1 4.4-1.5l8.3-37.6zm-8.4 39.8c-1 .3-2 .7-2.9 1.1-.9.4-1.7.9-2.3 1.4-.6.5-1.1 1.2-1.5 1.9-.4.7-.5 1.5-.5 2.3 0 .3.1.5.2.8.1.3.3.5.5.7.2.2.5.4.8.5.3.1.7.2 1.1.2.3 0 .7-.1 1-.2.4-.2.7-.4 1-.8.3-.4.6-.9.9-1.6.3-.7.5-1.5.7-2.5l1-3.8zM408.4 551.2c-1.3 1.4-3 2.5-5 3.4-2 .9-4.3 1.6-6.7 2-.3 3-.8 5.8-1.8 8.2-.9 2.4-2.1 4.5-3.5 6.2-1.4 1.7-3 3-4.8 4-1.8.9-3.7 1.4-5.7 1.4-1.5 0-2.9-.2-4.2-.6-1.3-.4-2.4-1-3.3-1.8-.9-.8-1.7-1.9-2.2-3.2s-.8-2.9-.8-4.8c0-1.3.1-2.8.4-4.4.3-1.6.7-3.3 1.3-5.1.6-1.7 1.4-3.4 2.3-5.1.9-1.7 2.1-3.1 3.4-4.5 1.3-1.3 2.9-2.4 4.7-3.2 1.8-.8 3.8-1.2 6-1.2 5.6 0 8.5 3.5 8.5 10.5v.1c.1 0 .2.1.3.1h.4c.8 0 1.6-.1 2.5-.3.9-.2 1.8-.5 2.7-.9.9-.4 1.8-.8 2.6-1.3.9-.5 1.6-1 2.3-1.5l.6 2zm-17.2 5.7c-.7-.2-1.2-.5-1.4-1-.2-.5-.4-1.1-.4-1.8 0-.9.2-1.7.6-2.3.4-.6.9-1 1.5-1.3 0-.7-.1-1.3-.2-1.8s-.3-.9-.5-1.2c-.2-.3-.4-.5-.7-.7-.3-.1-.7-.2-1.1-.2-.8 0-1.6.3-2.3.9-.7.6-1.4 1.4-2.1 2.4-.7 1-1.3 2.2-1.8 3.5-.5 1.3-1 2.6-1.4 4-.4 1.4-.7 2.7-.9 4.1s-.3 2.6-.3 3.7.1 2 .2 2.7c.1.7.3 1.2.6 1.6.3.4.6.7 1 .8.4.2 1 .2 1.6.2.8 0 1.6-.4 2.4-1.1s1.5-1.7 2.2-2.9c.7-1.2 1.3-2.7 1.8-4.3.6-1.6.9-3.4 1.2-5.3z"/><path class="st0" d="M437.3 551.2c-1.3 1.4-3 2.5-5 3.4-2 .9-4.3 1.6-6.7 2-.3 3-.8 5.8-1.8 8.2-.9 2.4-2.1 4.5-3.5 6.2-1.4 1.7-3 3-4.8 4-1.8.9-3.7 1.4-5.7 1.4-1.5 0-2.9-.2-4.2-.6-1.3-.4-2.4-1-3.3-1.8-.9-.8-1.7-1.9-2.2-3.2s-.8-2.9-.8-4.8c0-1.3.1-2.8.4-4.4.3-1.6.7-3.3 1.3-5.1.6-1.7 1.4-3.4 2.3-5.1.9-1.7 2.1-3.1 3.4-4.5 1.3-1.3 2.9-2.4 4.7-3.2 1.8-.8 3.8-1.2 6-1.2 5.6 0 8.5 3.5 8.5 10.5v.1c.1 0 .2.1.3.1h.4c.8 0 1.6-.1 2.5-.3.9-.2 1.8-.5 2.7-.9.9-.4 1.8-.8 2.6-1.3.9-.5 1.6-1 2.3-1.5l.6 2zm-17.2 5.7c-.7-.2-1.2-.5-1.4-1-.2-.5-.4-1.1-.4-1.8 0-.9.2-1.7.6-2.3.4-.6.9-1 1.5-1.3 0-.7-.1-1.3-.2-1.8s-.3-.9-.5-1.2c-.2-.3-.4-.5-.7-.7-.3-.1-.7-.2-1.1-.2-.8 0-1.6.3-2.3.9-.7.6-1.4 1.4-2.1 2.4-.7 1-1.3 2.2-1.8 3.5-.5 1.3-1 2.6-1.4 4-.4 1.4-.7 2.7-.9 4.1s-.3 2.6-.3 3.7.1 2 .2 2.7c.1.7.3 1.2.6 1.6.3.4.6.7 1 .8.4.2 1 .2 1.6.2.8 0 1.6-.4 2.4-1.1s1.5-1.7 2.2-2.9c.7-1.2 1.3-2.7 1.8-4.3.6-1.6 1-3.4 1.2-5.3z"/><path class="st0" d="M453.8 531.4l9.8-1.3-7.6 35.6c-.1.4-.2.7-.2 1 0 .3-.1.6-.1.9 0 .8.2 1.4.6 1.9.4.5 1.1.8 2.1.8.6 0 1.1 0 1.4-.1.3-.1.5-.2.8-.3-.1 1.2-.3 2.2-.8 3-.4.8-1 1.6-1.7 2.1s-1.4 1-2.3 1.2c-.8.3-1.7.4-2.5.4s-1.6-.1-2.4-.3c-.8-.2-1.4-.5-2-1-.6-.4-1.1-1-1.5-1.7-.4-.7-.7-1.5-.9-2.5-.5.7-1.1 1.4-1.7 2s-1.3 1.2-2.1 1.8-1.6.9-2.5 1.2c-.9.3-1.9.5-3 .5s-2.2-.2-3.3-.5c-1.1-.4-2-1-2.8-1.8s-1.5-1.9-2-3.3-.7-3-.7-5c0-1.5.2-3.1.5-4.8s.8-3.4 1.4-5.1c.6-1.7 1.4-3.4 2.3-4.9.9-1.6 2-3 3.3-4.2 1.3-1.2 2.7-2.2 4.3-2.9 1.6-.7 3.3-1.1 5.2-1.1 1.9 0 3.2.3 4.1 1s1.3 1.4 1.3 2.4v.3l3-15.3zm-7 33l3.2-15.1c0-.2-.1-.4-.2-.7-.1-.3-.2-.5-.4-.8-.2-.2-.5-.5-.8-.6-.3-.2-.8-.2-1.3-.2-.9 0-1.8.3-2.6.9-.8.6-1.6 1.4-2.3 2.4-.7 1-1.3 2.1-1.8 3.4-.5 1.3-1 2.6-1.4 3.9-.4 1.3-.7 2.7-.9 4-.2 1.3-.3 2.5-.3 3.5 0 1.3.1 2.2.4 2.9.2.7.5 1.2.9 1.5.3.3.7.5 1.1.6.4.1.7.1 1 .1.5 0 .9-.1 1.4-.3.5-.2 1-.5 1.4-.9.5-.4.9-.9 1.3-1.5s.7-1.3 1-2.1l.3-1zM512.2 558.3c-.5.1-1 .2-1.4.3-.4.1-.9.1-1.3.1-.3 2.8-1 5.4-2.2 7.7-1.1 2.3-2.6 4.3-4.3 5.9-1.8 1.6-3.8 2.9-6.2 3.8-2.3.9-4.9 1.3-7.7 1.3-2.1 0-3.9-.3-5.6-.8-1.7-.5-3.1-1.3-4.2-2.3-1.2-1-2-2.3-2.7-3.7s-.9-3.1-.9-4.9c0-1.8.3-3.7.9-5.5s1.5-3.4 2.6-5 2.4-2.8 3.9-4c1.5-1.1 3.1-1.9 4.8-2.4v-.3c-.7-.6-1.3-1.2-1.8-1.8-.5-.6-.9-1.2-1.2-1.9-.3-.7-.5-1.4-.6-2.2-.1-.8-.2-1.6-.2-2.6 0-1.8.4-3.5 1.1-5.2.8-1.6 1.8-3.1 3.1-4.3 1.3-1.2 2.8-2.2 4.6-3s3.6-1.1 5.6-1.1c1.5 0 2.9.2 4.2.7s2.4 1.1 3.3 1.9c.9.8 1.6 1.8 2.1 2.9.5 1.1.8 2.3.8 3.6 0 .9-.1 1.7-.4 2.5-.2.8-.6 1.4-1 1.9s-1 1-1.6 1.3c-.6.3-1.3.5-2 .5-.8 0-1.6-.2-2.3-.5-.7-.4-1.3-.9-1.8-1.5.8-.5 1.4-1.2 1.9-2.3s.8-2.1.8-3.2c0-1.2-.3-2.2-.9-2.9s-1.4-1.1-2.5-1.1c-.9 0-1.8.3-2.6.8s-1.5 1.2-2.2 2.1c-.6.9-1.1 1.9-1.5 3-.4 1.1-.6 2.3-.6 3.6 0 2.2.6 4.1 1.8 5.6s2.8 2.5 4.9 3.1v.3c-1.6.3-3.1.9-4.5 1.9-1.4 1-2.7 2.1-3.8 3.5-1.1 1.4-1.9 2.9-2.6 4.6s-.9 3.4-.9 5.1c0 2.3.6 4 1.7 5.3 1.1 1.3 2.7 1.9 4.7 1.9 1.4 0 2.9-.3 4.3-.9 1.4-.6 2.7-1.4 3.9-2.5 1.2-1.1 2.2-2.4 3-3.9.9-1.5 1.4-3.2 1.8-5.1-.5 0-1 .1-1.5.1-.5.1-1 .2-1.6.3-1.2.4-2.2.9-3.1 1.5-.9.6-1.6 1.3-2.1 2h-.2c-.3-.4-.5-.7-.7-1.1-.2-.4-.4-.8-.5-1.2-.3-1-.3-1.9-.2-2.8.2-.9.5-1.7 1-2.4s1.1-1.3 1.9-1.9 1.6-1 2.5-1.3c.7-.2 1.4-.4 2.2-.5s1.5-.2 2.3-.2c.8-.1 1.5-.1 2.2-.2l2.1-.3c.5-.2 1-.4 1.6-.7.5-.3 1.1-.6 1.5-.9.5-.3.9-.7 1.3-1 .4-.4.7-.7.9-1h.2c.4.4.7.8.9 1.2s.4.8.5 1.3c.3.9.3 1.8.1 2.8-.2.9-.6 1.8-1.2 2.5-.6.8-1.3 1.5-2.1 2.1s-1.3 1.1-2.3 1.4zM541.1 531.4l9.8-1.3-3.2 14.8c.7-.4 1.3-.7 1.8-1 .5-.2 1-.4 1.4-.6.4-.1.8-.2 1.2-.2h1c1.2 0 2.2.2 3.2.6 1 .4 1.8 1 2.5 1.9.7.9 1.2 2.1 1.6 3.5.4 1.4.6 3.2.6 5.3 0 1.3-.1 2.7-.4 4.3-.2 1.6-.6 3.2-1.2 4.9-.6 1.7-1.3 3.3-2.2 4.8-.9 1.6-2 3-3.4 4.2-1.3 1.2-2.9 2.2-4.7 2.9-1.8.7-3.9 1.1-6.2 1.1-3 0-5.3-.7-6.9-2.2-1.5-1.5-2.3-3.6-2.3-6.2 0-.6 0-1.2.1-1.9.1-.6.2-1.3.4-1.9l6.9-33zm2.2 34.3c-.1.6-.2 1.1-.2 1.5 0 2 1.2 3.1 3.5 3.1.7 0 1.4-.2 2.1-.7s1.3-1.1 1.9-1.9c.6-.8 1.1-1.7 1.6-2.8.5-1.1.9-2.2 1.2-3.4.3-1.2.6-2.4.8-3.7.2-1.2.3-2.4.3-3.6 0-.8-.1-1.6-.2-2.3-.1-.8-.4-1.4-.6-2-.3-.6-.7-1.1-1.1-1.4-.4-.4-1-.5-1.6-.5h-.9c-.4 0-.7.1-1.1.2-.4.1-.7.2-1.1.4-.3.2-.6.3-.8.6l-3.8 16.5zM583.7 564.4c-.6 1.8-1.3 3.3-2.1 4.6s-1.6 2.4-2.4 3.3c-.8.9-1.7 1.6-2.5 2.2-.9.6-1.7 1-2.5 1.3-.8.3-1.6.5-2.3.6-.7.1-1.4.2-2 .2-1 0-1.9-.1-2.8-.5-.9-.3-1.6-.8-2.2-1.4s-1.1-1.5-1.5-2.4c-.4-1-.5-2.2-.5-3.6 0-.6 0-1.3.1-2s.2-1.5.4-2.3l4.5-21.1h9.5l-4.7 22.4c-.1.4-.2.7-.2 1.1v1c0 .9.2 1.6.6 1.9.4.4 1.1.5 2 .5.6 0 1.3-.1 1.9-.4.6-.3 1.2-.7 1.7-1.2s1-1.1 1.4-1.9c.4-.7.7-1.5 1-2.3h2.6zm-4.1-29.9c0 .7-.1 1.4-.4 2-.3.6-.7 1.2-1.1 1.6-.5.5-1 .8-1.7 1.1s-1.3.4-2 .4-1.4-.1-2-.4-1.2-.6-1.7-1.1c-.5-.5-.8-1-1.1-1.6-.3-.6-.4-1.3-.4-2s.1-1.4.4-2c.3-.6.6-1.2 1.1-1.7.5-.5 1-.9 1.7-1.1s1.3-.4 2-.4 1.4.1 2 .4 1.2.7 1.7 1.1c.5.5.9 1 1.1 1.7.3.6.4 1.3.4 2z"/><path class="st0" d="M601.3 564.4c-.6 1.8-1.3 3.3-2.1 4.6s-1.6 2.4-2.4 3.3c-.8.9-1.7 1.6-2.5 2.2-.9.6-1.7 1-2.5 1.3-.8.3-1.6.5-2.3.6-.7.1-1.4.2-2 .2-1 0-1.9-.1-2.8-.5-.9-.3-1.6-.8-2.2-1.4s-1.1-1.5-1.5-2.4c-.4-1-.5-2.2-.5-3.6 0-.6 0-1.3.1-2s.2-1.5.4-2.3l7-33 9.8-1.3-7.6 35.6c-.1.4-.2.7-.2 1.1v1c0 .9.2 1.6.6 1.9.4.4 1.1.5 2 .5.6 0 1.3-.1 1.9-.4.6-.3 1.2-.7 1.7-1.2s1-1.1 1.4-1.9c.4-.7.7-1.5 1-2.3h2.7z"/><path class="st0" d="M636 564.4c-.6 1.8-1.3 3.3-2 4.6-.7 1.3-1.5 2.4-2.3 3.3-.8.9-1.6 1.6-2.4 2.2-.8.6-1.6 1-2.4 1.3-.8.3-1.5.5-2.2.6-.7.1-1.4.2-1.9.2-1.9 0-3.4-.5-4.5-1.5s-1.8-2.5-2-4.5c-.5.8-1.1 1.5-1.8 2.2-.6.7-1.4 1.4-2.2 1.9-.8.6-1.7 1-2.7 1.4-1 .4-2.1.5-3.2.5s-2.2-.2-3.3-.5c-1.1-.4-2-1-2.8-1.8s-1.5-1.9-2-3.3-.7-3-.7-5c0-1.5.2-3.1.5-4.8s.8-3.4 1.4-5.1c.6-1.7 1.4-3.4 2.3-4.9.9-1.6 2-3 3.3-4.2 1.3-1.2 2.7-2.2 4.3-2.9 1.6-.7 3.3-1.1 5.2-1.1 1.9 0 3.2.3 4.1 1s1.3 1.4 1.3 2.4v.5l.7-3.5h9.5l-4.7 22.4c-.1.4-.2.7-.2 1.1 0 .4-.1.7-.1 1 0 1.9.9 2.8 2.7 2.8.6 0 1.2-.2 1.8-.5.5-.3 1-.8 1.5-1.3.5-.6.8-1.2 1.2-2l.9-2.4h2.7zm-16.6-14.8c0-.2 0-.4-.1-.7-.1-.3-.2-.6-.4-.8s-.5-.5-.8-.7c-.3-.2-.8-.3-1.3-.3-.9 0-1.8.3-2.6.9-.8.6-1.6 1.4-2.3 2.4-.7 1-1.3 2.1-1.8 3.4-.5 1.3-1 2.6-1.4 3.9-.4 1.3-.7 2.7-.9 4-.2 1.3-.3 2.5-.3 3.5 0 1.3.1 2.2.4 2.9.2.7.5 1.2.9 1.5.3.3.7.5 1.1.6.4.1.7.1 1 .1.5 0 1-.1 1.6-.4.5-.2 1.1-.6 1.6-1.1s1-1.1 1.4-1.8c.4-.7.7-1.6.9-2.5l3-14.9z"/><path class="st0" d="M630.7 576.2l7-33h9.5l-.8 4.1 1.8-1.5c.6-.5 1.2-.9 1.9-1.3s1.3-.7 2-.9c.7-.2 1.5-.4 2.3-.4.8 0 1.4.1 2 .4.6.3 1 .6 1.4 1.1.4.5.7 1 .9 1.6.2.6.3 1.2.3 1.9 0 .6-.1 1.2-.3 1.7-.2.6-.5 1.1-.9 1.5-.4.5-.9.8-1.5 1.1-.6.3-1.3.4-2.1.4-.6 0-1.1-.1-1.4-.3-.3-.2-.6-.5-.8-.8-.2-.3-.3-.7-.4-1s-.2-.7-.2-1c-.1-.3-.2-.6-.3-.8-.1-.2-.4-.3-.7-.3-1 0-1.9.2-2.5.7-.7.5-1.4 1.1-2.3 1.8l-5.3 25h-9.6zM682.7 531.4l9.8-1.3-7.6 35.6c-.1.4-.2.7-.2 1 0 .3-.1.6-.1.9 0 .8.2 1.4.6 1.9.4.5 1.1.8 2.1.8.6 0 1.1 0 1.4-.1.3-.1.5-.2.8-.3-.1 1.2-.3 2.2-.8 3-.4.8-1 1.6-1.7 2.1s-1.4 1-2.3 1.2c-.8.3-1.7.4-2.5.4s-1.6-.1-2.4-.3c-.8-.2-1.4-.5-2-1-.6-.4-1.1-1-1.5-1.7-.4-.7-.7-1.5-.9-2.5-.5.7-1.1 1.4-1.7 2s-1.3 1.2-2.1 1.8-1.6.9-2.5 1.2c-.9.3-1.9.5-3 .5s-2.2-.2-3.3-.5c-1.1-.4-2-1-2.8-1.8s-1.5-1.9-2-3.3-.7-3-.7-5c0-1.5.2-3.1.5-4.8s.8-3.4 1.4-5.1c.6-1.7 1.4-3.4 2.3-4.9.9-1.6 2-3 3.3-4.2 1.3-1.2 2.7-2.2 4.3-2.9 1.6-.7 3.3-1.1 5.2-1.1 1.9 0 3.2.3 4.1 1s1.3 1.4 1.3 2.4v.3l3-15.3zm-7.1 33l3.2-15.1c0-.2-.1-.4-.2-.7-.1-.3-.2-.5-.4-.8-.2-.2-.5-.5-.8-.6-.3-.2-.8-.2-1.3-.2-.9 0-1.8.3-2.6.9-.8.6-1.6 1.4-2.3 2.4-.7 1-1.3 2.1-1.8 3.4-.5 1.3-1 2.6-1.4 3.9-.4 1.3-.7 2.7-.9 4-.2 1.3-.3 2.5-.3 3.5 0 1.3.1 2.2.4 2.9.2.7.5 1.2.9 1.5.3.3.7.5 1.1.6.4.1.7.1 1 .1.5 0 .9-.1 1.4-.3.5-.2 1-.5 1.4-.9.5-.4.9-.9 1.3-1.5s.7-1.3 1-2.1l.3-1z"/></g></g></svg>