<svg id="Warstwa_1" data-name="Warstwa 1" xmlns="http://www.w3.org/2000/svg" viewBox="0 0 6552.47 1247.93"><defs><style>.cls-1{fill:#fed700}.cls-2{fill:#fff}</style></defs><title>2</title><path class="cls-1" d="M783.52 12668a8 8 0 0 1-7.24-13 122.16 122.16 0 0 0 12-18.1c2.87-8.09 9.42-15.25 8.76-24-2.25-69.69 19.94-145.95 89.8-163 8.4-2.57-2.49 18.24-3.38 29.27.12 5.9 4.06 11.09 9 11.14a63.05 63.05 0 0 0 28.18-9.18 43.34 43.34 0 0 0 15.62-12.45c12.36-15.67 14.58-39.25-.14-55.46 7.13-5.82 18-1.23 25.5 2.4a56.17 56.17 0 0 1 8.23 5.78 63.38 63.38 0 0 1 12.84 14.75 51.52 51.52 0 0 1 4.31 9.13 43.62 43.62 0 0 1-.13 30.5c-.83 2.49-1.75 4.95-2.7 7.4-2.88 7.34-6 14.6-7.75 22a12.56 12.56 0 0 0 1.63 6.58 18.08 18.08 0 0 0 5.83 5.81 25.43 25.43 0 0 0 8.77.46 82.16 82.16 0 0 1 8.69 1.16c11.3 2.18 21 7.2 24.68 18.69a83.32 83.32 0 0 0-21 3.85 62.56 62.56 0 0 0-17.71 9 61.77 61.77 0 0 0-13.65 14.14c-2.79 5.3-5.48 10.68-8.2 16-23.4 68-97.74 77-159.35 84.18-8.31 1.09-16 2.1-22.59 2.95z" transform="translate(209.94 -12401.38)"/><path class="cls-2" d="M782.45 12677.08a17 17 0 0 1-13.2-27.68 113.51 113.51 0 0 0 10.78-16.2 72.6 72.6 0 0 1 4.07-8.57c2.24-4.23 4.18-7.88 3.94-11.05v-.39c-.9-27.9 1.61-68.83 18.7-105.35 16.44-35.14 43.33-58.19 77.75-66.67a11 11 0 0 1 11.24 2.59c5.52 5.55 3 13.51-.12 23.6-1.31 4.19-2.78 8.9-3.14 12a4.09 4.09 0 0 0 .62 1.83 53.94 53.94 0 0 0 22.83-7.74 8.79 8.79 0 0 1 .91-.49 34.13 34.13 0 0 0 12.37-9.89c9.24-11.71 12.3-30.54.25-43.82a9 9 0 0 1 1-13c12.11-9.89 28.23-2.06 35.12 1.28l.54.28a65.17 65.17 0 0 1 9.55 6.7 72.27 72.27 0 0 1 14.69 16.88l.09.14a60.59 60.59 0 0 1 5.06 10.73 52.57 52.57 0 0 1-.13 36.53c-.93 2.76-1.92 5.4-2.78 7.62l-1.35 3.42a142.78 142.78 0 0 0-5.76 16.32 3.35 3.35 0 0 0 .39 1.15 7.62 7.62 0 0 0 1.69 1.84 19.58 19.58 0 0 0 4.18 0 8.87 8.87 0 0 1 1.67 0 90.2 90.2 0 0 1 9.65 1.29c16.75 3.23 27.36 11.58 31.55 24.81a9 9 0 0 1-8 11.7 74.43 74.43 0 0 0-18.75 3.42 53.72 53.72 0 0 0-15.17 7.69 52.81 52.81 0 0 0-11.27 11.56c-1.82 3.48-3.64 7.06-5.41 10.53l-2.21 4.34c-11.41 32.58-34.41 55.38-70.31 69.7-30.64 12.22-65.48 16.29-96.22 19.87-8.26 1.1-15.92 2.11-22.5 3a17.31 17.31 0 0 1-2.32.03zm1.07-9.07zm22.49-55.57c.55 8.27-3.08 15.12-6 20.63a54 54 0 0 0-3.26 6.85 9 9 0 0 1-.56 1.27 131.44 131.44 0 0 1-11.41 17.58l20.11-2.66h.15c58-6.75 130.18-15.16 151.88-78.17a9 9 0 0 1 .5-1.17l2.47-4.85c1.87-3.69 3.81-7.5 5.78-11.24a9 9 0 0 1 .53-.88 68.56 68.56 0 0 1 36-26.61q3.47-1.14 7.15-2a35.3 35.3 0 0 0-9.71-3.16c-2.13-.41-4.41-.73-7-1a33.52 33.52 0 0 1-11-.78 9 9 0 0 1-2.75-1.22 27.09 27.09 0 0 1-8.63-8.78l-.06-.11a21.54 21.54 0 0 1-2.79-11.2 9 9 0 0 1 .25-1.91 147.17 147.17 0 0 1 6.82-19.92l1.3-3.3c.78-2 1.71-4.49 2.54-7l.12-.35a34.79 34.79 0 0 0 .07-24.29 42.49 42.49 0 0 0-3.52-7.46 54.06 54.06 0 0 0-10.95-12.54 47.33 47.33 0 0 0-6.64-4.7q-3.15-1.52-5.72-2.48c7.64 18.34 2.65 39.19-8.37 53.15a52.79 52.79 0 0 1-18.41 14.86 71.78 71.78 0 0 1-31.68 10.21 7.14 7.14 0 0 1-.88 0c-9.81-.11-17.67-8.88-17.9-20a9 9 0 0 1 0-.91c.41-5 2.21-10.82 4-16.41l.07-.23c-70.62 25.83-73.45 120.86-72.51 150.78zm83.44-154zM1449.67 13059.44h-69.22L1265.76 12894l-35.23 28.74v136.69h-59.72v-365.33h59.72v174.42q24.49-30 48.73-57.72l98.7-116.7h68q-95.71 112.45-137.19 160.17zM1567.86 12913.51v145.93h-59.72v-365.33h103.2q70.71 0 104.7 26.49t34 80q0 68.22-71 97.2l103.2 161.67h-68l-87.46-145.93h-59zm0-49.48h41.48q41.73 0 60.47-15.49t18.74-46q0-31-20.24-44.48t-61-13.49h-39.48V12864zM2124.34 13059.44h-69.22l-114.7-165.44-35.23 28.74v136.69h-59.72v-365.33h59.72v174.42q24.49-30 48.73-57.72l98.7-116.7h68q-95.71 112.45-137.19 160.17zM2385.69 12913.51v145.93H2326v-365.33h103.2q70.71 0 104.7 26.49t34 80q0 68.22-71 97.2l103.2 161.67h-68l-87.46-145.93h-59zm0-49.48h41.48q41.73 0 60.47-15.49t18.74-46q0-31-20.24-44.48t-61-13.49h-39.48V12864zM2902.19 12920.76q0 67.72-34.73 105.7t-96.7 38q-38.74 0-68.47-17.49t-45.73-50.23q-16-32.73-16-76 0-67.22 34.48-105t97.2-37.73q60 0 95 38.61t34.95 104.14zm-201.15 0q0 95.71 70.72 95.71 70 0 70-95.71 0-94.7-70.47-94.71-37 0-53.6 24.49t-16.69 70.22zM3152.81 13059.44l-11.74-38.48h-2q-20 25.24-40.23 34.36t-52 9.12q-40.73 0-63.6-22t-22.86-62.22q0-42.73 31.73-64.47t96.71-23.74l47.73-1.5v-14.74q0-26.48-12.37-39.61t-38.36-13.12a132.7 132.7 0 0 0-40.73 6.25 308.07 308.07 0 0 0-37.48 14.74l-19-42a204.53 204.53 0 0 1 49.23-17.87 226.6 226.6 0 0 1 50.48-6.12q52.72 0 79.59 23t26.86 72.22v186.16h-42zm-87.46-40q32 0 51.35-17.87t19.37-50.1v-24l-35.48 1.5q-41.48 1.5-60.35 13.87t-18.87 37.86q0 18.5 11 28.61t32.98 10.15zM3380.19 13064.44q-51.73 0-80.71-37.48t-29-105.2q0-68 29.36-105.83t81.34-37.86q54.47 0 83 40.23h3q-4.25-29.73-4.25-47v-100.7h59v388.82h-46l-10.25-36.23h-2.75q-28.27 41.25-82.74 41.25zm15.74-47.48q36.23 0 52.73-20.37t17-66.09v-8.25q0-52.22-17-74.21t-53.23-22q-31 0-47.73 25.11t-16.74 71.59q0 46 16.24 70.09t48.73 24.17zM3862.19 13017a142.85 142.85 0 0 0 43-6.75v44.23q-9.75 4.25-25.11 7.12a173.26 173.26 0 0 1-31.86 2.87q-83.46 0-83.46-88v-148.93H3727v-26l40.48-21.49 20-58.47h36.23v61.47h78.71v44.48h-78.71v147.93q0 21.24 10.62 31.36t27.86 10.18zM4215.77 12920.76q0 67.72-34.73 105.7t-96.71 38q-38.74 0-68.47-17.49t-45.73-50.23q-16-32.73-16-76 0-67.22 34.48-105t97.21-37.73q60 0 95 38.61t34.95 104.14zm-201.15 0q0 95.71 70.72 95.71 70 0 70-95.71 0-94.7-70.47-94.71-37 0-53.6 24.49t-16.66 70.22zM4653.54 12960.24q0 48.73-35.23 76.46t-97.2 27.74q-62 0-101.45-19.24v-56.47a275.47 275.47 0 0 0 53.1 18.49q28.11 6.75 52.35 6.75 35.48 0 52.35-13.49t16.87-36.23q0-20.49-15.49-34.73t-64-33.73q-50-20.24-70.47-46.23t-20.49-62.47q0-45.73 32.48-72t87.21-26.24q52.48 0 104.45 23l-19 48.73q-48.73-20.49-87-20.49-29 0-44 12.62t-15 33.36q0 14.24 6 24.36t19.74 19.12q13.74 9 49.48 23.74 40.23 16.74 59 31.24t27.49 32.73q8.81 18.24 8.81 42.98zM4923.15 13059.44l-8.25-36.23h-3q-12.25 19.25-34.86 30.24t-51.6 11q-50.23 0-75-25t-24.74-75.71v-180.67h59.3v170.42q0 31.74 13 47.6t40.73 15.87q37 0 54.35-22.12t17.37-74.09v-137.68h59v276.37h-46.23zM5174.77 13064.44q-62.72 0-95.33-36.61t-32.61-105.08q0-69.72 34.11-107.2t98.58-37.48q43.73 0 78.71 16.24l-17.74 47.23q-37.24-14.49-61.47-14.49-71.72 0-71.72 95.21 0 46.48 17.87 69.84t52.35 23.36a150.2 150.2 0 0 0 74.21-19.49v51.23a115.86 115.86 0 0 1-33.61 13.24q-17.86 4-43.35 4zM5438.39 13064.44q-62.72 0-95.33-36.61t-32.61-105.08q0-69.72 34.11-107.2t98.58-37.48q43.73 0 78.71 16.24l-17.74 47.23q-37.24-14.49-61.47-14.49-71.72 0-71.72 95.21 0 46.48 17.87 69.84t52.35 23.36a150.2 150.2 0 0 0 74.21-19.49v51.23a115.86 115.86 0 0 1-33.61 13.24q-17.87 4-43.35 4zM5711.25 13064.44q-64.47 0-100.83-37.61t-36.36-103.58q0-67.71 33.73-106.45t92.71-38.73q54.73 0 86.46 33.23t31.74 91.46v31.74h-184.16q1.25 40.23 21.74 61.85T5714 13018a213 213 0 0 0 45.6-4.62 238.9 238.9 0 0 0 45.4-15.38v47.73a180.19 180.19 0 0 1-43.48 14.49q-22.04 4.22-50.27 4.22zm-10.75-241.88q-28 0-44.85 17.74t-20.12 51.73H5761q-.5-34.23-16.49-51.85t-44-17.62zM6081.32 12980.73q0 40.48-29.49 62.1t-84.46 21.61q-55.23 0-88.71-16.74v-50.7q48.73 22.49 90.71 22.49 54.22 0 54.22-32.73 0-10.49-6-17.49t-19.74-14.49q-13.74-7.5-38.23-17-47.73-18.49-64.59-37t-16.87-48q0-35.48 28.61-55.1t77.84-19.62a220.49 220.49 0 0 1 92.21 19.74l-19 44.23q-44.73-18.49-75.21-18.49-46.48 0-46.48 26.49 0 13 12.12 22t52.85 24.74q34.23 13.25 49.73 24.24t23 25.36q7.49 14.37 7.49 34.36zM6340.68 12980.73q0 40.48-29.49 62.1t-84.46 21.61q-55.23 0-88.71-16.74v-50.7q48.73 22.49 90.71 22.49 54.22 0 54.22-32.73 0-10.49-6-17.49t-19.74-14.49q-13.74-7.5-38.23-17-47.73-18.49-64.59-37t-16.87-48q0-35.48 28.61-55.1t77.84-19.62a220.49 220.49 0 0 1 92.21 19.74l-19 44.23q-44.73-18.49-75.21-18.49-46.48 0-46.48 26.49 0 13 12.12 22t52.85 24.74q34.23 13.25 49.73 24.24t23 25.36q7.49 14.37 7.49 34.36zM1239.2 13421.44l-74.78-185.23h-1.1q1.1 17 1.1 34.85v150.38H1151v-200.6h21.68l71.07 176.45h.82l71.07-176.45h21.13v200.6h-14.13v-152q0-15.92 1.65-32.93h-1.1l-75.05 185h-8.92zM1535.3 13220.85v129.8q0 34.58-20 54.06t-55.84 19.48q-34.85 0-54.4-19.55t-19.55-54.54v-129.25h14.13v129.8q0 29 16.05 45.07t45.42 16.12q28.68 0 44.46-15.85t15.78-44v-131.17h14zM1730.14 13421.44H1716l-118.82-178.09h-1.1q1.65 31.83 1.65 48v130.07h-13.45v-200.6h14l118.72 177.85h.82q-1.23-24.7-1.23-46.92v-130.9h13.58v200.6zM1781.33 13421.44v-200.6h14v200.6h-14zM1932.12 13230.59q-37.73 0-59.41 24.15t-21.68 66.13q0 42.95 20.44 66.68t58.45 23.74a158.31 158.31 0 0 0 46.38-6.45v12.35q-19.9 7-49.67 7-42.26 0-66.55-27.3t-24.29-76.29q0-30.59 11.59-53.92a83.9 83.9 0 0 1 33.34-36q21.74-12.69 50.56-12.69 29.36 0 52.55 11l-5.62 12.62a101.8 101.8 0 0 0-46.09-11.02zM2015.41 13421.44v-200.6h14v200.6h-14zM2201.33 13278.47q0 29.09-19.76 44.59t-56 15.5h-31v82.87h-14v-200.6h49.12q71.64.02 71.64 57.64zm-106.75 48h27.58q33.89 0 49-11.18t15.09-36.29q0-23.19-14.27-34.37t-44.18-11.18h-33.2v93zM2335.94 13350.64h-81.5l-28 70.8h-15.5l80.68-201.42h8.92l79 201.42h-15.78zm-76.42-12.62h71.76l-27.3-72.31q-3.43-8.5-8.23-23.6a219.91 219.91 0 0 1-8.09 23.88zM2402.35 13421.44v-200.6h14v187.42H2512v13.17h-109.65zM2729.05 13278.47q0 29.09-19.76 44.59t-56 15.5h-31v82.87h-14v-200.6h49.12q71.64.02 71.64 57.64zm-106.75 48h27.58q33.89 0 49-11.18T2714 13279q0-23.19-14.27-34.37t-44.18-11.18h-33.2v93zM2781.06 13334v87.4h-14v-200.6h47.75q37.32 0 55.16 13.79t17.84 41.5q0 20.17-10.63 34t-32.31 19.9l54.47 91.38h-16.74l-51.73-87.4h-49.81zm0-12.07h38.28q25.38 0 39.38-11.32t14-33.41q0-22.91-13.72-33.34t-44.73-10.43h-33.2v88.5zM3038.05 13421.44h-109.62v-200.6h109.63v12.9h-95.63v75.88h90.28v12.9h-90.28v86h95.63v12.9zM3062.07 13351.19v-11.25h65.17v11.25h-65.17zM3259.24 13350.64h-81.5l-28 70.8h-15.5l80.68-201.42h8.92l79 201.42h-15.74zm-76.42-12.62h71.76l-27.3-72.31q-3.43-8.5-8.23-23.6a220.11 220.11 0 0 1-8.1 23.88zM3411.27 13230.59q-37.73 0-59.41 24.15t-21.68 66.13q0 42.95 20.44 66.68t58.45 23.74a158.31 158.31 0 0 0 46.38-6.45v12.35q-19.9 7-49.67 7-42.26 0-66.55-27.3t-24.23-76.29q0-30.59 11.59-53.92a83.9 83.9 0 0 1 33.34-36q21.74-12.69 50.56-12.69 29.36 0 52.55 11l-5.63 12.62a101.8 101.8 0 0 0-46.14-11.02zM3580.18 13230.59q-37.73 0-59.41 24.15t-21.68 66.13q0 42.95 20.44 66.68t58.45 23.74a158.3 158.3 0 0 0 46.38-6.45v12.35q-19.9 7-49.67 7-42.26 0-66.54-27.3t-24.29-76.29q0-30.59 11.59-53.92a83.9 83.9 0 0 1 33.34-36q21.75-12.69 50.56-12.69 29.36 0 52.55 11l-5.62 12.62a101.8 101.8 0 0 0-46.1-11.02zM3773.1 13421.44h-109.63v-200.6h109.63v12.9h-95.63v75.88h90.28v12.9h-90.28v86h95.63v12.9zM3812.9 13421.44v-200.6h14v187.42h95.63v13.17H3812.9zM4061.11 13421.44h-109.63v-200.6h109.63v12.9h-95.63v75.88h90.28v12.9h-90.28v86h95.63v12.9zM4114.9 13334v87.4h-14v-200.6h47.75q37.32 0 55.16 13.79t17.84 41.5q0 20.17-10.63 34t-32.31 19.9l54.47 91.38h-16.74l-51.73-87.4h-49.81zm0-12.07h38.28q25.38 0 39.38-11.32t14-33.41q0-22.91-13.72-33.34t-44.73-10.43h-33.2v88.5zM4358.86 13350.64h-81.5l-28 70.8h-15.5l80.68-201.42h8.92l79 201.42h-15.78zm-76.42-12.62h71.76l-27.3-72.31q-3.43-8.5-8.23-23.6a220.33 220.33 0 0 1-8.09 23.88zM4477.55 13421.44h-14.13V13234h-65.17v-13.17h144.48v13.17h-65.17v187.42zM4566.88 13421.44v-200.6h14v200.6h-14zM4800.68 13320.87q0 47.75-23.87 75.53t-65.86 27.78q-41.85 0-65.72-27.78t-23.87-75.81q0-47.88 24.08-75.39t65.79-27.51q42 0 65.72 27.65t23.73 75.53zm-164.1 0q0 43.08 19.21 66.61t55.16 23.53q36.22 0 55.36-23.33t19.14-66.82q0-43.36-19.14-66.48t-55.09-23.12q-35.81 0-55.22 23.33t-19.42 66.28zM4987 13421.44h-14.13l-118.82-178.09H4853q1.65 31.83 1.65 48v130.07h-13.45v-200.6h14l118.68 177.82h.82q-1.23-24.7-1.23-46.92v-130.9H4987v200.6zM5226.31 13278.47q0 29.09-19.76 44.59t-56 15.5h-31v82.87h-14v-200.6h49.12q71.65.02 71.64 57.64zm-106.75 48h27.58q33.89 0 49-11.18t15.09-36.29q0-23.19-14.27-34.37t-44.18-11.18h-33.2v93zM5278.32 13334v87.4h-14v-200.6h47.75q37.32 0 55.16 13.79t17.84 41.5q0 20.17-10.63 34t-32.31 19.9l54.47 91.38h-16.74l-51.73-87.4h-49.81zm0-12.07h38.28q25.38 0 39.38-11.32t14-33.41q0-22.91-13.72-33.34t-44.73-10.43h-33.2v88.5zM5594.31 13320.87q0 47.75-23.87 75.53t-65.86 27.78q-41.85 0-65.72-27.78t-23.86-75.8q0-47.88 24.08-75.39t65.79-27.51q42 0 65.72 27.65t23.72 75.52zm-164.1 0q0 43.08 19.21 66.61t55.16 23.53q36.22 0 55.36-23.33t19.14-66.82q0-43.36-19.14-66.48t-55.09-23.12q-35.81 0-55.22 23.33t-19.41 66.28zM5713.69 13320.32h74v91.52q-29.09 12.35-65.45 12.35-47.48 0-72.79-26.82t-25.32-75.94q0-30.6 12.55-54.27a88 88 0 0 1 35.95-36.57q23.39-12.9 53.72-12.9 32.79 0 58.86 12.07l-5.63 12.62a127.25 127.25 0 0 0-54.06-12.07q-39.65 0-62.91 24.49t-23.26 66.07q0 45.28 22.09 68.12t64.9 22.84q27.71 0 47.06-7.82v-70.52h-59.68v-13.17zM5846.38 13334v87.4h-14v-200.6h47.75q37.32 0 55.16 13.79t17.84 41.5q0 20.17-10.63 34t-32.31 19.9l54.47 91.38h-16.74l-51.73-87.4h-49.81zm0-12.07h38.28q25.38 0 39.38-11.32t14-33.41q0-22.91-13.72-33.34t-44.73-10.43h-33.21v88.5zM6090.34 13350.64h-81.5l-28 70.8h-15.5L6046 13220h8.92l79 201.42h-15.78zm-76.42-12.62h71.76l-27.3-72.31q-3.43-8.5-8.23-23.6a219.91 219.91 0 0 1-8.15 23.89zM6245 13421.44l-74.78-185.23h-1.1q1.1 17 1.1 34.85v150.38h-13.45v-200.6h21.68l71.07 176.45h.82l71.07-176.45h21.13v200.6h-14.13v-152q0-15.92 1.65-32.93h-1.1l-75.05 185H6245zM736.28 12602a4.62 4.62 0 0 0 7.86-4.14c-1.49-7-3.52-14.48-5.82-16.76-4.71-4.68-20.73-2.7-13.28 7.74a128.52 128.52 0 0 0 11.24 13.16zM356.12 12578.56a9 9 0 0 0 3.74-.82l34.26-15.68a9 9 0 0 0 2.9-14.25c-1.09-1.2-27.27-29.07-89.5-29.07h-2a9 9 0 0 0-5.65 15.93l50.52 41.81a9 9 0 0 0 5.73 2.08zm16.71-26.55l-15.32 7-24.68-20.42c18.69 2.9 31.79 8.63 40 13.41zM516.84 12612.34c.91.06 1.81.08 2.71.08 28.06 0 50.91-27 51.89-28.19a9 9 0 0 0 .67-10.62c-.86-1.34-21.37-32.87-50.66-34.71s-53.58 26.88-54.6 28.1a9 9 0 0 0-.67 10.62c.82 1.38 21.37 32.88 50.66 34.72zm3.48-55.47c14.08.88 26.31 13.36 32.44 20.86-7 6.68-20.72 17.5-34.8 16.64s-26.31-13.36-32.44-20.86c7.03-6.68 20.71-17.51 34.8-16.64zM296.5 12635.86a9.49 9.49 0 0 0 3.34-.61 91.72 91.72 0 0 1 30.72-5.82 9.5 9.5 0 0 0 .34-19 105.9 105.9 0 0 0-19.64 2 108.29 108.29 0 0 0-18.11 5.08 9.5 9.5 0 0 0 3.35 18.35zM298.88 13593.17l-3.17.31c-9 .83-18.13 1.33-27.17 1.49s-18.27 0-27.51-.55c-4-.23-8.06-.53-12.09-.89a9.5 9.5 0 0 0-1.7 18.92c4.22.38 8.49.7 12.69.94 7.4.43 14.84.64 22.12.64q3.42 0 6.83-.06c9.5-.17 19.11-.7 28.56-1.57l3.33-.32a9.5 9.5 0 1 0-1.89-18.91zM159.68 13581.53l-3.77-1c-11-2.86-22-6.19-32.67-9.88-10.2-3.52-20.31-7.46-30-11.7a9.5 9.5 0 1 0-7.59 17.42c10.2 4.44 20.78 8.56 31.44 12.25a461.08 461.08 0 0 0 34.08 10.3l3.92 1a9.5 9.5 0 0 0 4.59-18.39zM-63.23 13423.19a341.19 341.19 0 0 1-16.82-32.72 346.2 346.2 0 0 1-11.69-29.71 9.5 9.5 0 0 0-12.06-5.92 9.5 9.5 0 0 0-5.92 12.06c3.62 10.61 7.77 21.16 12.33 31.34a360.23 360.23 0 0 0 17.77 34.55l.63 1.06a9.49 9.49 0 0 0 8.19 4.67 9.46 9.46 0 0 0 4.82-1.32 9.5 9.5 0 0 0 3.35-13zM646.78 13133.36c-2-9.33-4.38-18.63-7.13-27.64a327.6 327.6 0 0 0-13.26-35.74c-1-2.22-2-4.46-3-6.65a9.5 9.5 0 1 0-17.23 8c1 2.07 1.92 4.19 2.84 6.29a308.5 308.5 0 0 1 12.49 33.66 309.54 309.54 0 0 1 6.71 26 9.5 9.5 0 0 0 18.58-3.92zM247.61 12703.64a67.63 67.63 0 0 1 .44-7.73 64.81 64.81 0 0 1 5.13-18.82 9.5 9.5 0 0 0-17.37-7.69 83.79 83.79 0 0 0-6.63 24.33 86.56 86.56 0 0 0-.56 9.91c0 13.61 3.1 28.09 9.23 43a9.5 9.5 0 0 0 17.58-7.21c-5.19-12.61-7.82-24.66-7.82-35.79zM-108 13292.58q-.52-3.34-1-6.7c-1.67-11.63-3.1-24.12-4.24-37.12a741.37 741.37 0 0 1-1.85-26.68 9.51 9.51 0 0 0-10-9 9.5 9.5 0 0 0-9 10c.48 9.38 1.12 18.59 1.9 27.37 1.18 13.34 2.64 26.17 4.36 38.14q.5 3.47 1 6.92a9.5 9.5 0 0 0 9.38 8 9.57 9.57 0 0 0 1.47-.11 9.5 9.5 0 0 0 7.98-10.82zM31.86 13525.28l-1.46-1a319 319 0 0 1-27.65-21.37A315.55 315.55 0 0 1-21 13480a9.5 9.5 0 0 0-13.43-.45 9.5 9.5 0 0 0-.45 13.43 333 333 0 0 0 54.53 46.92l1.55 1.06a9.5 9.5 0 0 0 10.66-15.68zM584.86 13420.36a9.5 9.5 0 0 0 13-3.2 366.78 366.78 0 0 0 24.08-47c2.7-6.36 5.27-12.89 7.65-19.39a9.5 9.5 0 1 0-17.85-6.51c-2.26 6.2-4.71 12.41-7.29 18.47-4.48 10.55-9.51 20.95-15 30.91-2.5 4.57-5.15 9.17-7.88 13.67a9.5 9.5 0 0 0 3.29 13.05zM561 12967.75a435.36 435.36 0 0 0-21.7-24.06 9.5 9.5 0 1 0-13.63 13.24c7.24 7.46 14.23 15.2 20.75 23 8.39 10 16.51 20.54 24.11 31.18a9.5 9.5 0 1 0 15.46-11c-7.93-11.11-16.34-21.94-24.99-32.36zM431.35 13551.84c-3.74 2.1-7.54 4.15-11.29 6.09a316.92 316.92 0 0 1-45.39 19.18c-2.41.8-4.87 1.58-7.3 2.33a9.5 9.5 0 1 0 5.58 18.16c2.57-.79 5.16-1.62 7.7-2.46a336.16 336.16 0 0 0 48.12-20.33c3.95-2 7.94-4.19 11.88-6.41a9.5 9.5 0 0 0-9.3-16.56zM553.31 13462.73a9.5 9.5 0 0 0-13.41.76c-3.68 4.12-7.55 8.29-11.5 12.39-8 8.25-16.28 16.27-24.77 23.85-4.72 4.22-9.6 8.39-14.5 12.4a9.5 9.5 0 0 0 12 14.7c5.1-4.18 10.19-8.53 15.11-12.93 8.83-7.89 17.51-16.24 25.79-24.83a474.9 474.9 0 0 0 12-12.92 9.5 9.5 0 0 0-.72-13.42zM357.39 12823.78l-3-1.26c-11.85-4.9-22-9.59-31-14.35a202.33 202.33 0 0 1-27.16-17 9.5 9.5 0 1 0-11.42 15.19 221 221 0 0 0 29.69 18.59c9.52 5 20.18 10 32.58 15.12l3 1.24a9.5 9.5 0 1 0 7.31-17.53zM484.33 12895.28a550.643 550.643 0 0 0-33.29-23.36c-4.77-3.07-9.65-6.09-14.59-9a9 9 0 0 0-.87-1l-12.72-12.05a9.11 9.11 0 0 0-6.58-2.46 9 9 0 0 0-6.34 3l-3.4 3.82a9 9 0 0 0 2.58 14l1.73.9a9.44 9.44 0 0 0 3.06 2.72 482.04 482.04 0 0 1 26.81 16.06 531.878 531.878 0 0 1 32.11 22.53 9.5 9.5 0 1 0 11.5-15.16z" transform="translate(209.94 -12401.38)"/><path class="cls-2" d="M915.46 13185l-59.9-21.12a14.5 14.5 0 0 0-15-9.25l-70.92 6.94a614.06 614.06 0 0 0-80.43 13.28 426 426 0 0 0-33.84-123l43.11-66.25 23.78 7.32 30.84 68.51a14 14 0 0 0 17.16 7.51l31 19a9 9 0 0 0 12.86-11.49l-15.76-33.59a13.85 13.85 0 0 0-1.36-8.86l-24-46.53 49.81 21.33a13.89 13.89 0 0 0 10.08.34l40.38 14.82a9 9 0 0 0 10.08-14.13l-25.61-31.47a14 14 0 0 0-8.63-15.51l-53.23-20.85 42.46-8.73a14 14 0 0 0 10.55-9.68l44.11-18a9 9 0 0 0-2.06-17.24l-41-6.15a13.94 13.94 0 0 0-16.31-6.82l-33.49 10 32.6-22.39a13.92 13.92 0 0 0 5.63-14.88l26.79-34.2a9 9 0 0 0-10.34-13.94l-41.4 16.07a13.88 13.88 0 0 0-14.32 1.21l-51.25 36.87a539.23 539.23 0 0 0-128.85 131.3 460.37 460.37 0 0 0-99-107.5 593.83 593.83 0 0 0-79.62-52.25c-20.1-11.11-41.63-21.71-64.77-31.93l-8-3.5c-11.18-4.86-22.47-9.77-32.84-15.48-22.82-12.58-41.14-29-43.8-57.36-2.41-25.69 23.26-44.64 49.47-48.11h.13c15.41-2.28 31.65-.35 42.41 5 3.59 1.81 7.25 5.33 11 9.73a56.13 56.13 0 0 0 5.66 7.1c1.44 1.89 2.89 3.84 4.35 5.82 9 12.12 19.17 25.84 33 34.18 4.62 3 9.64 5.94 14.94 8.8h.05l.57.28a177.57 177.57 0 0 0 23.7 8.71 223.59 223.59 0 0 0 73.49 8.15c26.44-1.42 52.79-6.09 78.28-10.61 34.65-6.14 67.45-12 100.93-10.5a17 17 0 0 0 3 2.14c3.46 2 8.38 3.16 15.23 1.79 16.42-3.29 38.17-21 40.13-37 1-8-2.66-14.83-10-18.9q-.75-.41-1.54-.79a43.88 43.88 0 0 0-14.2-3.82 24.32 24.32 0 0 1-8.94-2.75 22.63 22.63 0 0 1-8.48-8l-.41-.66a14.14 14.14 0 0 0-5.1-4.86 15.71 15.71 0 0 0-7-2 16.07 16.07 0 0 0-13.65 6.14l-10.65 13.91-8.82-11.37a14.17 14.17 0 0 0-4-3.49 16.24 16.24 0 0 0-21.54 4.8l-8.2 12.47-1.25.07-14.53-14.09a14.65 14.65 0 0 0-2.74-2.08 16.27 16.27 0 0 0-21.6 5l-8.71 13.69-1.21.07-13.18-13.27a14.53 14.53 0 0 0-3.76-2.72 16 16 0 0 0-7.72-1.71 16.2 16.2 0 0 0-11.67 5.36l-13.41 14.95-4.9.2-11.38-10.92a14.56 14.56 0 0 0-3.77-2.6 16.33 16.33 0 0 0-19.12 3.74l-8.08 9.11a12.15 12.15 0 0 1-4.17-7.58c-1.26-6.86 1.16-14.92 5.9-19.6a36.15 36.15 0 0 1 10.31-7l17.08 16.77a15.43 15.43 0 0 0 2.78 2.17 15.34 15.34 0 0 0 21.11-5.1l11.22-18.44 17.41 17.2a15.48 15.48 0 0 0 2.81 2.2 15.34 15.34 0 0 0 21.28-5.4l11-19 10.85 14.67a15.36 15.36 0 0 0 25.51-1.18l12.21-20.29 10.15 13.31a15.39 15.39 0 0 0 4.51 4 15.36 15.36 0 0 0 21.77-7.08l6.67-15.15 12 13.66a15.35 15.35 0 0 0 26.1-5.25 9 9 0 0 0 .34-1.36l6.83-40.78c2.09-11.07-1.74-23.67-9.76-32.12a51 51 0 0 0-11.84-9.12c-9.35-5.34-19.76-8.06-28.06-10.23-77.09-20.16-152.69-38.68-230.15-43.83-11.14-.74-22.51-1.16-33.76-1.24h-.17v4.77-4.75h-.05c-8.44-.05-16.95.08-25.27.4h-.88c-1.83.07-3.66.17-5.49.26H425.4l-1.9.1h-.18c-2.83.16-5.65.33-8.46.53h-.5c-2.51.18-5 .38-7.54.59l-1.41.12q-3 .27-6 .56c-4.13-1.35-8.39-2.64-12.72-3.84h-.17l-3.65-1-.75-.19-3.23-.83-1-.26-3-.74-1.26-.3-2.94-.68-1.43-.32-2.91-.63-1.55-.32-2.93-.6-1.64-.32-3-.56-1.72-.32-3-.54-1.78-.31-3.12-.51-1.81-.29-3.23-.49-1.81-.27-3.47-.48-1.7-.23-3.93-.49-1.36-.17c-3.61-.43-7.32-.83-11-1.18l-1.44-.13-4.23-.37-2.42-.19-3.38-.25-1.8-.12h-.6l-3.56-.22-2.46-.13h-.09l-3.52-.18-2.7-.11-3.51-.14-2.81-.09-3.55-.09-2.9-.06-3.59-.05H260.21l-3.89.08h-.36l-2.71.07-3.42.11-1.64.06-2 .07-4 .18-1.26.06-2 .09-4.56.26-2.81.16q-3.67.23-7.4.51h-.12a14 14 0 0 0-11.34 7.36 14.34 14.34 0 0 0-1.69 6.17v.45a13.85 13.85 0 0 0 4 9.82q.32.33.66.64l.47.4c.15.12.29.26.44.38l39.3 29.89c-5.7 2.71-11.92 5.71-17.09 8.22l-.58.28-111.19 20.14a9 9 0 0 0-7.09 11.18l14.16 53c-4.81 6.17-9.41 12.55-13.72 19l-80 84A9 9 0 0 0 41 12753l30.88 25.54q-.42 2.55-.79 5.11a307.67 307.67 0 0 1-50.7-24.64 399.09 399.09 0 0 1-65.57-49.01 9 9 0 0 0-11.71-.72 9 9 0 0 0-2.47 11.47 50.88 50.88 0 0 1 3.67 39.43v.09c0 .09-.06.18-.09.27a9 9 0 0 0-.26 1c0 .06 0 .12-.05.18-10.33 52.54-71 96.47-86.14 106.71a10.85 10.85 0 0 0-7 6.46l-.05.13-.11.27c0 .09-.05.19-.08.28s-.09.28-.13.42-.08.35-.12.52 0 .16-.06.24 0 .08 0 .13c0 .2-.05.4-.07.6s0 .21 0 .31v.91c0 .08 0 .46.06.69v.22c0 .25.09.5.15.75v.15a9 9 0 0 0 .27.87l.07.16c.09.23.18.45.28.67s.1.19.15.29.18.34.28.51l.19.29.33.48.06.09c27.28 34.89 36.43 75.36 27.17 120.3-7 34.14-22.58 58.22-22.73 58.45l-.09.15c-.12.19-.23.38-.33.57l-.17.33-.08.16c-.07.15-.12.29-.17.44s-.09.21-.13.32a9 9 0 0 0-.27.91 9 9 0 0 0-.17 1v2.27c0 .1.07.46.12.68s0 .2.06.29a8.92 8.92 0 0 0 .27.88v.05a8.93 8.93 0 0 0 .4.9l.14.25c.11.21.23.41.36.61l.18.26c.13.19.28.38.43.56l.18.22c.17.2.36.39.55.57l.13.13a9 9 0 0 0 1.61 1.17l.27.14c.16.08.31.17.47.24l.21.09h.09l.47.2a16.18 16.18 0 0 0 2.6.77c53 15.7 88 48.09 103.87 96.34 12.19 37.06 8.09 70.17 8.05 70.49a9.12 9.12 0 0 0-.07 1v1.27c0 .11.05.4.09.61s0 .23.07.34.09.39.15.58l.1.32c.07.2.14.4.23.59l.12.28c.1.21.2.41.31.6l.13.23c.13.22.27.43.42.63l.11.16a9.06 9.06 0 0 0 1.3 1.39l.19.15c.18.15.36.29.55.42l.26.17.54.32.27.14.6.28.24.1c.27.1.55.2.83.27a8.88 8.88 0 0 0 .89.19h.27l.64.06H-15c51.47-3.45 99 9.38 141.15 38.15 31.69 21.61 48.33 44.62 48.49 44.84s.24.3.36.44.19.25.29.37a9 9 0 0 0 .78.77c.13.11.27.21.41.31s.37.28.56.41.35.21.53.31l.47.25c.21.1.42.19.63.28l.38.14c.25.09.5.17.76.23h.18a9 9 0 0 0 11-8.53c3.55-45.06 18.39-78.6 44.13-99.67a108.24 108.24 0 0 1 40.84-20.5 158.22 158.22 0 0 1-3.23 83.28l-65.38 48.53a9 9 0 0 0-1.54 13l15.11 18.05a175.39 175.39 0 0 1-22.42 16.65l-102.21-11.12a9 9 0 0 0-10 8.49l-1.42 27.8a182.33 182.33 0 0 1-37.54-8.87L9.69 13351a9 9 0 0 0-12.91-2.17l-19.87 15.05c-33.83-32.36-54.47-75.28-56.91-118.83 0-.54-.07-2.07-.14-4.24-.19-6.37-.55-18.24-1.16-27.67a2.41 2.41 0 0 1 .76-1.94 2.49 2.49 0 0 1 2-.7l27.66 2.78a9 9 0 0 0 8.8-4.64 9 9 0 0 0-.85-9.91l-75-94.47a9 9 0 0 0-3.14-2.51 9 9 0 0 0-4-.92 9 9 0 0 0-7.06 3.45l-76 96.87a9 9 0 0 0-.77 10 9 9 0 0 0 3.2 3.28 9 9 0 0 0 5.74 1.29l29.61-3.44a9 9 0 0 0 1.08-.19 2.45 2.45 0 0 1 1.66.15 2.65 2.65 0 0 1 .46.29 3.14 3.14 0 0 1 1.16 2.51c0 199.57 101.48 306.81 186.61 361.64q13.25 8.54 27.12 16.14c64.61 35.43 138.31 55.32 210.68 56.47h13.24a406.74 406.74 0 0 0 99.34-13.68 410.38 410.38 0 0 0 114.8-51.1 449.83 449.83 0 0 0 95.2-82 456.93 456.93 0 0 0 69.31-104.92q5.32-11.16 10-22.51a14.7 14.7 0 0 0 2.34 2.87 14.5 14.5 0 0 0 7.62 3.8l19.71 36.62a9 9 0 0 0 16.89-3.48l3.69-42.1a14.48 14.48 0 0 0 3.71-9l3.08-62.26 38.46 51.64a14.59 14.59 0 0 0 11.25 5.86l35.84 35.33a9 9 0 0 0 15-8.73l-11.64-43.64a14.66 14.66 0 0 0 2.09-4.56 14.45 14.45 0 0 0-2.67-12.79l-42.46-53.64 50.09 16.78a14.65 14.65 0 0 0 15.38-4l54.76 4.42a9 9 0 0 0 6-16.29l-37.33-26.69a14.58 14.58 0 0 0-11.18-14.36l-45.58-10.86 51.88-3.94a14.64 14.64 0 0 0 10.2-5.34 14.39 14.39 0 0 0 1.39-2l54.65-6.22a9 9 0 0 0 1.98-17.5zm-294.65 10.21a336.14 336.14 0 0 0-53.59-163.34c-36-55.58-88.13-104.45-146.74-137.6-19.11-10.81-39.34-20.07-58.91-29-29.79-13.63-60.58-27.73-87-47.25-32.75-24.19-54.66-59.67-60.1-97.33-5.55-38.37 7.76-76.23 37.46-106.59a179.21 179.21 0 0 1 47.95-34.74 8.94 8.94 0 0 0 1.43-.89 14.07 14.07 0 0 0 0-22.39l-22.63-17.22-.11-.09-42.8-32.56c76.74-4.45 129 6.51 159.8 16.76h.16c28.16 9.41 41.36 19.19 41.46 19.27a9 9 0 0 0 12.77-12.41l-6.59-9.16c4.73-.09 9.47-.13 14.18-.1h.17v-4.63 4.6h.05c10.94.08 22 .48 32.74 1.2 75.88 5.05 150.58 23.36 226.79 43.29 7.23 1.89 15.68 4.1 22.75 7.93a34 34 0 0 1 8.53 6.34c4.05 4.27 6.16 11 5.12 16.45v.21l-5.74 34.28-11-12.5a15.35 15.35 0 0 0-25.59 3.92l-6.53 14.83-9.79-12.84a15.36 15.36 0 0 0-25.37 1.36l-12.18 20.23-10.89-14.73a15.36 15.36 0 0 0-25.64 1.41l-11.33 19.58-17.35-17.14a15.44 15.44 0 0 0-2.78-2.18 15.34 15.34 0 0 0-21.14 5.09l-11.22 18.45-18.86-18.53a9.12 9.12 0 0 0-9.32-2.11c-9.07 3.15-16.31 7.49-22.13 13.24-9 8.9-13.3 22.89-10.95 35.66 1.75 9.49 7.14 17.1 14.92 21.15q.8.42 1.63.79a31.13 31.13 0 0 0 6.1 2 9 9 0 0 0 8.61-2.83l10.91-12.3 12.4 11.91a8.91 8.91 0 0 0 1.48 1.15 9 9 0 0 0 5.18 1.38l12.6-.52a9 9 0 0 0 6.38-3l14.31-16.22 6.22 6.26c7.64 7.69 9 9.11 10.28 9.75a8.09 8.09 0 0 0 .93.41 9 9 0 0 0 3.75.6l9.74-.52a9 9 0 0 0 6.09-2.84 14.68 14.68 0 0 0 1.69-2.16l9.24-14.52 15.24 14.77a9.26 9.26 0 0 0 2.35 1.64 9.52 9.52 0 0 0 .91.4h.13a9 9 0 0 0 3.63.56l9.47-.51a9 9 0 0 0 6-2.72 14.71 14.71 0 0 0 1.76-2.18l8.47-12.87 8.69 11.19a14.32 14.32 0 0 0 4.3 3.68 9.07 9.07 0 0 0 4.93 1.15l7.49-.41a9 9 0 0 0 4.54-1.53 15.34 15.34 0 0 0 3.62-3.38l10.48-13.69A40.55 40.55 0 0 0 743 12692a42.26 42.26 0 0 0 16.51 5.33 26.28 26.28 0 0 1 8.47 2.2l.5.26a3.74 3.74 0 0 1 .81.58c.11 1.31-2 6.71-9.77 13.23-8.31 6.93-16.27 9.36-18.69 8.88a9.13 9.13 0 0 0-7.16-4.26c-36.92-2.2-73.54 4.28-108.95 10.55-25 4.42-50.76 9-76.11 10.36a205.26 205.26 0 0 1-67.49-7.46 159.78 159.78 0 0 1-21-7.7l-.82-.45c-4.51-2.47-8.78-5-12.71-7.53l-.25-.15c-10.8-6.49-19.49-18.21-27.9-29.55-3.41-4.6-6.75-9.1-10.19-13.19a41.35 41.35 0 0 1-6.21-17.78v-.65l-2.64-23.73a9 9 0 0 0-17.89 2l2.49 22.34c-13.26-4.74-29.89-6.18-46-3.8-34.63 4.61-68.38 31.16-65 67.62 2.19 23.33 12.72 42.23 32.19 57.77a151.29 151.29 0 0 0 23.05 14.89c10.46 5.61 21.45 10.39 32.24 15.08q4 1.74 7.93 3.46 31.25 13.8 58.59 28.62a581 581 0 0 1 81.86 53.2c90.46 70.89 150.87 177.78 162.73 287.22q-25.79 6.79-50.78 15.87zm137.59-326.48l48.46-34.87a9 9 0 0 0 8.2.86l15.75-6.12-10.14 13a9 9 0 0 0-1.31 8.8l-76.68 52.6a9 9 0 0 0 7.68 16l84-25.14a9 9 0 0 0 6.83 5.12l14.67 2.2-18.6 7.58a9 9 0 0 0-5.55 7.36l-69.15 14.22a9 9 0 0 0-1.48 17.19l77.28 30.34a9 9 0 0 0 1.85 7.42l8.43 10.36-13.59-5a9 9 0 0 0-7.39.54L757 12961a9 9 0 0 0-11.54 12.4l34.57 67a9 9 0 0 0 .38 6.71l4.58 9.75-10-6.13a9 9 0 0 0-7.42-.92l-29.69-66a13.94 13.94 0 0 0-8.61-7.61l-32-9.86a9 9 0 0 0-10.19 3.69l-40.74 62.61q-4.68-9.36-9.8-18.52-3.43-6.12-7.07-12.14a521.41 521.41 0 0 1 128.92-133.25zm-802.12-85.45l.27.3.76.83 1.15 1.23.81.85 1.16 1.2.84.84 1.21 1.19.85.82 1.29 1.21.82.76 1.44 1.3.72.64q1 .89 2 1.76l.18.16q1.12 1 2.27 1.89l.72.58 1.59 1.28.91.71 1.45 1.13 1 .74 1.43 1.07 1 .75 1.44 1 1 .73 1.49 1 1 .7 1.59 1.09.92.63 1.9 1.25.65.43 2.57 1.66.61.38 2 1.25 1 .59 1.67 1 1.07.64 1.59.94 1.11.65 1.58.91 1.12.64 1.54.99 1.12.63 1.63.9 1.06.58 1.78 1 .92.49 2.49 1.31.21.11 2.71 1.39.87.44 1.83.92 1.07.53 1.65.81 1.11.54 1.59.77 1.14.54 1.57.74 1.14.53 1.58.73 1.1.51 1.68.76 1 .45 1.92.86.74.33 2.61 1.15.67.29 1.94.84 1 .42 1.6.67 1.07.45 1.5.62 1.08.45 1.45.59 1.08.44 1.44.58 1 .42 1.47.58 1 .38 1.59.62.81.32 2.13.81.34.13 2.2.83.82.31 1.44.54.95.35 1.3.47.92.33 1.26.46.92.33 1.19.42.92.32 1.17.41.88.31 1.19.41.77.27 1.42.48.49.17 1.83.61.59.2 1.21.4.66.22 1.06.35.7.23.93.3.69.22.87.28.68.21.83.26.6.19.85.27.51.16.89.27.38.12 1.19.36q.19.67.44 1.33c.11.29.23.58.35.87s.11.3.18.45.27.58.41.87l.2.43c.15.3.31.6.48.9l.2.38c.21.37.42.73.65 1.1l.1.17c.23.36.46.72.7 1.08l.1.16q.4.58.81 1.15v.05a46.93 46.93 0 0 0 8.62 8.88c.23 7.9 6.12 16.06 12.1 21.82-.15.21-.28.42-.42.63l-.11.17c-.14.22-.26.44-.38.66l-.08.14c-2.45 4.57-3.62 12.24 3.76 23.46l-13-1.78c-11.27-1.54-24-3.28-38.13-5.27-10.67-1.5-22-3.32-33.62-5.39s-23.51-4.4-35.21-6.9c-11.46-2.45-23.18-5.16-34.83-8-11-2.73-22-5.58-32.58-8.49-21.75-6-41.05-11.46-51.45-14.42 22.49-17.38 57.96-49.46 72.99-88.86zm-78.76 105.81l.88.25c10.41 3 29.79 8.49 51.67 14.49 10.74 2.94 21.85 5.84 33 8.6 11.83 2.93 23.74 5.67 35.38 8.17 11.9 2.55 24 4.91 35.83 7s23.38 4 34.26 5.49c14.13 2 26.92 3.74 38.2 5.28l16 2.2 1.57.22 1.38.19c-1.79 9.78 5.75 19.37 14.63 26.51q-10.19 3.88-26.89 9.77c-3 1.06-5.31 1.87-6.44 2.29-2.61 1-7.63 2.91-14.58 5.6-23.39 9-70.32 27.17-115.56 43.16l-.9.32-9.06 3.18-2.58.9-1.14.39-.48.17-6.64 2.28-.62.21c-42.17 14.38-64.37 20.16-76 22.34a211.67 211.67 0 0 0 17.24-49.73c9-43.07 2.33-83.91-19.16-119.28zm22.9 182.59l.25-.07 2.27-.6c10.54-2.82 23.26-6.66 38-11.45l.2-.06 3.83-1.25.68-.22 2.77-.92 1.88-.62 1.55-.52 3.21-1.08.35-.12q7.06-2.38 14.62-5c49.21-17.05 103-37.83 128.83-47.82 6.9-2.67 11.89-4.59 14.4-5.53 1.08-.4 3.27-1.17 6.16-2.19l8.84-3.13a25.94 25.94 0 0 0 2.58 6.79c6.78 12.54 22.55 21.4 23.92 22.15l.09.05a52.12 52.12 0 0 0 9.05 3.75L-6 13219.93a198.23 198.23 0 0 0-9.25-51.77c-10.26-31.7-33.22-71.62-84.34-96.48zm236.54 205.77a239.28 239.28 0 0 0-132.38-42.2l182.57-210.72.55-.19c.41-.14.83-.26 1.23-.41.21.88.45 1.75.71 2.62l.06.19q.35 1.14.76 2.27l.24.64q.33.85.69 1.69c.17.38.34.75.51 1.13s.33.7.51 1 .38.75.58 1.11l.23.41q.72 1.26 1.52 2.44l.16.23a33.09 33.09 0 0 0 3.54 4.31c-4.73 14.57-10.82 47.42-18.41 125.51-5.7 58.7-9.77 118.27-10.69 136.4a250 250 0 0 0-32.39-26.43zm87-59.45a125 125 0 0 0-33.77 43.56c1.8-24.71 4.33-56.15 7.34-87.63 7.53-78.77 13.52-110.28 16.94-122.82h.21c.77.2 1.55.39 2.35.56q1.62.33 3.22.57c.7.11 1.39.19 2.08.27l1 .12c.92.1 1.82.16 2.72.22h.23a48.67 48.67 0 0 0 16.66-1.8h.07q1.15-.34 2.25-.74l.43-.16c.6-.23 1.19-.47 1.78-.72l.8-.35c.44-.2.87-.41 1.3-.62s.77-.38 1.15-.59l.83-.47c.49-.28 1-.56 1.45-.86l.38-.25a37.78 37.78 0 0 0 5.37-4.19l49.18 146.93c-19 .29-53.98 4.5-84.01 28.97zm391.69 57.12l15.68-7.92c-.46 3.13-1 6.26-1.49 9.35a9.5 9.5 0 1 0 18.72 3.23c.88-5.12 1.67-10.31 2.35-15.42l2.44 1.77 13.67 14.79-1.87 18c-32.27 150.36-152.42 279.87-298.79 319.2a388.6 388.6 0 0 1-94.91 13.07H258.76c-69.45-1.1-140.19-20.19-202.24-54.21q-13.28-7.28-26-15.47c-81.37-52.4-178.36-155.06-178.36-346.51a21 21 0 0 0-8-16.65 20.77 20.77 0 0 0-2.88-1.9 20.42 20.42 0 0 0-14.1-2.08l-7.62.89 44.71-57v12.35a9.5 9.5 0 0 0 9.5 9.46 9.5 9.5 0 0 0 9.46-9.54v-15.15-.66l46.44 58.53-6.48-.65a20.5 20.5 0 0 0-16.32 5.66 20.44 20.44 0 0 0-6.21 16.06c.59 9.12.94 20.78 1.13 27 .07 2.41.13 4.1.16 4.7.19 3.42.5 7 .92 10.55a9 9 0 0 0 0 1.92c4.9 39.19 13.51 75.42 25.6 107.7 14.07 37.6 32.94 69.94 56.07 96.13 31 35.12 70.45 63 117.19 83A391 391 0 0 0 242 13576c97.54 3 193.1-32.52 262.19-97.3a365.28 365.28 0 0 0 66.79-85 402.7 402.7 0 0 0 40.53-100c1.49-6.17 2.91-12.37 4.11-18.58zm235-83.65a9 9 0 0 0-7.73 6.84l-106.1 8.06a9 9 0 0 0-1.42 17.73l97.44 23.36a9 9 0 0 0 3.66 8.74l16.06 11.49-27.42-2.21a9 9 0 0 0-8.18 3.93l-.34.51-76.39-25.59a9 9 0 0 0-9.91 14.13l59.08 74.54a9 9 0 0 0-1.92 8.24l4.55 17.07-15.55-15.31a9 9 0 0 0-7.62-2.5l-52-69.84a9 9 0 0 0-16.21 4.93l-4.23 85.47a9 9 0 0 0-3.41 6.3l-1.4 16-8.1-15a9 9 0 0 0-7-4.68l6.33-61.16q2.64-12.36 4.51-24.81a9 9 0 0 0-4.6-9.23c-3-3.83-7.59-8.1-14.18-13.22-1.05-.82-2.1-1.61-3.14-2.39l-9.87-10.68a9 9 0 0 0-10.67-1.92L494 13316.38l-108-249.15a9 9 0 0 0-16.52 7.16l111.77 257.91a9 9 0 0 0 12.32 4.45l101.27-51.17c-.29 1.18-.57 2.37-.87 3.54-17.6 68.47-53.9 131.12-102.2 176.42-65.63 61.55-156.51 95.24-249.33 92.44-96.16-2.91-187.54-43.1-244.44-107.52-23-26-41.52-59-55.12-97.48a212.75 212.75 0 0 0 27.42 29.39 9 9 0 0 0 11.41.44L0 13369l34 50.81a9 9 0 0 0 4.37 3.44 199.41 199.41 0 0 0 54.33 11.82 9 9 0 0 0 9.64-8.52l1.41-27.71 95.8 10.51a9 9 0 0 0 5.62-1.24 193.3 193.3 0 0 0 34.36-26.35 9 9 0 0 0 .66-12.26l-14.5-17.33 60-44.57a9 9 0 0 0 3.18-4.4 175.94 175.94 0 0 0 4.71-95.05 118.27 118.27 0 0 1 25.72-.63 9 9 0 0 0 9.67-11.79l-47-140.35a23 23 0 0 0 9.25 3.29 20.39 20.39 0 0 0 2.26.13c6.39 0 14.92-3 22.8-15.62 14.32-22.86 10.73-41.31 5.19-52.76a53.84 53.84 0 0 0-15.81-19.36 9 9 0 0 0-10.47 14.64c2.52 1.84 24.07 18.81 5.83 47.92-2.9 4.63-5.9 7.38-7.81 7.17-6.62-.73-17.47-19-23.07-34.87a9 9 0 0 0-17.4 4.25 22.18 22.18 0 0 1-1.49 11.4l-.07.16c-.12.28-.25.56-.37.84l-.19.41c-.14.29-.29.57-.44.85l-.26.45-.31.52-.28.45-.44.65-.19.28q-.34.48-.71.93l-.12.15c-.24.29-.48.57-.74.84q-.43.46-.88.89c-5.49 5.18-13.65 7-23.69 5.42l-1-.19a9 9 0 0 0-6.16-6.55 10.59 10.59 0 0 0-5.62-.12c-.21-.3-.43-.59-.63-.91-3.08-5-3.87-11.79-3.72-18V13007.46c0-.3 0-.62.06-.92a37.28 37.28 0 0 0 2-14.23 9 9 0 0 0-17.68-1.94 77.43 77.43 0 0 0-2.09 12v.09a10.57 10.57 0 0 1-1.5 2.14 9.38 9.38 0 0 1-1 .93h-.06a9.13 9.13 0 0 1-1.18.8c-.27.15-.55.28-.83.41a9 9 0 0 0-4.7 1.1c-4.75.32-10.25-1.24-14.64-3.48l-.49-.25a44.2 44.2 0 0 1-4.35-2.68q-.74-.51-1.47-1.06c-5.37-4-10.42-9.17-11.51-12.63a4.69 4.69 0 0 1-.2-.9c0-.25-.06-.52.81-1.27 2.38-2 6.67-4.07 11.77-5.63 1.28-.39 2.6-.75 4-1.07l1.37-.31a9 9 0 0 0 6.8-11.1v-.14c0-.05 0 0 0 0a10.3 10.3 0 0 0-.28-2.12 9 9 0 0 0-10.83-6.68l-.25.08c-5.56-3.2-11.05-7.79-13.84-11.3-.29-.36-.55-.72-.78-1.05a7.79 7.79 0 0 1-1-1.83 16.53 16.53 0 0 1 5.25-2.18 9 9 0 0 0 3.58-1.91l.11-.12a9.07 9.07 0 0 0 .83-.84c.07-.09.13-.18.2-.27a9 9 0 0 0 .59-.81c.08-.12.13-.26.21-.39a9 9 0 0 0 .42-.8c.07-.16.11-.33.17-.49s.2-.52.27-.8.07-.39.11-.58.11-.5.14-.77v-.63-.74c0-.24-.06-.44-.08-.67s0-.46-.09-.68-.13-.46-.19-.68-.1-.41-.17-.61-.2-.46-.31-.69-.15-.36-.24-.53-.28-.44-.43-.66-.19-.31-.3-.46-.35-.41-.54-.61-.23-.27-.35-.4-.42-.36-.64-.54-.26-.23-.4-.33-.49-.3-.74-.45-.27-.18-.42-.26l-.36-.17c-.39-.21-.78-.45-1.18-.71l-.21-.15c-.33-.22-.66-.45-1-.7l-.37-.29c-.28-.22-.57-.43-.85-.67s-.55-.47-.82-.71l-.41-.35c-.34-.3-.67-.62-1-.94l-.22-.2c-.81-.78-1.6-1.6-2.36-2.45q-.55-.6-1.07-1.22l-.06-.07c-.7-.83-1.37-1.66-2-2.48l-.08-.11a23.67 23.67 0 0 1-3.81-6.69 12.17 12.17 0 0 1 1.27-.29 28.12 28.12 0 0 1 6.48-.28 9.07 9.07 0 0 0 6.44-2.25c.14-.13.29-.25.43-.38a9 9 0 0 0 2.61-6.88v-.94a9 9 0 0 0-11.58-8.09 4.65 4.65 0 0 1-3.53-.34c-2.6-1.4-6.31-5.1-8.79-8.41a17.81 17.81 0 0 1-2.41-4 9 9 0 0 0-5.44-13.43 2.19 2.19 0 0 1-.48-.17 23.85 23.85 0 0 1-5.8-5.34c-.54-.66-1-1.31-1.43-1.92a10.42 10.42 0 0 1-.93-1.65 9 9 0 0 0-6.29-11.12l-.8-.23h-.15c-9.45-2.71-86.47-25.6-126.68-62.54l-.1-.09q-1.08-1-2.13-2l-.36-.35q-.91-.88-1.78-1.77l-.55-.57c-.51-.53-1-1.06-1.51-1.59l-.67-.74c-.44-.48-.88-1-1.3-1.45l-.75-.87c-.38-.45-.76-.9-1.13-1.35l-.78-1c-.34-.42-.67-.85-1-1.28l-.79-1.06c-.3-.41-.6-.82-.89-1.23l-.77-1.12-.54-.81a71.45 71.45 0 0 0 2.1-19.9 429.16 429.16 0 0 0 46.17 32.15c21.75 13.06 43.2 23 64 29.73a8.92 8.92 0 0 0 2.23.71c20.67 6.48 40.67 9.78 59.63 9.78a155.65 155.65 0 0 0 16.7-.88c2.72 12.59 8.55 37.86 17 65.33 16.13 52.61 33.46 86.14 51.51 99.67a8.92 8.92 0 0 0 .76.51c.72.43 17.84 10.5 35.07 2.06 14.9-7.3 24.19-25.55 27.6-54.23a9 9 0 0 0-17.87-2.13c-2.56 21.5-8.79 35.76-17.54 40.14-7.51 3.76-16-.23-17.68-1.11-30.13-23.41-55.59-124.76-62.88-162a9 9 0 0 0-10.33-7.15c-23.8 4-47.92 1.09-70.45-5.3.58-4.28 1.25-8.56 2-12.8a9 9 0 0 0-3.12-8.55l-27.47-22.72 73.89-77.61a9.07 9.07 0 0 0 1-1.24c5-7.52 10.36-14.9 16-21.95a9 9 0 0 0 1.68-8l-12.8-47.94 102.66-18.64a9 9 0 0 0 2.31-.75l1.7-.82c4.72-2.29 17.28-8.37 25.41-12.13l13.51 10.28a195.79 195.79 0 0 0-46.35 34.9c-33.71 34.46-48.77 77.7-42.4 121.75 6.13 42.39 30.63 82.2 67.22 109.23 27.93 20.63 59.59 35.12 90.21 49.14 19.22 8.8 39.1 17.9 57.54 28.33 56.13 31.75 106 78.53 140.5 131.73a318.09 318.09 0 0 1 51 160.3 612.45 612.45 0 0 0-73.21 35.06l-64-140.83a9 9 0 1 0-16.39 7.45l68.12 149.83a9 9 0 0 0 12.69 4.07l2.94-1.69a594.59 594.59 0 0 1 81.33-39 8.92 8.92 0 0 0 2-.76 584.46 584.46 0 0 1 65.91-21 9 9 0 0 0 2.06-.53 594.89 594.89 0 0 1 86.87-15l67.68-6.62a9 9 0 0 0 5.74 6.31l27.8 9.8z" transform="translate(209.94 -12401.38)"/></svg>