<svg id="Warstwa_1" xmlns="http://www.w3.org/2000/svg" viewBox="-326 267.7 188.1 60.6"><style>.st0{fill:gold}.st1{enable-background:new}.st2{fill:#4e4e56}</style><g id="XMLID_136_"><g id="XMLID_3_"><g id="XMLID_4_"><path id="XMLID_6_" class="st0" d="M-295.7 302.9l-13.3-13.3-8.3 8.4 21.6 21.6 21.6-21.6-8.3-8.4z"/><path id="XMLID_5_" transform="rotate(-45.001 -295.696 285.556)" class="st0" d="M-302.2 279h13.1v13.1h-13.1z"/></g></g><g class="st1"><path class="st2" d="M-258.5 300.5h-5.2l-1.8 4.5h-1l5.2-12.9h.6l5.1 12.9h-1l-1.9-4.5zm-4.9-.8h4.6l-1.7-4.6c-.1-.4-.3-.9-.5-1.5-.2.6-.3 1.1-.5 1.5l-1.9 4.6zM-244.1 298.5c0 2.2-.6 3.8-1.7 4.9s-2.8 1.7-5 1.7h-3.1v-12.8h3.5c2.1 0 3.6.5 4.7 1.6s1.6 2.5 1.6 4.6zm-1 0c0-1.8-.5-3.2-1.4-4.2-.9-.9-2.3-1.4-4.1-1.4h-2.4v11.3h2.1c3.9.1 5.8-1.8 5.8-5.7z"/></g><g class="st1"><path class="st2" d="M-229.3 292.2h2.8L-231 305h-3l-4.4-12.8h2.8l2.4 7.6c.1.5.3 1 .4 1.6s.2 1 .3 1.3c.1-.5.3-1.5.7-2.8l2.5-7.7zM-217.6 305h-7.4v-12.8h7.4v2.2h-4.7v2.8h4.4v2.2h-4.4v3.3h4.7v2.3zM-203.5 305h-3.5l-5.6-9.7h-.1c.1 1.7.2 2.9.2 3.7v6h-2.4v-12.8h3.4l5.6 9.6h.1c-.1-1.7-.1-2.9-.1-3.5v-6.1h2.5V305zM-195.3 305h-2.7v-10.6h-3.5v-2.3h9.7v2.3h-3.5V305zM-179.4 292.2v8.3c0 .9-.2 1.8-.6 2.5s-1 1.3-1.8 1.6-1.8.6-2.8.6c-1.7 0-2.9-.4-3.8-1.3s-1.4-2-1.4-3.5v-8.3h2.7v7.9c0 1 .2 1.7.6 2.2s1.1.7 2 .7c.9 0 1.5-.2 1.9-.7.4-.5.6-1.2.6-2.2v-7.8h2.6zM-173.5 300.1v4.9h-2.7v-12.8h3.7c1.7 0 3 .3 3.9 1 .8.6 1.3 1.6 1.3 2.9 0 .8-.2 1.4-.6 2-.4.6-1 1-1.8 1.4 1.9 2.9 3.2 4.8 3.8 5.6h-3l-3.1-4.9h-1.5zm0-2.2h.9c.9 0 1.5-.1 1.9-.4s.6-.7.6-1.4c0-.6-.2-1-.6-1.3s-1.1-.4-1.9-.4h-.8v3.5zM-156.9 305h-7.4v-12.8h7.4v2.2h-4.7v2.8h4.4v2.2h-4.4v3.3h4.7v2.3zM-146.7 301.5c0 1.2-.4 2.1-1.3 2.7s-2 1-3.5 1c-1.4 0-2.6-.3-3.6-.8v-2.5c.9.4 1.6.7 2.2.8s1.2.2 1.6.2c.6 0 1.1-.1 1.4-.3s.5-.6.5-1c0-.3-.1-.5-.2-.7-.1-.2-.3-.4-.6-.6s-.8-.5-1.7-.9c-.8-.4-1.4-.7-1.8-1.1s-.7-.7-.9-1.2-.4-1-.4-1.6c0-1.1.4-2 1.2-2.7s1.8-1 3.2-1c.7 0 1.3.1 1.9.2s1.2.4 1.9.7l-.9 2.1c-.7-.3-1.3-.5-1.7-.6s-.9-.2-1.3-.2c-.5 0-.9.1-1.2.4s-.4.6-.4.9c0 .2.1.5.2.6.1.2.3.4.5.5.2.2.8.5 1.7.9 1.2.6 2 1.2 2.5 1.7.5.9.7 1.6.7 2.5z"/></g></g></svg>