<svg id="Warstwa_1" xmlns="http://www.w3.org/2000/svg" viewBox="-221 79.1 398.3 437.2"><style>.st0{fill:#fff}.st1{fill:#ee7203}</style><path class="st0" d="M-201.4 489.1l.5.2.9-.5c1.5-1.5 2.8-3.1 4.2-4.9l-.1-1-.7-.8-.2-.8.9-.5 1.4.2 2.3.1 2.8.3.8.6-.3.7-1.2.7-1.1.9c-.7.3-1.6.8-2.7 1.7-1.2.9-1.8 1.3-2 1.5l-.7.9c.3 1.2.8 2.4 1.4 3.6.6 1.1 1.3 2.2 2 3.1.7.9 1.7 2.1 2.8 3.4l1.8 1.3 1.1.9.3.8-.5.8h-1.3l-1.5-.3-2.4-.1-.9-.1-1.3.2-.7.1-.7-.3-.4-.6-.1-1.1.5-.9v-.7c-.7-1.4-1.3-2.6-1.9-3.4-.6-.9-1.3-1.6-2.3-2.2l-.9.3-.6 1.1.1 1.1v1.4l-.3.6v1c.3.4.7.9 1.2 1.5s1 1.1 1.2 1.5l-.3.7-.7.2h-.9l-1.2-.1-.8-.1h-2.7l-.9.2-1-.1-.8-.4-.4-.4.6-.8.8-.9.8-.3.6-.6.1-1.7.2-1.1v-.9l-.1-1 .1-1 .5-2.7-.1-1.8.1-1-.3-1-.1-1.7.1-2.6.1-1.8v-1l-.4-1.9.5-1.6-.3-.8v-1.3c-.2-.3-.5-.6-1-1s-.8-.7-1-1l-.3-.7.6-.7c2-.6 3.9-1.4 5.6-2.4l.7-1.4.8-.8.9.5c-.1 1.3-.5 2.5-1.2 3.8l-.1.6.1.8v1.4l-.2.9-.1 1 .2 1.1-.1 1.3v.7l-.1.8.2 2.2-.2 1.5-.1 1.2v.9l.3 2.1v.7l-.2 1.2.3.5zm48.5 1.5v4.2l.1 2.9.3 1.1 1.4 1.1.5 1-.5.7h-3.9l-1.4.1-2.1.6h-1.1l-.5-.7.3-1.1 2.2-1.5.3-1.6v-2l.2-1.1-.3-1.1.1-1.5.1-1.4-.1-1.7-.9-2.3-1.1-.4-.8-.5.1-1.1c2.4-.9 4.1-1.7 5.2-2.4l.8-.7.6.1.6.7.5.2 1-.5 1.1-.4 1.1-.2 1 .3.9.9.6.5v.7l-.1 1.2-.5 1.1-1.2.7-1.3-.1-.9-.5-.5-.9-.7-.5-.4.4-.5.6-.2 1.1.1 1-.1 1.2v1.8zm42-5.8l-1.1-.8c-1.5.7-2.5 1.1-3.1 1.3-.6.2-1.4.3-2.3.4l-.8-.7c.9-2.5 2.9-3.8 5.9-4 1.4.3 2.4.6 2.9.8.5.2 1 .5 1.4.9.4.5.8 1.2 1.1 2.2l.1 9.7-.3 2.1c.4.7.7 1.2 1 1.4.2.2.8.5 1.7 1l.1 1.6c-1.1 1-2.3 1.5-3.6 1.6-1.1-.1-2.1-.5-3.2-1.1l-2.2 1h-2.1c-1.2-.2-2.1-.5-2.6-1-.6-.5-.9-1.3-.9-2.5V497c.3-1.3.7-2.2 1.3-2.9.6-.7 1.5-1.3 2.7-1.9 1.1-.6 1.9-1.2 2.5-1.8.6-.6 1.1-1.3 1.3-2.2 0-1 .2-2.1.2-3.4zm-.5 7.2c-1.3.6-2.2 1.2-2.6 1.8-.5.6-.7 1.6-.9 2.9.3 1.2.9 1.9 1.7 2 .7-.1 1.5-.4 2.2-.9l-.2-1.9.2-.6-.3-.8.1-1.8-.2-.7zm41.9-2.9l.5.2.9-.5c1.5-1.5 2.8-3.1 4.2-4.9l-.1-1-.7-.8-.2-.8.9-.5 1.4.2 2.3.1 2.8.3.8.6-.3.7-1.3.7-1.1.9c-.7.3-1.6.8-2.7 1.7-1.2.9-1.8 1.3-2 1.5l-.7.9c.3 1.2.8 2.4 1.4 3.6.6 1.1 1.3 2.2 2 3.1s1.7 2.1 2.8 3.4l1.8 1.3 1.1.9.3.8-.5.8h-1.3l-1.5-.3-2.4-.1-.9-.1-1.3.2-.7.1-.7-.3-.4-.6.1-1.1.5-.9v-.7c-.7-1.4-1.3-2.6-1.9-3.4-.6-.9-1.3-1.6-2.3-2.2l-.9.3-.6 1.1.1 1.1v1.4l-.3.6v1c.3.4.7.9 1.2 1.5s1 1.1 1.2 1.5l-.3.7-.7.2h-.9l-1.2-.1-.9-.1h-2.7l-.9.2-1-.1-.8-.4-.4-.4.6-.8.8-.9.8-.3.6-.6.1-1.7.2-1.1v-.9l-.1-1 .1-1 .5-2.7-.1-1.8.1-1-.3-1-.1-1.7.1-2.6.1-1.8v-1l-.4-1.9.5-1.6-.3-.8v-1.3c-.2-.3-.5-.6-1-1s-.8-.7-1-1l-.3-.7.6-.7c2-.6 3.9-1.4 5.6-2.4l.7-1.4.8-.8.9.5c-.1 1.3-.5 2.5-1.2 3.8l-.1.6.1.8v1.4l-.2.9-.1 1 .2 1.1-.1 1.3v.7l-.1.8.2 2.2-.2 1.5-.1 1.2v.9l.3 2.1v.7l-.2 1.2.3.5zm51.7-5.3l-1.2-.1h-1.3l-.9.4-.8.7-.7 1-.4.5-.5 1.1-.7.8-.1 1.1.2 1 .8 1.9-.1 1.3.1 1.1.6 1.1.7 2.1 1.3 1 1 .2 2.3.7.8-.2h1.2l2-1.5.3-1.2.3-.9.8-.8.2-1.7-.2-3.7-.3-.9-1.9-3.4-.8-.8-1.3-.7-1.4-.1zm-2.8-3.2h1.5l4.1.8 1.2.6 1.4.3 1.5.8 1.5.9.4 1 .5.7.3 1 .2 1.2.6 1.7.2 2v2.3l-.2 1.4-.8 1.6-1.3 1.7-.9.8-1.6.9-1.9 1.1-1.8.5h-2.1l-2.7-.3-4.5-2.1-2-2.1-1.1-1.9-.4-1.9-.2-1.5.6-4.9.7-1.9c1.3-1.5 3.2-3.1 5.6-4.6l1.2-.1zm57 2.7l-.4-.1-.5.3-.1.9.3.8.6.3.8-1.4-.7-.8zm-15.8.3l-1-.4-.3-.6.1-.8.5-.1h1.2l2 .2 1.4.1 1.2-.2.6-.1 1 .1.1.5-.3.7-1 1.7.3 1.1.5.9c.4 1 .7 2.1 1.1 3.3l.6 1.3.2 1.1.6.6.3.8 1 1.7.7.1.4-.5.1-1.1c.1-.3.3-.8.6-1.3s.5-.9.5-1.1l-.1-1.4c-1.1-2.3-1.8-4.1-2.3-5.4l-.8-.8-.8-.4-.5-.4-.6-.6.2-1 .7-.1 2.6.2 1 .3 1.1-.2h4.8l1.1-.2.7.4.1.9-.3.7-1.9 1.3-1.2 2.6-.2 1.1.6.7.3.5 1 3.8.7.9.7.1.3-1 .4-.9.5-.5.2-1.1.3-.9.4-.4.1-1.4.2-1.3v-1l.1-1.3-.4-.8-.5-.5-.3-1.1.7-.7.6.1 1.2.2.8-.3 1.6-.1h1.2l.7.5.1.7-.5.9-.8.6-.7.4-.6 1.1c-.5 1.1-.9 2.1-1.3 3.1s-.8 1.8-1 2.4l-.2.8-.2 1.1-1 1.8-.3 1.2-.3.7-.4.6-.2.8-.6 2.5-1.1 1.1-.7-.1-.6-1-.3-1.4-1.1-2.3-.2-1.3-1-1.7-.6.1-.6 1-.1.9-.6.8-.8 1.6-.2 1-.4.7-.3.9-.6.8-.8.2-1-.3-.5-.8v-1.4l-.5-.9-.9-2.1-.9-1.1v-1.1l-1.1-2-.3-1.1c-.8-1.2-1.3-2.2-1.7-3.1l-.4-1.6-.1-.9-1.3-1.5-.7-.6zm56.1 12.9c.6 0 1.1.1 1.5.2.4.2.6.4.6.6.4 0 .8.3 1 .9s.3 1.2.3 1.7c0 .7-.3 1.2-.9 1.6s-1.5.6-2.6.6c-.8 0-1.5-.2-2.1-.6s-.9-.8-1-1.3c0-.1.1-.3.1-.4s.1-.3.1-.4c0-.3-.1-.5-.4-.7-.2-.2-.4-.3-.4-.4.6-.9 1.2-1.5 1.7-1.7.6 0 1.3-.1 2.1-.1zm41.5-11.1l-1-.2h-1.6l-1.3.1-.9.8-.3 1.4-.1 1.3v1l.1 1.3-.1.8-.1 1.3.2.7v2.1l.4 1.3.8 1.1 1.3.6 1.2.3 1.8-.2 1.9-1.2.8-1.1.5-1.8.1-1.1.2-1.2-.3-1.1-.1-1.4-.4-1.3-.6-1.1-.5-.5-.2-.8-.9-.7-.9-.4zm-9.5 3.4l-.1-.5.1-1c-.4-1.1-.9-2-1.3-2.6l-.7-.5.3-.7 1.1-.6 1.3-.5 1.3-.8.7-1 1-.7 1.1.1.7.5-.2.7-.4.5.6.7.8-.3.7-.5 1.4-.8h.8l.6.3 1.7.3 1.1.6 1.9 1.8 1 1.1.6 1 .5 1.8.1 1.8v3.8l-.2 1.6-.5 1.8-1.9 2.7-2.3 2.1-1.7.8-1.8.3-.8-.2-1.2-.7-.8-.7-.8.1c-.4.6-.7 1.1-.7 1.5-.1.4-.1 1-.1 1.8l.3.6.1.9v6.2l.1.7.7.9 1.5 1.1v.8l-.8.3-1.2-.1-.9-.1-1.6.2h-1.1l-1.2.2-.5.1h-.8l-.6-.3-.1-.7.4-1 .7-.7 1.1-2.6.4-1.1.1-1.7-.3-.9-.1-1.2.3-2.8.1-1.5-.1-4.4.1-1.9-.1-1.9v-1.9l.2-1.2-.1-.5-.5-1.1zm53.5-8.7l.1 1.3-.4 1-.3 1.2.2 1.1.2.8-.1.9v3.2l.6 1.5-.2.8-.1 1.2-.2 1 .1 1.1.3.9-.3.6.1 1.5c.4.6 1.1 1.5 2.1 2.7l-.4.8-1 .1-1.1-.1h-1.6l-1.2.1-1.3.3h-3.4l-1-.2-.4-.6-.1-.4.8-.8c.9-.5 1.5-.9 1.8-1.2.3-.3.7-.8 1-1.5l.3-1.3v-1.3l.4-.6.2-1-.2-.8v-1.9l-.1-2 .5-.8v-1.6l-.2-1-.1-1.3.5-1.4-.1-1.3v-1.2l-.1-2.1.2-1.7-.2-.8-.1-1.3-.7-.9-.6-.5-.7-.3-.5-.8.6-1.1c.9-.5 1.7-1.2 2.5-2l.7-.3.8-.6.7-.7 1.3-.7.7-.2.9.5.1 1.3c-.1.6-.4 2-.9 4.1l-.1 1.1v.8l.1 2.3-.1 4.1zm-275.5-180l-.3 2.4-.7.9.2 1.5 1.7 1.3 1.8-.1c.9-1.1 1.8-2.1 2.7-3 .9-.9 1.9-1.9 3-2.9l3.3-3 2.4-.7 1.4-1.1.9-2.1c.6-.5 1.3-1.1 2.1-1.7.8-.6 1.7-1.3 2.7-2 1-.7 1.8-1.3 2.3-1.7l.3-1.7-.5-2.2-1.2-1.5-.4-2.4 1.2-1c3.4.3 6.1.4 8.1.4l1.6 1h1.7l3.7-1 3.3-.2 1.3.3.9 1.6-.9 1.4-1.5 1-2.6.6-3.7 1.8-1.7 1.5-2 1.1-1.7 1.4-1.5 1.7-1.6 1.4-4.3 1.9-1.1 1.5-2.4 2-2.1 2.2-3.9 2.5-2.3 4.4.6 1.4c.1 0 1 .7 2.7 2 1.8 1.3 3.2 2.1 4.3 2.6l.6 2.3 1.2 1.5c2.9 1.9 6 5.2 9.4 9.9l2.1 1.5 2.2.4 1.5 1.3 3.2 5 5.7 3.7.3 1.3-1.4.9-2.5.2c-1.8-.3-4.5-.5-8-.7l-2.8-.7-3.5.5-2.5-.2-1.4-1 .5-1.6 1.1-.7-.2-1.5c-1.3-1.9-3.5-4-6.7-6.4l-3.2-4.2c-1.5-1.1-2.9-2.4-4.1-3.8l-1.1-.7-.7-1.6-1.7-1.9-3.2-1.6h-1.8l-1.1 1.1v2.4l.5 4.3-.5 1.9.5 4.4-.2 2.9 1.4 1.7c.5 1.1 1.4 2.3 2.6 3.7l1.8 1.1.5 1.3-1.4 1.1-1.9.2-2-.5H-118.6l-5.2.4h-2.6l-1.5-1.4.9-1.3 1.8-1.1 2.1-3.7-.3-10.2 1.6-3.9-.4-1.4-2-3.2.3-5.8-.2-5.5.7-2.1.9-1.6.2-2.4-1.4-3.4-.2-1.8v-4.1l-.7-2.4-.8-1.6-1.8-.8-1.1-1.1v-1.5l1.6-.9 1.3.6 6-.7c4.9-.4 7.8-.7 8.7-.8h1.9l1.5.6.9 1-1.3 1.3-2 1.3-2.6 2.8v2.8l-.7 1.4-.2 1.4.2 2.7.7 1.5-.2 2-.8 1.9zm73.5-23.1s-.1-1.7 1.6-2.8c1-1.1.8-1.5.8-1.5l1.7-1.7c.6-.6.8-2 1.9-1.9 1.1.1 4.1-.5 4.5.6s2.5 2.4 1.2 3.6c-1.2 1.2-3.8 1.9-5.1 3.5-1.2 1.6-1.4-.4-2.5 1.1s-3.7 2.7-4.1 1.6c-.3-1.1 0-2.5 0-2.5zm3 9l6.1-.3 2.9.3 9 3.9c5.6 5.1 9.3 9.2 11.1 12.2l3.4 5.1.9 2.4.4 2.4-.9 4.4.9 2.3v5.5l-.5 3.9c-.5 1-1.5 3.3-3.2 6.7l-.5.3-3.9 5.6-6.2 5.2-6.1 3.5-4.5 1.8-5-.2-4.3.2h-5.4l-1.1-.3-6-.6c-1.1-.5-2.1-1.1-3.1-1.8s-2.1-1.5-3.3-2.4-2.3-1.7-3.2-2.4l-3-4.8-2.6-2.2c-.6-1-1.5-2.6-2.6-4.5-1.1-2-2-3.6-2.7-4.7l-.2-8.2-.3-3-.2-2.6c1.4-4.2 2.4-7.2 3-8.8s1.6-3.3 3.1-5.1l.2-1.6c.7-.7 1.3-1.4 1.7-1.9.5-.5 1-1.1 1.5-1.6s1.1-1 1.7-1.3l2.6-2.2c1.4-.7 2.9-1.4 4.3-1.9 1.5-.5 3-1.1 4.5-1.6s3.3-1.1 5.3-1.7h6.2zm15.2 14.5c-.7-1.1-1.6-2.2-2.7-3.3-1.1-1.1-2.4-2.3-3.8-3.7-1.5-1.4-2.7-1.8-3.5-2.9l-2.8-.6h-5.7l-3.2.9c-4.2 1.2-6.5 3.2-8.2 5.4l-2.8 3.7-1.4 4.1c-.4 1-1 2.2-1.7 3.5-.8 1.4-1.3 2.3-1.6 3l-.3 2 2 2.5.2 1.8-.6 3.2v4.1l.7 3.7-.2 3.4.6 4.1 3.2 5.3 5.4 3.2 1.4.2 3.5 1.5h2.6l2.6.4 1.8 1.1 5.4-1.4 2.2-.9 4.1-2.2 5.8-5.8 1.8-9 .9-1.9.5-3.4-.2-2.2-1.2-1.6-.2-2.6.3-.9.4-6.2.8-1.6-.3-2.1c-.5-.6-1.1-1.1-1.6-1.6-.6-.5-1.4-1.1-2.5-1.9-1.1-.8-1.7-1.2-1.7-1.3zm65.2 41.8l-2.2 1.5-2.1-.9c-.6-1.4-1.1-3.3-1.5-5.8-.4-2.6-1.3-4.8-2.6-6.7-.6-.8-1.4-1.9-2.2-3.4s-1.4-2.5-1.7-3.1v-1.8l-1.1-1.9-1.9-.2c-2.1 2.4-3.5 5.3-4.2 8.8v1.3l-.4.7-.4 1.9-2.3 4.1c-1 3.2-1.8 5.3-2.3 6.2l-1.9.7-2.5-3.1-.1-2.3c-.8-1.5-1.8-3.8-2.7-6.9-1-3.1-1.8-5.3-2.4-6.6L8 321.5l-.2-1.2-1.2-1.4c-.5-2.2-.7-4.5-.7-6.9-1.8-2.6-3.2-5.3-4.2-8.2s-2-6.9-3.3-12l-2.7-4.5-1-1.2-2.9-.9c-.6-.8-1.1-1.4-1.5-2s-.8-1.1-1.1-1.8c-.3-.6-.6-1.3-.7-2l1.6-.5 6 1 4.1-.2 1.4.2 2.3.5 6.1-1.1.8.6.6 2.2.7 1.4-1.1 1.4c-.8.4-1.3.7-1.5 1.1-.2.3-.6 1.1-1.1 2.5l.7 2.8.7 1.1.2 2.2.8 3c.1 1.1.6 2.5 1.5 4.2.8 1.7 1.3 3.1 1.4 4.2-.2.8-.4 1.4-.5 1.8.2.9.5 1.6 1.1 2.2l-.2 1.5 2.3 2.1 1.7 4.3c-.7 1.9-1 3.4-1 4.6 1.3 1.2 2.5 1.9 3.5 2 .2-.1.5-.2.7-.2.7-3.2 1.8-5.6 3.3-7.2.8-2 1.6-5 2.2-8.9-.3-.8-1-2.4-2.1-4.7-1.1-2.3-1.8-4.2-2.2-5.7l-.2-1.6c-.8-1-1.6-2.1-2.2-3.4-.6-1.2-1.4-2.6-2.2-4.1s-1.6-2.8-2.3-3.8l-1.4-.4c-.8-1.1-1.2-2.1-1.4-3.2.1-.4.2-.9.2-1.6l1.3-.2H17l4.3.3 3.2-.4 4.6-.2 2.6.2 2.8.4h4.6l5.1-.8 2 .2 2.1 3-.5 1.3c-3.3 1.2-5.8 2.7-7.8 4.6l-.4 2.2c-.6.9-1.3 2.4-2.1 4.4-.8 2-1.3 3.2-1.5 3.7l-.7 3.1c.3 1.4 1.1 3.5 2.3 6.2v2.8c.1 1.9.4 3.4.8 4.5s1.3 2.1 2.6 3.1l-.2 2.2 1.3 1.5 1.4.5.6-.9v-1.3c.6-.7 1.1-1.5 1.6-2.3.5-.9 1-2 1.5-3.3.6-1.4 1-2.3 1.2-2.7l.5-3.4.9-1.1c.3-1.7.7-3.4 1.2-5s1.2-3.5 2.1-6c.9-2.4 1.5-4 1.7-4.6V287l-1.6-2.6-4.1-1.7-.5-1.8.7-1.7 2-.2 6 .5 5.4-.5 2.2-.2 1.1 1.7c-.2 1.8-.6 3.4-1.4 4.6s-1.9 2.3-3.6 3.4l-.5 1.6-.7.6c-.8 4.4-1.6 8-2.4 11-.8 2.9-2 5.4-3.6 7.4-1.4 3.9-2.4 6.8-3 8.6l-2.4 7.2c-1 3-1.8 5.8-2.4 8.2-.6 2.5-1.2 4.9-1.7 7.4l-.7 1.8zm-8.5-58l-1.4-.7c-.6.3-2 .7-4.4 1.3l-.6 1.3c.8 1.2 1.3 2.3 1.5 3.2s.4 2.1.4 3.7l.7 2.2 1.1.7 1.4-1.2c1.1-3.3 1.6-5.7 1.6-7.3.1-.6 0-1.7-.3-3.2zm-16-46.8c-3 .2-5.3.5-6.7.9l-1.6 1.4-.6 2.1-.7 2-.8 1.5-.6 1.5-.5 2.4-1.1 1.8-1.1 3.2-.3 2.2.5 2 1.6 1.4 1.5.9.8 1.4.4 1.9-.5.9-1.9.2-3.5-.3-2.4.2-7.5-.7-2.7-1.4.6-1.6 2-.9 4.5-3 1.1-2 2-3.7 1-1.5 1.3-2 1.7-1.5.4-2.2 1.1-3.9.9-2.1 2.4-4.2.6-1.6 1.1-4.1 1.9-3.1.6-2.3.9-2.6 1.4-3.3.6-1.3.9-2.2c.3-.9.6-1.9 1.1-2.9l.7-1.9.2-3.4.2-3.5 1.4-1.1h1.6l1 1.3v2.4l1.3 3.9 2 4.4.8 4.6 1.1 1.7 1.3 4.4.2 1.9 1 3.5.5 1.3.5 2.4v2.4l1.4 2.4 1 2.5.9 2.3c.3.6.8 1.8 1.4 3.5s1.1 3 1.5 4l.3 1.6v1.7l1.3.9 1.3 2.1.6 2 1.7 1.9 2.4 1.1 1.2 1.3-.2 1.3-1.3 1.1H40l-3.7-.2-3.4.3h-4.8l-.4-1.1 1.7-.9 2.4-.6 1.2-1.8.2-3.2-.4-1.6-.5-1-.6-2.4.2-1.4-2-2.9-.5-1.4-.2-1.8-.5-.9-.8-1.4v-1.8l-.7-1.5-.9-1.1c-.6-.7-1.6-1.1-3.2-1.1h-4v.3zm3.2-16l.9-1.7-.3-.9-1.3-.7h-1.3l-.6.7-.4 1.4-.7 1.2-1.3 2.2-1.4 3.9v2.1l.2 1.6.5 1.9c2.2.3 3.5.5 3.8.6.4-.1.9-.2 1.6-.2l2.2-.7.4-1.3-.2-1.5-.6-2.5-.4-2v-1.9l-1.1-2.2zm-59.1 8.2c.8 2.3 1.3 4.5 1.3 6.7v1.8l-1.6 2.4.9.7.9 1.5.9 7.2 1.3 1.7 3.7 2 .9.8-1.1.6c-2.9.4-5.8.6-8.6.6l-3.9-.2-6.4.9-3.2-.9.6-1.3 2.1-1.3 2.2-2.4 1.1-3.7-.2-4.9v-5.4l.4-3.2-.2-12.4.3-9.1-.7-5.7.2-3-.7-.6c-.1-1.3-.3-2.2-.6-2.7s-1-1-2.2-1.6c-.7-1-1.1-1.8-1.3-2.4.2-.8.6-1.5 1.3-2.2l1.9.2h5.7l1.3.7 1.8-.6 6.2-.4 6.3.8 1.6.5h1.8c3.6 1.6 5.9 2.6 6.8 3 1 .5 1.8 1 2.6 1.8.8.7 1.4 1.6 1.9 2.6s1.4 3.1 2.8 6.1l.3 5.6c-.5 1-1 1.9-1.5 2.6-.5.7-1.2 1.7-2.1 2.8-.9 1.2-1.5 1.9-1.8 2.4-2 .6-3.7 1.4-5.2 2.3l-.6.9 1.2.9 1.4 1.3c2 4.8 3.3 10.4 3.9 17l1.1 2.4 1.7 1.1 3.5.6-.9 2-1.9 3.4-4.2 2.6-3-1.4-2-2.1c-.4-1-1-2.4-1.9-4.3-.8-1.9-1.5-3.5-2.1-4.7-.5-1.3-1-2.5-1.3-3.8v-2.6l-.5-4.5-3.3-5.1-3.2-1.5c-1.9.2-3.3.5-4.1.9-.6.2-1.2 1.1-1.6 2.6zm11.7-30.3c-.6-.1-1.4-.3-2.4-.6-1.1-.3-2-.5-2.8-.7-1.5.1-2.5.3-3.1.7s-1.3 1.3-2.1 2.6l-.9 5.3-.7 1.4-.2 1.4c.8.2 1.4.4 1.6.6.2.2.4.6.4 1.2V219.1l1.1 1.2 2.1 1.1 1.9-.2.7.4 4.8-.6 3.5-2.8 1.6-3.2.6-.5c.2-1 .3-1.6.3-1.8 0-.4-.3-1.4-.8-3.2-.2-2.3-.8-4.2-1.7-5.7-.7-1.3-2.1-2.8-3.9-4.4zm-72.2 24.5l-.3 2.4-.7.9.2 1.5 1.7 1.3 1.8-.1c.9-1.1 1.8-2.1 2.7-3s1.9-1.9 3-2.9l3.3-3 2.4-.7 1.4-1.1.9-2.1c.6-.5 1.3-1.1 2.1-1.7.8-.6 1.7-1.3 2.7-2s1.8-1.3 2.3-1.7l.3-1.7-.5-2.2-1.2-1.5-.4-2.4 1.2-1c3.4.3 6.1.4 8.1.4l1.6 1h1.7l3.7-1 3.3-.2 1.3.3.9 1.6-.9 1.4-1.5 1-2.6.6-3.7 1.8-1.7 1.5-2 1.1-1.7 1.4-1.5 1.7-1.6 1.3-4.3 1.9-1.1 1.5-2.4 2-2.1 2.2-3.9 2.5-2.3 4.4.6 1.4c.1 0 1 .7 2.7 2 1.8 1.3 3.2 2.1 4.3 2.6l.6 2.3 1.2 1.5c2.9 1.9 6 5.2 9.4 9.9l2.1 1.5 2.2.4 1.5 1.3 3.2 5 5.7 3.7.3 1.3-1.4.9-2.5.2c-1.8-.3-4.5-.5-8-.7l-2.8-.7-3.5.5-2.5-.2-1.4-1 .5-1.6 1.1-.7-.2-1.5c-1.3-1.9-3.5-4-6.7-6.4l-3.2-4.2c-1.5-1.1-2.9-2.4-4.1-3.8l-1.1-.7-.7-1.6-1.7-1.9-3.2-1.6h-1.8l-1.1 1.1v2.4l.5 4.3-.5 1.9.5 4.4-.2 2.9 1.4 1.7c.5 1.1 1.4 2.3 2.6 3.7l1.8 1.1.5 1.3-1.4 1.1-1.9.2-2-.5H-102.6l-5.2.4h-2.6l-1.5-1.4.9-1.3 1.8-1.1 2.1-3.7-.3-10.2 1.6-3.9-.4-1.4-2-3.2.3-5.8-.2-5.5.7-2.1.9-1.6.2-2.4-1.4-3.4-.2-1.8v-4.1l-.7-2.4-.8-1.6-1.8-.8-1.1-1.1v-1.5l1.6-.9 1.3.6 6-.7c4.9-.4 7.8-.7 8.7-.8h1.9l1.5.6.9 1-1.3 1.3-2 1.3-2.6 2.8v2.8l-.7 1.4-.2 1.4.2 2.7.7 1.5-.2 2-.8 2z"/><path class="st1" d="M66.1 223.1c1.2-1.2 4.2-3.7 3.4-5.4-.5-.9-2-.8-2.5-2.3s-1.4-2.6-.8-3.4c.7-.8 4.2-4.4 6.2-5.1 1.7-.8 4.9-1.8 6-3.2.9-1.2-1.1-2.2 1.2-2.2 7.5 0 5.1-1.2 9.2 1.7 3.2 2.2 1.7 2.8 4 2.5s1.2-2.2 3.4-1.4c2.2.8 2.6 3.9 2.6 3.9s.3.8 1.7 0-.8-2.8 2.5-2.8c3.2 0 3.5-1.5 4.3.6.8 2.2 1.2 2.2 1.8 1.1.6-1.1 1.7-2.5 2.3-1.2.6 1.2 1.8 2.3 3.8 2.3s2.8-1.1 2.8-1.1 1.4-1.4 2.6-1.4c2.8 0 6.5.9 8.5-1.1 0 0 .2-1.5 1.1-1.5 4.7 0 0 1.2 3.1 2.2 2.5.8 1.5-2.6 2.6-3.2 1.1-.7 7.8-1 7.7.6-.1.6-1.7 2.8 0 2.8 5.5 0 3.4-.5 7.4-1.5 3.5-.9 6.5-2.2 6.6-3.1.4-2.3 4-1.3 4.2-.6.9 4.4 4.2 1.1 3.1 3.7-1.7 1.8-2.8 1-3.1 2.6-.7 1.7-1.4 14.3-.1 15.3 1 1.7 0 4.8.4 6.3s2 0 1.8 1.2c-1.4 2-1.5 3 .2 4.3.5.6 1.7 1.5 1.8 2.2.1 1.6-1.9 4.8-.8 6.5.7.9 1.4 1.7 2.2 2.6 0 0 1 1.1.5 4.3 0 1.3.5 2.7 1.2 3.1 0 0 3.7 1.7.9 2-2.8.3-2.8.6-2.8 1.6 0 .9 0 3.6.2 5.1.1 1.4 1.6 5.6 2.3 6.2.4.3 3.4 2.6.6 3.7-1.5.6-1.3 1.8-1.3 1.8.6.8 2.3 3 2.3 4 .6 2 2.3 3.1-.9 3.7-4.2.9-3.3 0-4.3-.3-1.9-.5-4.8-.2-6.4-1.2-2.2-1.3-2.1 1-2.6.9-1-.1-1.2-2.1-3.2-2.1-3.3-.3-5.7 1.3-7.2 1.1-2.9-.4-7.6 1.9-8.7 4.9-.3.8-1.2 1.8-2.2.9-1.1-1.1-2.1-1.7-3.8-1.7-2.3-.5-3-1.3-4.6-1.3s-.8-.9-2.5-1.2c-1.1.4-2.9 1-3.2 2.3-.1 1.8-.7 2.4-2 2.1-2.9-.7-4-2.1-6.1-2.9-1.8-.7-2.9.1-4.5-2-1.3-.7-4.5-1.4-4.5-2.9 0-.7-.2-2.2-.2-2.2-.4-1.3-1.3-2.7-2.2-3-1.5-.4-1.9 1.3-3.2 1.5-2.8.4-5.5-1-8.4.2-1.3.9-2.1 2.2-3.6.9-2.1-1.8-1.9-1.3-2.6-3.9-2.5-3.3-1.6-1-2.7-1-3.1 0-2.1-.7-2.8-2.5-.6-1.5-.4-3.3-2.2-3l-2.4.4c-1.1.2-.6-2.3-1-3.3-.2-2.1-4.8-6.4-2.8-7.8l1.8-1.2s1.4-1.1 1-2.6-1.9-3.1.3-3.5c2.6-.5 3.5-1.8 3.5-4.7 0-.4.2-3.5-.5-4.2-1.2-1.2-4-1.6-4.5-3.2l-.8-2.3c-.6-1.4-2.7-1.5-3.4-.4-.3.7-.9 2.7-2.1 2.5-1-.2-1.3-1.4-1.8-2.2-2.9-5.6 1-7.2 2.2-8.5zm.8 93.7c-.9-.9-.8-3.2 2.8-5.5 3.7-2.5 3.3-1.4 6.2-.8 1 .2 6.3 1.5 7.1-.2.6-1.2-1.3-5.5 1.9-3.7 2 1.2.5 2.1 3.5 2.9 1.5.4 1.7.9 4.3.2 2.5-.8 4.7-1.5 5.5-.8.9.6 2 3.3 4.1 3.7 4.4 0 7.1-5.4 9.9-5.7 2.1-.4 8.5-1 10.4 1 1.8 2 8.2 3.9 9 4.3 2.1 1 5.1 1 7.4.6 2.4-1.1-2.3-9.8 2.3-7.2 2.5 1.4 2.7.5 4.1 1 2.2.6 4.8 7.4 9.4 4.3 1-.7-.6-3.4 2.5-3s3.1.8 3.9 1.8 2.2 1.4 2.7 1 .2-4.5 1.6-3.9 1.2-.4 1.6 2c.6 3.7 2.9 3.5 3.1 4.3.3 1.3-.7 4.8-.4 7.4.3 2.6 1.8 2.9 2.7 5.1 1.1 3-2 17.7-.8 18.8 2 2 4.5 4.7 5.1 5.9.6 1.2.6 2 .4 2.9-1 4.2-1.4 8.3-1.6 10.9-.2 2.5-4.7 1-5.5 1.6-.8.7.3 2.2-.6 3.3-.9 1-1.4-.4-2 .4s-.2 1.6-.8 2.7c-.6 1 0 2.5-1.6 2.5s-1.4.8-1.4.8c.2 1.1.3 3.6 0 4.3-.3.7-.6.6-1.8 1-2.5.8-5.8-.2-6.8 2.2-.5 1.4-1.4 3.4-1.6 4.1-.3.7-1.2 1.6-2.5 1.6-1.2 0-1.6 1-.8 1.6.8.6 1.7.6 1.8 1.4 0 3 .8 9.8 4.7 10.5 1.2.2.8 1.4 1.4 3.5s1.7 6.1.8 8c-.8 1.8-.2 2.2-.2 4.3.2 1.1.3 1.2-.6 2.3-2.3 1.4-3.9 2.7-4.3 4.1s1.6.2-.4 2.5c-1.9 1.6-1.8.6-2.5 2.5-.6 1.8-.6 1.7-.6 3.1s1.4 1 0 2.7c-1.4 1.6.4 1.4-2.2 2.5-2.7 1-3.1 8.2-7.4 1.2-2.3-3.7-5.4-9.5-6.7-10.7-1.4-1.2-3.5.2-3.9-1.2-.4-1.4-.9-3.4-1.4-4.3s-1-.2-1.4-.8c-.4-.7-.2-2.4-1.6-3.5-1.5-1.1-.1-2.4-.8-3.1-.8-.7-2.4-.2-2.9-.2s-2.3-1.2-2.3-2-2.5-1.4-1.8-2.9c.6-1.4 1.6-2.2-.6-3.1-2.2-.8-.8-.8-2.2-2.5-1-1-.5-1.4-1.4-1.8-1.4-.2-1.8.1-2.1-.5-.3-.6 0-4-.7-4.4-.7-.3-1.4 2.1-2.3-1.8s-1.2-4.3-1.8-4.4c-.6-.1-2.7-.7-2.9-1.3-.3-.6 0-.7.7-2.3.7-1.5.7-2.3.5-2.8s-1.4-1.5-1.6-2.3c-.2-.5-.3-1.1-.8-1.5-1.2-1-1.2-.9-1.9-2.5-.5-1-1.2.2-1.6-.5-.4-.6-.1-.8-.9-1.3s-1.6-.4-1.7-.9c-.1-.4 0-2.1-.4-2.9-.4-.9-.8.5-1.8-1.2-.7-1.4-.9-4.2-2.1-4.9-.9-.5-2.4-2.4-2.3-3.5.2-1-.3 0-1.3-1s.5-1.7-1.8-1.9c-1.3-.2-1.6-.5-1.6-1s.4-2.6-.2-3c-.5-.5-.7 0-2.3-.5-1.6-.5-1.4-.7-2.1-1.7-1.1-1.6-.5-3.4-1.7-5.1-.3-.5-.8-2-.4-2.7 1.1-1.8-.1-2.2-.4-3.3-.2-.6-1.6-1.9-.2-2.2 2.2-.5.4-5.8 2.6-5.8.5 0 .5.4 1.3-.2.9-.6.7-3.3.4-3.8-.3-.5-1-.9-1.4-1.4s-.6-1.9-.5-3.1c.1-1.1.3-3.7-.2-4.1-1.5-1.2-1.6-2.1-3.6-2.3 0 0-1.8-.5-3.1.9-1.5 1.7-1.3 1.5-3.3 1.4-1.3-.3-2.3-1.2-2.1-2.7-.3-2.5-.3-2.5-1.2-3.4zm-84.5 77.5c-.2-1.6-.1-5.6.4-6.5 1.1-2.1 3.2-3.7 3.6-6.1.4-2.5 1.1-5.3.7-7-.4-1.9-3.4-4.9 2-5.6 2.3-.5 2.3 1.6 5.1.9s5.5-.5 8.3-.7c.7.1 1.6.8 2 .2.3-.6-2.3-2.2-1.3-2.9 1-.6 6-1.4 6 .2 0 3.2-.2 4.1.9 4.3 1.1.2 2.4-1.7 2.7-2.2.6-1.2-3.3-2.2-.2-4.1.9-.5 4.3-1.6 4-.4-.5 1.8-5.4 4.9.4 4.9 1.3.2 2.9 1.1 3.8.5.9-.6.5-2.9 2.7-2 2.7 1.1 3.7 1.1 6.7 1.1 2.3-1 3.3 3 5.6 1.3.7-.5-.6-1.1 4.5-1.1 4 0 4.1-.1 6.5-1.6 2.9-1.9 7.4-2.2 9.7-.9 2.3 1.2 3.8 1 4.7 2.5 1.4 2.5.9.2 4 2.3 3 2.2 1.7-2.7 4.9-.4 2.5 1.8 1.4 2 1.4 2.9s-.6 2.2.7 2.3c1.3.2 3.4.5 3.1 1.2-.4.7-1.1 1.1-1.4 2.2-.4 1-.4 5.8.7 6.9 1.2 1.2 3.7 4.1 2.3 5.8-.2.2-3.4 3.4-.9 3.4 2 0 1.2 5.6 1.3 7.4-.2.2 3.4 5.8 4.3 6.3.9.6 1.7 1.8 2 2.9.5 2 2.9 2.3 2.9 2.3s1.1-.9 2 0 1.6-.7 2.5 1.6c.5 1.3.9 4.6 1.6 4.7 2.4.4.3 1.7 2.3 2.9 1.3.8 1.8 3 2 4.1.4 2.2 3.8 3.3 4.1 6.3.4 2.9.3 4.9-.9 4.9s-2.8 2.3-4.7 2.5c-3.2.4-2.9-.5-4.3-.7s-2.9-.4-3.2.3c-.4.7-.2 1.6-1.8 1.8-1.6.2-.7-.9-5.6-1.1-1.7-.1-10.3-.7-12.1-1.3 0 0-1.8-1.1-3.4-.2s-2 1.4-3.4.7-2.9-2-3.6-1.8-2.3 2.2-4.7 2.2c-2.3 0-2.7-.2-3.8.9-1.7 1.7-3.5 3.1-6.1 2.7-1.4-.2-3.6-.2-3.6-.2s-3.1.2-4-.7c-.9-.9-1.6-1.4-2.4-1.8-.7-.4-5.4 0-6.9 0-3 0-2.6.4-4.3.7-1.1.2-3.1 0-4.5.6-2.9 1.1-5.3 2.3-8.5 1.6-3.2-.7-8.1-1.2-10.6-.5-2.2.5-2.4 1.3-5.1.4-2.7-.9-.7-.5-3.2-1.4s-3.6-.4-4-1.3c-1.2-3 2.3-2.8.7-5.1-.7-1.1.6-2.5-.9-3.8s-.6-25.7-1.3-26.5c-.6-.8-3.3-1-1.3-2.7 1.3-1.1 1.5-2.1 1.3-2.7-.5-1.2-1.4-2.3-2-4.3-.2-.9-.3-2-.4-3.1zm-78.8-24.8s.7-.7 2.6-.3c3.4.7 9 .5 10.2.3 2.6-.6 3.5-.3 5.9 1.5 1.4 1.1.8 2.9 2.1 3.2 1.3.3.1 1.1 2.1 1.1s2.7-1.4 3.5-1.2c.8.1.4-.2 1.2 1.4.8 1.5 1 .3 1.4 1.8.5 1.7.8 3 3.6 1.2.8-.5 1.8-.5 2.4-1.1.5-.6-.1-2.5.8-3.1 1-.6 1.8-1.4 2.1-.4.5 1.5 1.5 4 2.9 4.7 2.8 1.4 3.7-1.5 6.1-1.5 1 0 .3-.2 2.5.3 2.2.4 3 .6 3.2-.1s-.6-2.9.7-2.6c.7 1 .6 1.5 1.1 2.1.6.6.9.2.9 1 .2 1.2-.8 1.8.8 2.4 1.1.1 1.4-.3 1.7.6.8 2.4 1.3 4.1 0 6.4-.7 2.1-1.1 7-.1 8.5.6.9 2 2.2.4 3.1-1.7 1-2.9 1.1-2.9 1.8.2 2.1.6 8.4-.3 9.2-.9.8-7.5 1.8-4.6 2.8 1.2.4.4 5.5 1 6.7.6 1.1 2 .9 2.5 2.4.6 1.5.2 3 .8 4.9.3 1.4-.1 1.3.4 3.6.5 1.3-.2 2.5.7 2.5 1.1 0 1.3.8 1.4 1.9 0 1.9 0 3.9-.6 4s-1-.3-.8 1.1c.1 1.4 1.5 1.9.6 3.6 0 0-1 .3-1 1.1s.3.8 0 1.4c-.3.5-.5 2-1.4 1.4-.5-.3 0-.8-1.4-1-1.4-.1-4.8-.2-5.9-.1-1.1 0 .8 1.6-.9 1.8-4.3.4-10.1 0-13.1.3s-4 .8-5.3 1.7c-.8.6-1.2 1.1-1.9.1-1.4-2-1.4-1.8-3.5-2.8s-5.3-1.7-6-1-.1 1.1-.7 1.3c-1.1-.4-3.5-2.5-5.1-.8-.6.6-.5 1-1.6 1.2s-12.6 1-14.4.4 0-1-1.1-1.8c-1.5-1.1-4-3-2.2-5.6.3-.6 1.5-1 .8-1.5-.8-1.8.3-2.5-.8-2.8-1.1-.3-1.7-.4-1.1-1 1-.1 2.1-2.1 1.8-2.8-.3-.7-2.5 0-2.3-1.2.1-1.3-1.3-4.3.1-4.3 1.3 0 6.3-2.5 4.7-4-1.1-1.1-2.5-.7-2.7-1.2-.1-.6.2-2.2.4-3.1.3-.8 1.8-.2 1.8-1.4s-.8-1.2-.8-1.9-.3-2.8 0-3.8 1.4-1 2.1-1 .5.7 1.4-.3c.8-1-.2-.5-.4-1.9.4-1.5.3-4.3 0-5.6-.3-1.3-.8-1.2-1-1.4-.2-.2-3.6-1-1.2-1.8s2.6-6.2 2.1-6.8c-.5-.7-2-1.3-2.9-1.5-.4-.1-3.8-1.2-2.9-2.2 1.4-.1 2.7 1.1 3.3.6 1-.8 2.8-1.4 2.8-1.4 1.2-.4 1.7-1.7.7-2.4-1-.6-2.3 1-3.1 0-.8-1-.3-3-.5-4.5 0 0 .2 0-.7-1.1-.8-1.1-1.7-1.5-.8-2.4.8-.8 1.1-.3 2-1.5.8-1.2.6-1.7 1.7-1.7s1.5.4 2.5-.7c1.5-2.3 1.7-2.2 2.2-4.8zm-113.5-34.7s2-1.9 3.2.2c1.2 2.1-.3 4.9 3 5.8 3.2.9 4 1.9 5.6 1.9 1.6 0 2.7 1.2 3.8-.3 1.2-1.5-.3-2.1 2.7-2.9 3.5-1.1 4.9-.9 8.4.9.9.4 1.5 1.5 3.3 1.5 4.4 0 3.4-4.4 7.2-5.5 2.1-.6 3.1-.7 5.8-1.6 3.6-1.2 4.9-1.2 7.4 1.8 1.5 1.8 1.8 2.4.4 3-3.5 1.5-2.1 2.4 1.6 3.7 1.8.1 3.3 1.1 4.9 1.8 2.6 1.1 3.3.4 5.8-.3 2.8-.8 2.2.7 4.3 2.8.6.6-.2 1 1.2 1.9 1.3.9 1.6 0 1.8 1 .2 1 1.2 2.7 1.8 3.2 1.1.9 4.3.6 4 2.4-.7 4.1-.6 3.9.6 7.7.3.9.6 4.4.6 4.4s.6 1.5.8 3.5c.1 1.4-.9 3.8-1 5.5-.3 1.4 1.5 4.8 1.9 5.9.5 1.1 2.1 3.1 2.1 4.6 0 1.2-.9 1.4-.6 3.7.2 1.3-.6 3.1.6 3.1 2.2 0 1.8.2 1.8 2.3 0 1.5-3.4 2.7-3.4 4.7 0 4.1-.6 2 2.8 4.3 1.6 1.1.6 1.9 2.7 2.8.1 1.2-2.2 2.9.4 3.5 2.7.6 2.7.4 3.1 1 .4.7 1.3 2 .7 2.9-1.1 2-1.3-3.2-2.9-.9-.4.6-2.8.7-2.8.7-2.6 1.1-2.9 1.5-4.7 3.7l-.6 2.9-.4 2.9c.6 2.5 2-.7 1.8 2.1-.1 1.9-2.9 4.5-3.7 6.5-.8 2-2.6 3.7-4.6 4.4-2.5.9-2-.1-3.2.9-1.2 1.3-.2 1.7-1.5 2.2s-6.8-1.4-7.7-1.5c-3.8-.3-7.2.9-9.9 0s-4.7-.1-6.6-2.1c-1.9-1.9-1.2-2.1-2.8-1.9-4 .2-1.9-2.4-5.6.4s2.8 4.4-4.7 3.4-4.9-.1-8.8-1.6c-4-1.5-2.9-2-4.4-1-1.5 1.6 1 2.2-2.5 1.6s-2.8 2.1-5.8-1.3c-2.9-3.4-4.9-5.4-6-8.7-1.6-4.4.4-4.2-.6-7.2-.6-1.8-.2-10.3 1.8-11.9 1.9-1.6 2.6-2.2 2.9-4.1s.5-8-.1-8.4c-.6-.4-.9-.6-1.6-.7-3.1-.6-2.7.7-4-3.4-.8-2.5-1.1-1.9-1.2-5.2-.1-3.2.6-3.2-1.2-4.1-3.3-1.7-4.7-5.9-3.5-9.7.7-2.4-.2-2.6.9-4 .4-.5 2.2-5.4 2.4-6.2.6-3.3-1.2-3.6-1.9-6.2.8-3.2-.2-2.8-1.3-5.2 0 0-.9-3-.9-3.7s-.4-1.9.4-3.1c1.9-2.5 2.1-1.3 2.1-5.3 0-2.5.5-3.7 2.7-4.3l1.2-1.2zm6.7-74.9c2.5 1.5 6.5 1.9 8.5-.5 0 0 1.2-.9 1.2-1.6s-1.2-2.4.4-2.8c1.6-.4 6-2.8 7.4-1.2 1.3 1.6 2.6 0 2.8 2.4.2 2.4-.5 2.7 2.3 2.4 2.8-.3 3.5-1.1 3.5-1.1s-.5-1.2.8-1.2h3.1c1.6 0 1.9-1.1 2.4-.1.9 1.5 2.8 4.3 4.3 1.6 1.1-1.9 1.1-2.3 1.8-2 .7.3 2.5 1.3 2.9.3 1-2.6 2.7-2.3 5-2.3 2.2 0 5.2 2 7.4 2.1 3.2.3 2.7-1 4 .2 1.5 1.4 8.7 5.6 5.8 8.5-1.2 1.2-4.4 0-3.9 1.9s1.7 2.2 2.7 2.7c2.1 1.2.6 2.2 1.6 2.9.6.4 2.3 1.9.4 2.4-2.2.6.2 2.6-.9 4.2-.6.8-.4 2.8-2.3 3-1.9.2-1.3-.5-3.3-1.3-1-.4-3 .4-3.6 1.2-2.8 3.7 2 .9 1.6 3.2-.2 1.2 1.2 3.1 1.2 3.9 0 .8-1.7 0-1.6 1.1s1.1 1.1 1.1 1.1c.1 1.1.8 2.8.8 2.8s2.1.4 2.7.5c1.9.5.6 1.2 2 3.5 1.1 1.7 1.5 1.3 1.7 4.3 0 1.1.4 2.3 0 3.2-.4.9-2.1.4-2.1.7-.5 1.7 1.3.1.3 2.6-.8 2.1-1.6 2.2-2 3.1s-1.9.7-2.5 1.9c-.9 1.8-3.1 1.7-5.2 1.1s-5-3.2-7.2-3.2c-3.3 0-4.7 4.1-8.3 4.7-2.7.5-10.6.9-12.7 1.1s-1.1-1.5-2.3-2.4-.9-1.6-1.9-1.6c-.9 0-.9.3-1.7-.9-.8-1.1-2.9-2.2-4-.8-.5.7-.5 1.2-2 1.2-3.7 0-2.3-.1-5.4-1.6-4.4-2.2-5.1 1.2-7.4 1.3-3.1.1-4.6.3-5.2.1-2.6-.5-3.7 2.4-5.1 1.7-1.4-.7-.1-2.2-.1-3.3-1.9-2.4-.5-3-.3-5.4.1-1.2.9-2.1.3-3.2-.7-1.2-3 .4-3-2.7 0-1.5.1-.9-1.7-2-1.8-1.2 1.3-5.8 1.6-7.6.4-2.3.1-9-.9-9.9s-1.4-5.7-1.5-7.4c-.1-1.2-1.5-1.8-.3-3.2 1.2-1.4 3.3.5 3.3-.3.1-4-.7-6.4 3.6-8.3 1.2-.5.2-2.7 2.4-2.7 1.8-.4 4.1-.4 7.5 1.7zm.2-67.9s3.6-.4 4.6-.2c1 .2-.2.9 1.9.5 2.3-.5 3.6-.9 6-.9 2.2-.6 1.1-.3 2.8.2.6.2 2.1.2 2.6.6 1.2.8 1.4-.3 2.5 0 1.2.3 7-3.1 8.1-3.8 1.2-.7 1.8-.8 2.1-.9.4-.2 2.4-.7 1.8.6-.6 1.4-1.4 1.8-.3 3.5.6.9 3.4 0 3.7 1.9.3 1.9-.3 2.5 1.6 1.9 1.9-.6 2.5-.9 1.8-2s-1.9-2.7-.7-2.8c1.2-.1 1-1 2-.1 1.2 1.1 2.5 2.2 4.9 2.8 3.7.9 4.1 0 5.8.9 2.5 1.3 1.5-1.7 3.2-.6 1.1.7 2.1 1.7 3.4 2 1.6.5 3.1.9 3.1 1.3s-.4.3-.5 1.5c-.1 1.8-.6 1-1 2s-1 2.9-.4 3.2c.6.3 1.6-.3 1.8.3.2.6.4 2.2.5 2.7.1.5-.9 2.9.6 3s2 1.1.7 1.8c-1.2.6-2.7.7-3.6 1.7-.5.5-1.5-.2-1.9-.2s-.4.6-.6 1.1c-.3 1.4-1.2 1.2-1.2 2.2-.1 1.3-.6 1.8-1.7 4.2-.5 1-1 4.2-2.3 4.3-2.5.2-3.1-.2-5.2.8-1.9.9-2.4.5-3.3 1.2-.9.8-3 2.6-3.8 2.9-2.5 1-2.7.3-5-.1-3.2-.6-6.9-1.3-8.9-2.8s-2.6-2.2-4-2c-1.6.2-2.5.9-4.1 1.2-3.6 1.1 1.2 4.1-4.7 6-5.5 1.8-7.7 1.7-8.5 1s-1.2-.2-2.1-1c-.9-.8-1.9-1.5-2.2-2.5-.2-1-1.4-2.9-1.7-3.2s-3.2-1.4-3.2-.5c0 1.6-3.7 2.6-4.5 2-.8-.6-.6-.9-1.1-1.9-1.1-2.5-1.9-1.4-1.3-4.4.6-3 1-2.9.8-5.8-.2-3-.8-7.5.5-10.3 1.7-3.7-1.1-5.1-.9-6.4.2-1.4-.3-2.4 1.1-3.9 1.5-1.6 2-2.4 1.6-2.9-.5-.6-2.3-1.9-.5-2 1.8-.1 1.6-.5 4.7-.1 2.9.4 3.1 2 5 2zm-2.4-94.1c.2-.4-.3-1.5 1.1-1.5 1.5 0 2.8 1 4.5 0s1.2.1 2.6-1.1c1.3-1.2 2.6-2.7 3.6-2 1 .7.1 1.1 1.4.8 1.2-.2.7-.4 1.7-.6 3.2-.2 2.1-.6 3.6-1.1s.6-.4 1.5-.5c1-.1-.5-.7 1.5-.4 1.8.3 2.1.3 2.6-.4 1.2-.9.9-.9 1.8-1.2 1-.4-.5-1.1 1.2-1.6s2.3-.6 3.6-.6c1.2 0 2.1-.8 3.9-.1 1.8.6 1.1.7 2.8 1 1.7.2 1.5-.2 2.3-.2 4-.1 3.2-.9 3.8-1.5.6-.6-.1-.8 1-1 .7 0 .9-.1 1.1-.1 2.2-.6 1.6-1.6 2.8-.9 1.4.8 3 .3 3 .3.5-.1 1-.3 1.6-.5 0 0 .2-.5 2.1.2 2.5.6 1.7 0 2.8.6.9.5-2 1 1.8.6 3.9-.2 3.1.9 3.9-.2.9-1.1 1.4-1.2 1.8-1.1.5.1-.2.6 1.6.1s2-.2 2.5 0c1.6 2.3 2.1 1.5 2.1 1.5s-.2-1.1 4.2.8c4.3 1.8 3 1.2 4.6 1.3s.5.2 3.1.2 2.2.2 2.9 0c.2-.2.1-.4.7 0 1.3.4.8.1 1.9.5.9.1 1.3-.2 1.2.4-.1.6-2.9 1.1 1 .8 4.2-.5 4.5-.1 4.6.3.1.4.7-.6.8.8-.3 1.2.6 3.1.2 3.3-1.2 1.1-1.1 0-1.3 1 .1 1 .1 1.5-.1 1.5s-1.1.6-1 .9c.3 1 .3.4.6 1.5.2.9.9 3.3-.9 3.2-1.5-.2-.2 1.2-1.2 1.6-.7.3-.1.1-1.1.3-2.8.6-2.1 1.5-2.2 2.9 0 .8.1 4.2.1 4.6s0 2.2.2 2.7c.5 1 3.1 1.5 2.2 3.1-.7 1-1.4.9-1.8 1.4s-.2 1.5 0 2.3c0 0 .8 1.1-.1 1.7-1 .6-1.1.8-1 1.4.2 1.2 1.2.4 1 1.8-.1.6.1 5.1-.6 5.4-1.6.6-1.1.7-1.7 1.9-.3.6-1.5.4-2 .7-.6.3 2 2.8 2.7 2.7 1.7-.3 1.6 1.3 1.1 1.4-.9.2-2.2-.1-2.3 0-2 1.3.6 1.7-1 2.1-.4.1-3.3 2.3-2.8 3 .6.8 2.1 1 2.3 1.8.8 1.8 2.9 1.9 3.2 2.5.3.6-.9 3.1.5 3.3.9 0 1.9 0 2.1 1.9.1.6 1 2.5 1.4 3.1.6 1.3-.8 2.2-.8 3.5.1 1 .2 3-.1 3.6-.2.4-.7.5-1.2.6-.7 0-.4 3.2-.5 3.6-.1 1.2.6 1.3-.2 1.6-.6 0-1.8.5-2 .7s-.2 1-.4 1.2c-.7.4-.8 1.1-1.1 1.2-.5.1-1.7-.2-2-.1-.3.1-.7.4-1.2.3-.5-.1-1.1-.4-1.5-.4-1.7 0-2.8 1.1-3.3-.5-.2-.4-1.9 0-2.1-1.1-.5-1.8-3.9.1-3.4-1.4.1-.4-.5-1.7-.8-.8-.2.9-1 1.3-1.1 2-.3 1.3.3 1.3-1.3 1.3-2.3 0-1.4-.1-1.8-1.6-.1-.7-.1-1.8-1-1.2-.6.2-1.1-.2-1.2.2.1.9-.5.2-1.1.7-1.1 1.2-4.2.4-5.6.4-.6 0-1.2.1-1.9.5-2.1.3.6-1.3-2.2-1.2-4.7.3-3.4-.9-4.6-1.2-2-.5-15.5-.4-15.9 1-.7 1.7-5.4.6-5.8.7-1.6.5-2.5-.7-1.6-1 1 .2 1.1-.6 1-1.8-.1-1-2-1.3-2.7-2.3-.8-.7-3.4.1-3.4-.4 0-.6-.8-1.9-1.7-1-.1.4-.4 2.1-1.1 2.2-.4.1-1.8 0-1.9.3-.2.7-2.1.7-2.7.6-1-.5-7.8.5-9.2-2.7-.4-.9.1-1.8-.4-2.3-.2-.2-1.1.1-1.2-.3-.7-.7-1.1-5.9-2.1-6.3-.5-.2-2.7.7-2.7.1 0-1 .5-1.4-.6-1.6-.7-.2-1.6-.6-2.4-.6-1.2 0-1.6.6-2-.6-.4-1.3-.3-.8-.9-1.6s-.1-2.1-.7-2.5c-.4 0-.9-.3-.8-1.1.1-.9-.5-7.4.2-7.9.2-.2.5-.4 1.2-.5.9 0 1 1.2 1.2-.5.2-1.9-.5-8.1-.2-8.3.4-.2.5.2 1.1-.4.6-.5.8-3.3.2-3.6-.6-.3-1.1.2-1.1-1s-1.1-2.7-.2-3.2c2.3-1.2.7-2.9 1.9-3.3 1.4-.5.8-5.1 1.9-6.9.3-.5.9-1.3.9-2.6 0-1.2-.2-2.7-.2-2.7-.1-1.4-.7-1.9-.8-2.8-.1-1-.1-2.6 0-3.1s.4-.8.7-1.1c.6-.4 1.1-1 1.3-1.4zm119.7-13.8c0-.8 2.7-2 3.3-2.1s1.3 0 2.1.8c1.6 1.6 4.6 1.2 6.8 1.2h9.2c2 0 3.1.2 3.1.2s1.7.5 2.8-.3c1.1-.8.8-.9 2.2-.6 1.2.3 5 .9 5.4-.3.3-.9-.6-1.2.9-1.2 2.4 0 1.5-1.2 2.8-1.2 1.5 0 1.9-.8 2.9-.8 1.2-.2 4.7.1 6.5.5 1.8.3 4.8-.5 4.8.5.2.7-.1 1.2-.8 1.5-.8.5-1-.3-1.2 1.1-.3 2-.3 1.5.2 2.6s.8 1.4 0 2.2c-.9.9-1.5 1-2.2 2-.9 1.4-1.1 1.9-1.1 2.8 0 1.1-.5 3.1.9 3.4l2.9.6c.9.3 1 1.8 1.7 2.2.6.1 1.8-.3 1.8.5 0 1.1 1-.3 1.4 1.2.2.7-.2 1.7.5 2 .8.3 2.2-.7 2.8 0 .4.6.6 1.5 1.2 1.7.6.2 1.7.3 1.7 1.1 0 1.1-2.1 3.7-1.4 4.6.5.6.7 1.2 1.5 1.2.9 0 4.2-.9 3.4 0-.9 1-1.3 1.3-.9 2.8.3 1.1-.5 4.1-.6 5.5 0 .8.3 3.4.3 3.4.6 1.4-2.3 1.9-2.3 2.8v3.4c-.1 2.9-1.7 1.4-2 3.3-.4 3.4-.4 1-1.4 2.6-.8 1.3-1.5 2.4.1 3.2 2.3 1 .4.6 1.7 1.8 3 3-4.1 1.5-4.1 4.4 0 .8.4.4 0 1.1s-1.7 1.1-1.3 1.6c1.7 2.3-1.5 2.6-1.4 4.3.4 1.1-.4 1.6-.6 2.7-.2 1-.1 2.1-.6 3.1-.4.9-1.7.4-1.6 3.2 0 2.1-1.1 5.1.1 6.4 1.2 1.3 1.5 1.4 1.3 2.7.1 3.2-.8.2-1.1 3-.3 3.3-4.9 1.3-6.5.2-1.1-.7-.6-1.1-2.5-.8-.6.1-5.2-.1-5.8.2-1.7.9-2.1 2.7-4.1 3.2-2.2.6-3.4 1.8-4.9.5s1-1.6-2.3-2.2c-3.3-.6-2.5-1.2-3.3-1.8-1.2-1-3.4-1.8-3.4-1.8-1.1-.4-1.7-.7-1.7-.7-.9-1.2-1.2-.9-2.1-1.1-3.2-.3-6.7-.5-9.7-1.7-.9-.4-1.2-1.5-3.3-1.2 0 0-1.8 1.1-1.8 0s-.7-2.5 0-2.5 1.3.6 1.1-.5c-.2-1.1-1-1.5-.7-2.1.2-.6.1-.6.7-1.1.6-.5 1.3-.7.6-1.2s-1-.1-1.2-1.1-.1-1.1-.7-1.5c-1-.6-.8-1.3-1.5-1.8-.5-.4-1.2-1.6-.5-1.8s1.2-3.1.5-3.3c-2.1-.6.4-3.2-.7-3.7-.6-.2-.9-.1-1.2-.6-.4-.5-.5-2.1-.6-3.1s.7-1.6-.2-2.1c-1-.5-3.2-.8-1.3-2.5 1.8-1.6 1.7-2.1 2.3-2.2s1.5-1.1 1.7-2c.6-2.1 1.9-3.9 2.6-6.3.1-.4.3-4.3-.4-4.5-.6-.6-3.8-1.2-4.1-1.7-.7-1.5-.5-1.6.7-3.8.5-1.3.2-.1 1.1-2.6.9-2.5 1.5.6 1.5-2.6s-1.2-2-.6-4.2.2-1.6 1.6-2.2c1.3-.6 2-5.7 1.2-6.4 0 0-2.8-1-1.8-1.6s.6-.1 1.1-.6.9-1.1.6-1.5c-.3-.4-1 .4-1.2-.5s.2-.7-.2-1.3c-.4-.6-.9-1.6-.2-1.7.6-.1.4.4 1-.2.6-.6.7.2.7-.8-.3-1.7-2.2-4-2.2-5.9zM1.5 167c.1-.1.2-.4.1-1.1-.2-2.1.4-2.6.9-3.7 1.1-2.5-1.2-5.1.1-6.2.9-.7 1.5-1.6.5-2.5-.6-.5-2.8-2.6-2.6-3.2.3-1.3.9-1.3 2.1-2.2 1.6-1.1 3.7-7.6 2.3-8.6-.6-.5-.5-1.1-2.2-1.8s-2.2-1-2.2-1.6c0-.6-2-.6.3-1.5 2.7-1.4 2.2-2 2.6-2.5 1-1.3 1.5-1.4-1.5-3.6-.5-.4-2.6-.8-2.6-2 0-1.1 0-1.5-.5-1.7-.5-.2-.9-.5-.4-1.3.5-.9.6-1 .6-1 1.3-2.5 0-.7-.2-2.9-.1-1.4-.4-1.2.4-2.1.7-.9.7-2.2 1-3 .4-1.3.8-2.8-.1-3.9-.4-.5-.8-3.5-.5-3.8.3-.3 4-4.3 2.1-4.3-.5 0-1.5 0-1.5-1v-2.7c0-1.5-1.1-1.7-.6-2.3 1.2-1.5.8-3.7.4-4.9-.5-1.2.4-1.1.4-2.2 0-1.7-.1-2.2-1.1-3.4 0 0-1.2-.8-.9-1.5.3-.8-.9-1.5.5-1.5 2.3-.1 2.4-2.3 4.6-2.8.9-.2 1.7-.4 2.6-.6 4.4-1 8.8.5 13.2.9 4.1.6 9.1 1.2 13.2 1.2 2.9 0 5.8.8 8.5.8h10.2c3.4.1 4.5 1.8 7.4 2.3 3.1.6 5.9 1.5 9-.2 1.7-1.3 2.7-1.9 3.1-1 0 3.4 6 1.8 8.6 2.5 1.5.4 5.1 1 5.1 2.9 0 2.3 1.4 2.1-1.2 3.9-2.7 1.8-3.3 2-3.7 3.5-.7 2.3-2.9 2.6-3.1 3.7-.2 1.6.9.4-.2 3.1-1.4 4.7-2.1 4.7-2.1 4.7s-1.2.8-1.8 1.8c-.6 1 1 2.3-.2 3.3s-1 .8-1.8.2-.4-1.7-1.2-.6c-.6 1.4-1.7 8.4-.4 8.8 1.9.6 2.5 1.8 2.5 1.8-.4 2.2-1.1.4-1.8 2.5-.6 1.7-.8.6-.8 1.8 0 1.2 1 .8-.2 2.1-1.2 1.2-1.2.8-1.2 1.6-.2 3.6.7 24 .2 24.8-.3.6-1.4.8-1.7 1.4-.5 1.2-1.6 3-.6 3.5.6.3 1.1.6 1.7.8.9.5 1.1 3.5.2 4.3-1.7.6-1.6 3.3-1.6 3.9 0 .9-.5 1.5-1.4 1.8l-2.3.2s-.8.1-1.8 1.2c-1.2.8-2.9.4-2.9.4-.6-.4-.9-1.3-1.6-1.8-.7-.6-1.6-.1-2.1-.4s-.4-.9-.6-1.4c-.2-.6-10.7.8-11.9.8-2.2.1-8.6-1.8-9.5-.8-1.4 1.7-2 2.2-2.5 2.1-.5-.2-.2-1.2-.6-2.2-.6-1.5-3.4-4.4-4.3-1.7-.5 1.7-.3 3.6-1 4.5-.7.9-4.3.6-4.9-.4-.6-1-.8-3.7-5.3-4.1-4.5-.4-3.5-.2-4.9.6-1.4.8-1.4 1.2-2.7 1.4-1.2.2-1.8-1-1.8-1-1.9-1.3-2-1.3-1.8-2.1zm101.1-65.2c.3-.6-.7-.7.3-1.2 1.2-.5-.4-3.4-.6-4.7-.2-1.2-.1-4.4.3-5.9.3-1.1 1.7-1.1 3.2-1.8 3.8-1.9 1.5 1.4 4.2 1.7l5.1.6s1.8.3 2.4.6c1.5.7 2.9.4 3.7-.8.5-.7 3.3.1 4.6.1 4.8 0 10.4-.5 12.9-1.8 1.4-.3 4.1.7 6.1.3 4.4-.9 7.7-2.8 11.5-4.2 1.5-.5 3.6-.2 4.1 1.5 1 4-.5 9.1.3 13.2.2.8-.4 1.3.6 2.1 1.7 1.2 4.6-.1 3.1 3.6-.6 1.5-2.4 1.3-2.5 2.1-.1.5 2.7 5.2 1.3 5.2-1.6 0-1.9 1-1.9 2.4-.1 4.9-.8 10.6-.6 11.2.2.6 2.3 1.2 2.4 2.6.2 1.5 2.4 2.8 1.8 4.5-.3.9 0 3.2 0 3.2-.2 1.9-.4 1.9-.9 3-.4 1 .2 2.4-.4 2.7-.6.3-1.6-.1-1.6.6-.1 2.4-.2 4.4-.2 5.6s-.1 1.2.5 2.4.3 3.6 1 4.2c2 1.6 1 2.9 2.4 4.8.6.8-.3.8 1.9 1.3 4.3 1.2 5-.6 4.7 1.9-.3 3.2.2 2.4-1.5 3.9s-1.7-.4-2.6 1.7c-.9 2.1 0 1.9-1.9 2.7-1.9.7-.9-.8-2.2.9-1.3 1.7-1.2 1.1-1.7 2.2-.4 1.2.2 3.4-1 2.1s-1.5-1.5-2.1-2.1c-.6-.6-1.8 1.2-2.6-1.1-1.5-4.5-1.7-.9-2.1-.8-1.1.3-.4-.4-1.3-.9s-3.3 0-4.2-.2c-.9-.1-.2-1.7-.9-1.8-.8-.1.3 0-1.7 0-1.9 0-3.6-.5-4.3.6-1.4 2-1.5 1.6-3.2 2-.8.2-6.6.6-6.6 2.3.2 3.1-.6 5.9-2.9 5.2-.6-.2.3-1.4-2.5-1.7-1.6-.2-.1-.7-.7-1.5-.2-.3-.5-.7-.5-.7 0-.7.2-1.6 0-2.2-.5-1-1.9-1.4-2.2-.2-.3 1-3.1.3-3.8.3-.9 0-2.2.1-3.1.2-.9.2-1.4.6-2.2-.6-.7-1-3.5-.5-4.5-.5-.6.3-1.4-.6-1.8-.8-1.3-.7.1-3.9 0-5.7 0-.6-1.2-.7-1.4.2-.2.8-.3 1-.5 1-2.2 0-3.2 1.1-5.6 1.2-.2 0-1-.6-1.4.1-1.1 1.9-1 .5-1.5-.7-.9-.5-1.9-.2-1.8-.9s0-1.1-.5-1.5c-.5-.4-1.2-.6-1.4-1.2-.4-1.4.4-6.6-.1-7.2-.6-.6-3.7-1.5.1-2.5 3.9-1.1.2-.7.2-2.2 0-3.7-1.2-2.6-2.5-4.5-.6-.9-1.3-.1-1.3-1.4 0-.5-1.5-3.3-.2-3.3.8 0 1.2 0 1.5-.4.3-.4 2.1-4.3.3-4.8-1.8-.4-2.6-.5-2.6-.5-1.4-1.1.3-3.7.5-4 .2-.4.5-.3.5-2 .1-1.7-.7-1.6.2-1.9 3.2-1.3.2-1.6 2.2-2.8.9-.6 3.6-2.1 3.6-3.3 0-2.5.4-5.8-.7-8.2-.2-.4-.3-4.8-.1-5.6.2-.8.1-2.9.8-3.4.7-.5 1.5.7 2 .1s.5-1.8 1.7-2c1.3 0 2-2.1 2.4-2.6z"/></svg>