<svg id="Layer_1" xmlns="http://www.w3.org/2000/svg" xmlns:xlink="http://www.w3.org/1999/xlink" viewBox="0 0 331.3 210.7"><style>.st0{clip-path:url(#SVGID_2_);fill:#f7a823}.st1{fill:#fff}.st2,.st3,.st4,.st5,.st6{clip-path:url(#SVGID_4_);fill:#86569f}.st3,.st4,.st5,.st6{fill:#dc1a60}.st4,.st5,.st6{fill:#26a8b0}.st5,.st6{fill:#ec6336}.st6{fill:#f7a823}</style><defs><path id="SVGID_1_" d="M-124.7-315.2h595.3v841.9h-595.3z"/></defs><clipPath id="SVGID_2_"><use xlink:href="#SVGID_1_" overflow="visible"/></clipPath><path class="st0" d="M48.7 62h-.2c-.5-.1-.9-.7-.8-1.2.5-2.2.9-3.7 1.3-4.5.5-1.3 1.2-2.7 1.8-4 1.7-3.7 3.3-7.2 3.3-10.5 0-9.1-7.4-16.5-16.5-16.5s-16.5 7.4-16.5 16.6c0 3.2 1.6 6.7 3.3 10.5.6 1.3 1.2 2.6 1.8 4 .3.8.7 2.2 1.2 4.3.1.5-.2 1.1-.8 1.2-.5.1-1.1-.2-1.2-.8-.5-2-.9-3.3-1.1-4-.5-1.3-1.1-2.6-1.7-3.9-1.7-3.8-3.5-7.7-3.5-11.3 0-10.2 8.3-18.6 18.6-18.6 10.2 0 18.6 8.3 18.6 18.6 0 3.7-1.8 7.5-3.5 11.3-.6 1.3-1.2 2.6-1.7 3.9-.3.7-.7 2.1-1.2 4.2-.3.3-.7.7-1.2.7M37.8 20.2c-.6 0-1-.5-1-1V9.8c0-.6.5-1 1-1 .6 0 1 .5 1 1v9.4c.1.6-.4 1-1 1M56.3 29.1c-.3 0-.5-.1-.7-.3-.4-.4-.4-1 0-1.4l6.6-6.6c.4-.4 1-.4 1.4 0 .4.4.4 1 0 1.4L57 28.8c-.2.2-.4.3-.7.3M19.3 29.1c-.3 0-.5-.1-.7-.3l-6.7-6.6c-.4-.4-.4-1 0-1.4.4-.4 1-.4 1.4 0l6.6 6.6c.4.4.4 1 0 1.4-.1.2-.4.3-.6.3"/><path class="st0" d="M37.5 33.2c-5.3 0-9.5 4.1-9.8 9.3v.5c0 .1 0 .2.1.3.3 1.8 1.9 3.2 3.7 3.2 1.9 0 3.4-1.4 3.7-3.2 0-.1.1-.2.1-.3 0-1.2 1-2.2 2.2-2.2 1.2 0 2.2 1 2.2 2.2 0 1-.7 1.9-2.1 2.8-2.3 1.5-4 4.2-4 6.5v8.4c0 .6.5 1 1 1h5.6c.6 0 1-.5 1-1v-7.6c.1-.3.9-1.3 1.9-2.1 2.5-1.9 4.2-5.1 4.2-8 .1-5.4-4.4-9.8-9.8-9.8m4.4 16.3c-.6.5-2.7 2.2-2.7 3.7v6.6h-3.5v-7.3c0-1.7 1.3-3.7 3-4.8 2-1.3 3-2.8 3-4.5 0-2.4-1.9-4.3-4.3-4.3-2.2 0-4 1.6-4.2 3.7v.3c0 1-.8 1.8-1.8 1.8-.9 0-1.7-.7-1.7-1.7.1-4.2 3.6-7.6 7.8-7.6 4.3 0 7.8 3.5 7.8 7.8 0 2.2-1.3 4.7-3.4 6.3M69 43h-9.4c-.6 0-1-.5-1-1 0-.6.5-1 1-1H69c.6 0 1 .5 1 1 0 .6-.4 1-1 1M16 43H6.6c-.6 0-1-.5-1-1 0-.6.5-1 1-1H16c.6 0 1 .5 1 1 0 .6-.5 1-1 1"/><path class="st1" d="M123.1 26.9c3.4 0 6 .6 7.8 1.8 1.8 1.2 2.7 3.1 2.7 5.8 0 2.7-.9 4.7-2.7 5.9-1.8 1.2-4.4 1.8-7.8 1.8h-1.6v7.6h-5.1V27.5c1.1-.2 2.3-.4 3.5-.5s2.3-.1 3.2-.1zm.3 4.3h-1.1c-.4 0-.7 0-.9.1v6.5h1.6c1.8 0 3.1-.2 4-.7.9-.5 1.3-1.4 1.3-2.7 0-.6-.1-1.2-.3-1.6-.2-.4-.6-.7-1-1-.4-.2-.9-.4-1.6-.5-.6 0-1.2-.1-2-.1zM147.4 36.9c-.4-.1-.9-.2-1.5-.3-.6-.1-1.2-.2-1.9-.2-.3 0-.7 0-1.1.1-.4.1-.7.1-1 .2v13.1H137V33.5c.9-.3 1.9-.6 3.1-.9 1.2-.3 2.5-.4 4-.4h.9c.4 0 .7.1 1.1.1.4.1.7.1 1.1.2.4.1.7.2.9.3l-.7 4.1zM166.6 41.2c0 1.4-.2 2.6-.6 3.7s-1 2.1-1.7 2.9c-.7.8-1.6 1.4-2.7 1.8-1 .4-2.2.7-3.5.7-1.3 0-2.4-.2-3.4-.7-1-.4-1.9-1.1-2.7-1.8-.7-.8-1.3-1.8-1.7-2.9-.4-1.1-.6-2.4-.6-3.7 0-1.4.2-2.6.6-3.7s1-2.1 1.8-2.8 1.6-1.4 2.7-1.8c1-.4 2.2-.7 3.4-.7 1.2 0 2.4.2 3.4.7 1 .4 1.9 1 2.7 1.8.7.8 1.3 1.7 1.7 2.8.4 1.1.6 2.3.6 3.7zm-5 0c0-1.5-.3-2.7-.9-3.5-.6-.9-1.5-1.3-2.6-1.3s-2 .4-2.6 1.3c-.6.9-.9 2-.9 3.5s.3 2.7.9 3.6 1.5 1.3 2.6 1.3 2-.4 2.6-1.3c.6-.9.9-2.1.9-3.6zM185.5 49.2c-.4.1-.9.3-1.5.4l-1.8.3c-.6.1-1.3.2-1.9.2-.6.1-1.3.1-1.8.1-1.4 0-2.7-.2-3.8-.6-1.1-.4-2-1-2.8-1.8-.8-.8-1.3-1.7-1.7-2.8-.4-1.1-.6-2.3-.6-3.7 0-1.4.2-2.7.5-3.8.3-1.1.8-2.1 1.5-2.9.7-.8 1.5-1.4 2.4-1.8.9-.4 2-.6 3.3-.6.7 0 1.3.1 1.8.2s1.1.3 1.6.6v-7.8l4.9-.8v24.8zm-11-8.1c0 1.5.3 2.7 1 3.6.7.9 1.7 1.4 3 1.4h1.2c.4 0 .7-.1.9-.1v-9c-.3-.2-.7-.4-1.2-.5-.5-.1-1-.2-1.5-.2-2.3.1-3.4 1.6-3.4 4.8zM204.7 49.2c-.8.2-1.9.5-3.2.7-1.3.2-2.7.3-4.1.3-1.5 0-2.7-.2-3.6-.6-1-.4-1.7-.9-2.3-1.6-.6-.7-1-1.6-1.2-2.5-.2-1-.4-2.1-.4-3.2v-9.6h4.9v9c0 1.6.2 2.7.6 3.4s1.2 1 2.3 1h1.1c.4 0 .7-.1 1-.1V32.6h4.9v16.6zM208.5 41.2c0-1.2.2-2.4.6-3.5.4-1.1 1-2.1 1.7-2.9.8-.8 1.7-1.5 2.8-1.9 1.1-.5 2.3-.7 3.7-.7.9 0 1.8.1 2.5.2.8.2 1.5.4 2.2.7l-1 3.9c-.5-.2-1-.3-1.5-.5-.5-.1-1.2-.2-1.8-.2-1.4 0-2.5.4-3.2 1.3s-1.1 2.1-1.1 3.5c0 1.5.3 2.7 1 3.6.7.8 1.8 1.3 3.5 1.3.6 0 1.2-.1 1.9-.2s1.3-.3 1.9-.5l.7 4c-.6.2-1.3.4-2.1.6-.8.2-1.8.3-2.8.3-1.6 0-2.9-.2-4.1-.7-1.1-.5-2.1-1.1-2.8-1.9-.7-.8-1.3-1.8-1.6-2.9s-.5-2.2-.5-3.5zM225.5 28.3l4.9-.8v5.1h5.8v4.1h-5.8v6c0 1 .2 1.8.5 2.5.4.6 1.1.9 2.2.9.5 0 1.1 0 1.6-.1s1.1-.2 1.5-.4l.7 3.8c-.6.2-1.2.4-2 .6-.7.2-1.6.3-2.6.3-1.3 0-2.4-.2-3.3-.5s-1.6-.9-2.1-1.5-.9-1.4-1.1-2.3c-.2-.9-.3-1.9-.3-3V28.3zM136.1 74c0 2-.3 3.7-.9 5.1-.6 1.5-1.5 2.7-2.6 3.6-1.1 1-2.5 1.7-4.1 2.2-1.6.5-3.4.7-5.4.7-.9 0-2 0-3.2-.1-1.2-.1-2.4-.2-3.6-.5V63c1.2-.2 2.4-.4 3.7-.4 1.3-.1 2.4-.1 3.3-.1 1.9 0 3.7.2 5.3.7 1.6.4 2.9 1.1 4.1 2.1 1.1.9 2 2.1 2.6 3.6s.8 3 .8 5.1zm-14.7 7.2H123.3c2.5 0 4.4-.6 5.7-1.9 1.2-1.3 1.8-3.1 1.8-5.3 0-2.4-.6-4.2-1.8-5.4-1.2-1.2-3-1.8-5.6-1.8h-1.1c-.4 0-.7 0-1 .1v14.3zM139.2 76.8c0-1.5.2-2.9.7-4 .5-1.1 1.1-2.1 1.8-2.9.8-.8 1.6-1.3 2.6-1.7s2-.6 3.1-.6c2.4 0 4.4.7 5.8 2.2 1.4 1.5 2.1 3.7 2.1 6.6v.9c0 .3 0 .6-.1.9h-11c.1 1 .6 1.8 1.4 2.4.8.6 1.9.9 3.3.9.9 0 1.8-.1 2.6-.2.9-.2 1.6-.4 2.1-.6l.7 4c-.3.1-.6.3-1 .4-.4.1-.9.2-1.5.3-.5.1-1.1.2-1.7.2-.6.1-1.2.1-1.8.1-1.5 0-2.9-.2-4-.7-1.1-.5-2.1-1.1-2.8-1.9-.8-.8-1.3-1.7-1.7-2.8-.4-1-.6-2.2-.6-3.5zm11.5-1.8c0-.4-.1-.8-.2-1.2-.1-.4-.3-.7-.6-1-.3-.3-.6-.6-.9-.8-.4-.2-.9-.3-1.4-.3-.5 0-1 .1-1.4.3-.4.2-.7.4-1 .7-.3.3-.5.7-.6 1.1l-.3 1.2h6.4zM163.8 85.3c-1.1-2.2-2.2-4.7-3.4-7.6-1.1-2.9-2.2-6.1-3.3-9.5h5.2c.2.8.5 1.8.8 2.8l.9 3c.3 1 .6 2 1 3 .3 1 .6 1.8.9 2.6.3-.8.6-1.7.9-2.6.3-1 .7-1.9 1-3l.9-3c.3-1 .6-1.9.8-2.8h5c-1 3.4-2.1 6.6-3.3 9.5-1.1 2.9-2.3 5.5-3.4 7.6h-4zM175.9 76.8c0-1.5.2-2.9.7-4s1.1-2.1 1.8-2.9c.8-.8 1.6-1.3 2.6-1.7s2-.6 3.1-.6c2.4 0 4.4.7 5.8 2.2 1.4 1.5 2.1 3.7 2.1 6.6v.9c0 .3 0 .6-.1.9h-11c.1 1 .6 1.8 1.4 2.4.8.6 1.9.9 3.3.9.9 0 1.8-.1 2.6-.2.9-.2 1.6-.4 2.1-.6l.7 4c-.3.1-.6.3-1 .4-.4.1-.9.2-1.5.3-.5.1-1.1.2-1.7.2-.6.1-1.2.1-1.8.1-1.5 0-2.9-.2-4-.7-1.1-.5-2.1-1.1-2.8-1.9-.8-.8-1.3-1.7-1.7-2.8-.5-1-.6-2.2-.6-3.5zm11.4-1.8c0-.4-.1-.8-.2-1.2s-.3-.7-.6-1c-.2-.3-.6-.6-.9-.8-.4-.2-.9-.3-1.4-.3-.5 0-1 .1-1.4.3-.4.2-.7.4-1 .7-.3.3-.5.7-.6 1.1l-.3 1.2h6.4zM202.6 85.6c-1.4 0-2.6-.2-3.4-.5-.9-.3-1.6-.7-2.1-1.2s-.9-1.1-1-1.9c-.2-.7-.3-1.6-.3-2.5V60.7l4.9-.8v18.7c0 .4 0 .8.1 1.2.1.3.2.6.4.9.2.2.5.4.8.6.3.2.8.3 1.4.3l-.8 4zM222.2 76.7c0 1.4-.2 2.6-.6 3.7-.4 1.1-1 2.1-1.7 2.9-.7.8-1.6 1.4-2.7 1.8-1 .4-2.2.7-3.5.7-1.3 0-2.4-.2-3.4-.7-1-.4-1.9-1.1-2.7-1.8-.7-.8-1.3-1.8-1.7-2.9s-.6-2.4-.6-3.7c0-1.4.2-2.6.6-3.7s1-2.1 1.8-2.8 1.6-1.4 2.7-1.8c1-.4 2.2-.7 3.4-.7 1.2 0 2.4.2 3.4.7 1 .4 1.9 1 2.7 1.8.7.8 1.3 1.7 1.7 2.8.4 1.1.6 2.3.6 3.7zm-5 0c0-1.5-.3-2.7-.9-3.5-.6-.9-1.5-1.3-2.6-1.3s-2 .4-2.6 1.3c-.6.9-.9 2-.9 3.5s.3 2.7.9 3.6c.6.9 1.5 1.3 2.6 1.3s2-.4 2.6-1.3c.6-.9.9-2.1.9-3.6zM241.9 76.7c0 1.3-.2 2.5-.5 3.6s-.8 2-1.4 2.8-1.4 1.4-2.4 1.8-2 .7-3.2.7c-.7 0-1.3-.1-1.9-.2-.6-.1-1.2-.3-1.7-.6v6.5h-4.9V68.7c.4-.1.9-.3 1.5-.4l1.8-.3c.6-.1 1.3-.2 1.9-.2.6-.1 1.3-.1 1.8-.1 1.4 0 2.7.2 3.8.6 1.1.4 2 1 2.8 1.8.8.8 1.3 1.7 1.7 2.8s.7 2.4.7 3.8zm-5 .1c0-1.5-.3-2.7-1-3.6-.7-.9-1.7-1.4-3-1.4h-1.2c-.4 0-.7.1-.9.1v8.8c.3.2.7.4 1.2.5.5.1 1 .2 1.5.2 2.3.1 3.4-1.4 3.4-4.6zM255.1 76.2c0-1.6-.2-2.7-.6-3.3-.4-.7-1.1-1-2.1-1h-.9c-.3 0-.6.1-.9.1v13.3h-4.9V68.7c.4-.1.9-.2 1.5-.3.6-.1 1.1-.2 1.8-.3.6-.1 1.3-.2 1.9-.2.7-.1 1.3-.1 1.9-.1 1.2 0 2.2.2 3 .5.8.3 1.4.7 1.9 1.1.7-.5 1.5-.9 2.4-1.2.9-.3 1.7-.4 2.5-.4 1.4 0 2.5.2 3.4.6.9.4 1.6.9 2.1 1.6.5.7.9 1.5 1.1 2.5.2 1 .3 2 .3 3.2v9.7h-4.9v-9.1c0-1.6-.2-2.7-.6-3.3-.4-.7-1.1-1-2.1-1-.3 0-.6.1-1.1.2-.5.1-.9.3-1.2.5.2.5.2 1 .3 1.6 0 .6.1 1.1.1 1.8v9.4h-4.9v-9.3zM273 76.8c0-1.5.2-2.9.7-4s1.1-2.1 1.8-2.9c.8-.8 1.6-1.3 2.6-1.7s2-.6 3.1-.6c2.4 0 4.4.7 5.8 2.2 1.4 1.5 2.1 3.7 2.1 6.6v.9c0 .3 0 .6-.1.9h-11c.1 1 .6 1.8 1.4 2.4.8.6 1.9.9 3.3.9.9 0 1.8-.1 2.6-.2.9-.2 1.6-.4 2.1-.6l.7 4c-.3.1-.6.3-1 .4-.4.1-.9.2-1.5.3-.5.1-1.1.2-1.7.2-.6.1-1.2.1-1.8.1-1.5 0-2.9-.2-4-.7-1.1-.5-2.1-1.1-2.8-1.9-.8-.8-1.3-1.7-1.7-2.8-.4-1-.6-2.2-.6-3.5zm11.4-1.8c0-.4-.1-.8-.2-1.2s-.3-.7-.6-1c-.2-.3-.6-.6-.9-.8-.4-.2-.9-.3-1.4-.3-.5 0-1 .1-1.4.3-.4.2-.7.4-1 .7-.3.3-.5.7-.6 1.1L278 75h6.4zM292.9 68.7c.8-.2 1.9-.5 3.2-.7 1.3-.2 2.7-.3 4.1-.3 1.5 0 2.7.2 3.6.6 1 .4 1.7.9 2.3 1.6s1 1.5 1.2 2.5c.2 1 .4 2 .4 3.2v9.7h-4.9v-9.1c0-1.6-.2-2.7-.6-3.3-.4-.7-1.2-1-2.3-1h-1.1c-.4 0-.7.1-1 .1v13.3h-4.9V68.7zM312 63.8l4.9-.8v5.1h5.8v4.1h-5.8v6c0 1 .2 1.8.5 2.5.4.6 1.1.9 2.2.9.5 0 1.1 0 1.6-.1s1.1-.2 1.5-.4l.7 3.8c-.6.2-1.2.4-2 .6-.7.2-1.6.3-2.6.3-1.3 0-2.4-.2-3.3-.5s-1.6-.9-2.1-1.5-.9-1.4-1.1-2.3c-.2-.9-.3-1.9-.3-3V63.8zM136.1 109.5c0 2-.3 3.7-.9 5.1-.6 1.5-1.5 2.7-2.6 3.6-1.1 1-2.5 1.7-4.1 2.2-1.6.5-3.4.7-5.4.7-.9 0-2 0-3.2-.1-1.2-.1-2.4-.2-3.6-.5v-22c1.2-.2 2.4-.4 3.7-.4 1.3-.1 2.4-.1 3.3-.1 1.9 0 3.7.2 5.3.7 1.6.4 2.9 1.1 4.1 2.1 1.1.9 2 2.1 2.6 3.6s.8 3 .8 5.1zm-14.7 7.2H123.3c2.5 0 4.4-.6 5.7-1.9 1.2-1.3 1.8-3.1 1.8-5.3 0-2.4-.6-4.2-1.8-5.4-1.2-1.2-3-1.8-5.6-1.8h-1.1c-.4 0-.7 0-1 .1v14.3zM146.2 103.2c1.4 0 2.6.2 3.6.5s1.7.8 2.3 1.4c.6.6 1 1.4 1.2 2.2.2.9.4 1.8.4 2.9v10.1c-.7.2-1.7.3-2.9.5s-2.7.3-4.5.3c-1.1 0-2.1-.1-3-.3-.9-.2-1.7-.5-2.3-1-.7-.4-1.2-1-1.5-1.7-.3-.7-.5-1.6-.5-2.6s.2-1.9.6-2.5c.4-.7.9-1.3 1.6-1.7.7-.4 1.4-.7 2.3-.9.9-.2 1.8-.3 2.7-.3.6 0 1.2 0 1.7.1s.9.1 1.2.2v-.4c0-.8-.3-1.5-.8-2s-1.4-.8-2.6-.8c-.8 0-1.6.1-2.5.2-.8.1-1.5.3-2.1.5l-.6-3.9c.3-.1.6-.2 1.1-.3s.9-.2 1.4-.3c.5-.1 1-.1 1.6-.2h1.6zm.4 14.2h1.4c.4 0 .8-.1 1-.1v-3.7c-.2 0-.5-.1-.9-.1s-.8-.1-1.1-.1c-.5 0-.9 0-1.3.1s-.8.2-1.1.3c-.3.2-.5.4-.7.6-.2.3-.3.6-.3 1 0 .8.3 1.3.8 1.6.6.3 1.3.4 2.2.4zM173 103.6c-1 3.3-2 6.4-3.1 9.3-1.1 2.9-2.2 5.7-3.5 8.4-.5 1-.9 1.8-1.4 2.5-.5.7-1 1.3-1.5 1.7s-1.2.8-1.8 1-1.5.3-2.4.3c-.8 0-1.5-.1-2.1-.2-.6-.1-1.2-.3-1.6-.5l.8-3.9c.5.2.9.3 1.3.4s.8.1 1.2.1c.9 0 1.5-.2 2-.7.5-.5.9-1.1 1.2-1.9-1.1-2.2-2.2-4.6-3.3-7.3-1.1-2.7-2.2-5.8-3.1-9.1h5.2c.2.8.5 1.8.8 2.8l.9 3c.3 1 .7 2 1 3 .3 1 .7 1.8 1 2.6.3-.8.6-1.7.9-2.6.3-1 .6-1.9.9-3l.9-3c.3-1 .5-1.9.7-2.8h5zM180.5 117.3c.9 0 1.5-.1 1.9-.3.4-.2.6-.5.6-1 0-.4-.2-.7-.7-1-.5-.3-1.2-.6-2.2-1-.8-.3-1.5-.6-2.1-.9-.6-.3-1.1-.7-1.6-1.1-.4-.4-.8-.9-1-1.5-.2-.6-.4-1.3-.4-2.1 0-1.6.6-2.9 1.8-3.8 1.2-.9 2.8-1.4 4.9-1.4 1 0 2 .1 3 .3 1 .2 1.7.4 2.3.6l-.8 3.8c-.6-.2-1.2-.4-1.8-.5s-1.4-.2-2.2-.2c-1.5 0-2.3.4-2.3 1.3 0 .2 0 .4.1.5s.2.3.4.4.5.3.8.5c.3.2.8.3 1.3.5 1.1.4 1.9.8 2.6 1.2.7.4 1.2.8 1.6 1.2s.7.9.8 1.5c.2.5.2 1.2.2 1.9 0 1.7-.6 3-1.9 3.8s-3.1 1.3-5.4 1.3c-1.5 0-2.8-.1-3.8-.4s-1.7-.5-2.1-.7l.8-4c.8.3 1.7.6 2.5.8 1 .2 1.9.3 2.7.3zM115.2 172.2l6.4-16.1h1.7l6.4 16.1h-1.9l-1.9-5H119l-1.9 5h-1.9zm4.5-6.7h5.6l-2.8-7.4-2.8 7.4zM132.8 172.2v-16.6h1.7v16.6h-1.7zM139.3 172.2v-16.6h1.7v16.6h-1.7zM152.1 161.8v-1.6h2.1v-3.4h1.7v3.4h3.1v1.6h-3.1v7.3c0 .6.1 1 .4 1.3.3.2.7.4 1.4.4.5 0 1-.1 1.4-.3v1.6c-.5.2-1 .3-1.5.3h-.1c-.3 0-.6 0-.9-.1-.3-.1-.7-.2-1-.4s-.7-.6-.9-1-.4-1.1-.4-1.8v-7.3h-2.2zM162.1 172.2v-16.6h1.7v5.1c1.2-.5 2.4-.8 3.6-.8 1.5 0 2.6.4 3.4 1.3s1.2 2.2 1.2 3.8v7.1h-1.7V165c0-2.3-1-3.4-3.1-3.4-1.1 0-2.3.2-3.4.7v9.8h-1.7zM175.3 166.3v-.2c0-4.1 1.8-6.2 5.3-6.2.7 0 1.4.1 2 .3.6.2 1.1.5 1.4.8s.7.7.9 1.2c.3.5.5.9.6 1.3s.2.8.3 1.3c.1.5.1.8.1.9v1.3H177c.1 1.2.5 2.1 1.1 2.6.6.5 1.6.8 2.8.8 1.7 0 3.1-.3 4.1-.9v1.8c-1.2.6-2.6.8-4.2.8h-.1c-.7 0-1.4-.1-1.9-.3s-1.2-.5-1.7-.9c-.6-.4-1-1-1.3-1.9-.3-.4-.5-1.5-.5-2.7zm1.7-.6h7.1c0-.3 0-.6-.1-.9-.1-.3-.2-.8-.4-1.3s-.6-1-1.1-1.3c-.5-.4-1.2-.5-1.9-.5-1.2 0-2.1.3-2.6.9-.6.5-.9 1.6-1 3.1zM196.8 160.4c0-1.2.5-2.3 1.4-3.2.9-.9 2.3-1.3 4.2-1.3 1.4 0 2.7.3 4 1v1.8c-1.2-.7-2.5-1-3.9-1-1.3 0-2.3.2-3 .7-.7.5-1 1.2-1 2 0 .5.2 1 .7 1.4.4.4 1 .6 1.6.8.7.2 1.4.4 2.1.7.8.3 1.5.6 2.1.9s1.2.8 1.6 1.5c.4.7.7 1.5.7 2.5 0 1.3-.5 2.4-1.5 3.1-1 .8-2.4 1.1-4.2 1.1-1.8 0-3.3-.4-4.8-1.1v-1.9c1.3.9 2.8 1.3 4.6 1.3 2.7 0 4.1-.9 4.1-2.6 0-.7-.2-1.3-.7-1.8-.4-.5-1-.9-1.6-1.1l-2.1-.7c-.8-.3-1.5-.5-2.1-.8-.7-.3-1.2-.7-1.6-1.2-.4-.6-.6-1.3-.6-2.1zM211.1 172.2v-16.6h1.7v10.5l5.4-5.9h2.4l-5.1 5.5 5.8 6.5H219l-4.6-5.3-1.5 1.6v3.7h-1.8zM224.4 158v-1.9h1.9v1.9h-1.9zm.1 14.2h1.7v-12.1h-1.7v12.1zM231 172.2v-16.6h1.7v16.6H231zM237.5 172.2v-16.6h1.7v16.6h-1.7zM242.7 163.4c0-1 .4-1.8 1.1-2.5.7-.7 1.8-1 3.2-1 1 0 2.1.2 3.1.7v1.7c-.9-.6-1.9-.8-2.9-.8-1.8 0-2.7.6-2.7 1.8 0 .4.2.8.7 1 .4.3 1 .5 1.6.6.6.2 1.3.4 1.9.6s1.2.6 1.6 1.2.7 1.3.7 2.2c0 1-.4 1.9-1.2 2.5-.8.6-1.9.9-3.2.9-1.3 0-2.6-.3-3.6-.9v-1.8c1.2.7 2.3 1.1 3.6 1.1 1.8 0 2.7-.6 2.7-1.7 0-.6-.2-1.1-.7-1.4s-1-.6-1.6-.8c-.6-.2-1.3-.4-1.9-.6s-1.2-.5-1.6-1c-.6-.4-.8-1-.8-1.8zM115 181.7h2.1l4.8 7 4.8-7h2.1l-6 8.7v7.4H121v-7.4l-6-8.7zM131 194.9c-.3-.9-.5-1.9-.5-3.1s.2-2.3.5-3.1c.3-.9.8-1.5 1.4-1.9.6-.4 1.2-.7 1.8-.9.6-.2 1.3-.3 2-.3s1.4.1 2 .3c.6.2 1.2.5 1.8.9.6.4 1 1.1 1.4 1.9.3.9.5 1.9.5 3.1s-.2 2.3-.5 3.1c-.3.9-.8 1.5-1.4 1.9-.6.4-1.2.7-1.8.9-.6.2-1.3.3-2 .3s-1.4-.1-2-.3c-.6-.2-1.2-.5-1.8-.9-.6-.4-1.1-1.1-1.4-1.9zm2.1-6.7c-.6.7-.9 1.9-.9 3.5s.3 2.8.9 3.5c.6.7 1.6 1.1 3 1.1s2.4-.4 3-1.1.9-1.9.9-3.5-.3-2.8-.9-3.5c-.6-.7-1.6-1.1-3-1.1s-2.3.4-3 1.1zM145 192.7v-7h1.7v7.1c0 1.2.3 2.1.8 2.7.5.6 1.4.9 2.5.9s2-.3 2.5-.9c.5-.6.8-1.5.8-2.7v-7.1h1.7v7c0 1.7-.4 3-1.3 3.9-.9.9-2.1 1.4-3.7 1.4s-2.9-.5-3.7-1.4c-.9-.9-1.3-2.2-1.3-3.9zM167.6 197.8v-16.1h2l9.6 13.6v-13.6h1.7v16.1h-2l-9.6-13.6v13.6h-1.7zM184.4 191.9v-.2c0-4.1 1.8-6.2 5.3-6.2.7 0 1.4.1 2 .3.6.2 1.1.5 1.4.8s.7.7.9 1.2c.3.5.5.9.6 1.3s.2.8.3 1.3c.1.5.1.8.1.9v1.3h-8.8c.1 1.2.5 2.1 1.1 2.6.6.5 1.6.8 2.8.8 1.7 0 3.1-.3 4.1-.9v1.8c-1.2.6-2.6.8-4.2.8h-.1c-.7 0-1.4-.1-1.9-.3s-1.2-.5-1.7-.9c-.6-.4-1-1-1.3-1.9-.4-.5-.6-1.5-.6-2.7zm1.8-.7h7.1c0-.3 0-.6-.1-.9-.1-.3-.2-.8-.4-1.3s-.6-1-1.1-1.3c-.5-.4-1.2-.5-1.9-.5-1.2 0-2.1.3-2.6.9-.6.6-.9 1.7-1 3.1zM197.7 191.9v-.2c0-4.1 1.8-6.2 5.3-6.2.7 0 1.4.1 2 .3.6.2 1.1.5 1.4.8s.7.7.9 1.2c.3.5.5.9.6 1.3s.2.8.3 1.3c.1.5.1.8.1.9v1.3h-8.8c.1 1.2.5 2.1 1.1 2.6.6.5 1.6.8 2.8.8 1.7 0 3.1-.3 4.1-.9v1.8c-1.2.6-2.6.8-4.2.8h-.1c-.7 0-1.4-.1-1.9-.3s-1.2-.5-1.7-.9c-.6-.4-1-1-1.3-1.9-.4-.5-.6-1.5-.6-2.7zm1.8-.7h7.1c0-.3 0-.6-.1-.9-.1-.3-.2-.8-.4-1.3s-.6-1-1.1-1.3c-.5-.4-1.2-.5-1.9-.5-1.2 0-2.1.3-2.6.9-.6.6-1 1.7-1 3.1zM211 191.6c0-1.2.2-2.2.5-3 .3-.8.8-1.5 1.3-1.9.6-.4 1.2-.7 1.7-.9s1.2-.3 1.9-.3c1.1 0 2.1.2 3 .5v-4.9h1.7v13c0 .3 0 .7-.1 1-.1.3-.3.7-.6 1.2s-.8.8-1.5 1.1c-.7.3-1.6.4-2.7.4-.4 0-.9 0-1.3-.1s-.9-.3-1.4-.5-.9-.6-1.3-1.1c-.4-.4-.7-1.1-.9-1.9-.2-.6-.3-1.5-.3-2.6zm1.7 0c0 1 .1 1.9.3 2.5.2.7.5 1.2.9 1.5.4.3.8.5 1.1.6.4.1.8.2 1.2.2 2.1 0 3.2-.7 3.2-2.1v-6.5c-1-.4-2-.6-3-.6-1.3 0-2.3.4-2.9 1.1-.5.6-.8 1.8-.8 3.3z"/><g><defs><path id="SVGID_3_" d="M-124.7-315.2h595.3v841.9h-595.3z"/></defs><clipPath id="SVGID_4_"><use xlink:href="#SVGID_3_" overflow="visible"/></clipPath><path class="st2" d="M49.2 64.9c.3-.5.5-1.1.5-1.7 0-.6-.2-1.2-.5-1.7-.6-1-1.7-1.7-3-1.7H28.8c-1.9 0-3.5 1.5-3.5 3.4 0 1.5 1 2.8 2.4 3.2-.2.5-.4 1-.4 1.6 0 1.2.6 2.2 1.6 2.8-.4.6-.6 1.2-.6 1.9 0 1.9 1.6 3.4 3.5 3.4H34v7.2h-8.2c-4.1 0-7.9 1.6-10.8 4.5-2.9 2.9-4.4 6.7-4.4 10.8 0 4.1 1.6 7.9 4.4 10.7 2.9 2.9 6.7 4.4 10.8 4.4 4.1 0 7.9-1.6 10.8-4.4 2.9-2.9 4.4-6.7 4.5-10.7v-8.2h8.2v-2H25.8c-2.7 0-5.3 1.1-7.2 3-1.9 1.9-3 4.5-3 7.2s1.1 5.3 3 7.2c2 2 4.6 3 7.2 3 2.6 0 5.2-1 7.2-3 1.9-1.9 3-4.5 3-7.2v-8.2h3v8.2c0 3.5-1.4 6.8-3.9 9.3-2.5 2.5-5.8 3.8-9.3 3.8-3.5 0-6.8-1.4-9.3-3.8-2.5-2.5-3.8-5.8-3.8-9.3 0-3.5 1.4-6.8 3.8-9.3 2.5-2.5 5.8-3.9 9.3-3.9h23.4v-2H41v-7.2h2.3c1.9 0 3.5-1.5 3.5-3.4 0-.7-.2-1.4-.6-1.9.9-.6 1.6-1.7 1.6-2.8 0-.6-.2-1.1-.4-1.6.7-.4 1.4-.9 1.8-1.6M34 98.6c0 2.2-.9 4.2-2.4 5.8-3.2 3.2-8.4 3.2-11.6 0-1.5-1.5-2.4-3.6-2.4-5.8 0-2.2.9-4.3 2.4-5.8 1.5-1.6 3.6-2.4 5.8-2.4H34v8.2zm2.1-15.2v-7.2H39v7.2h-2.9zm10.1-18.9h-2c-.6 0-1 .5-1 1 0 .6.5 1 1 1 .8 0 1.5.6 1.5 1.4 0 .8-.7 1.4-1.5 1.4h-.9c-.6 0-1 .5-1 1 0 .6.5 1 1 1 .8 0 1.5.6 1.5 1.4 0 .8-.7 1.4-1.5 1.4H31.8c-.8 0-1.5-.6-1.5-1.4 0-.8.7-1.4 1.5-1.4.6 0 1-.5 1-1 0-.6-.5-1-1-1h-.9c-.8 0-1.5-.6-1.5-1.4 0-.8.7-1.4 1.5-1.4.6 0 1-.5 1-1 0-.6-.5-1-1-1h-2c-.8 0-1.5-.6-1.5-1.4 0-.8.7-1.4 1.5-1.4h17.4c.8 0 1.5.6 1.5 1.4-.1.8-.8 1.4-1.6 1.4"/><path class="st3" d="M83.4 64.4c-2.9-2.9-6.7-4.4-10.8-4.4-4.1 0-7.9 1.6-10.8 4.4-2.9 2.9-4.5 6.7-4.5 10.8v8.2h-8.2v2h23.4c2.7 0 5.3-1.1 7.2-3 1.9-1.9 3-4.5 3-7.2s-1.1-5.3-3-7.2c-4-4-10.5-4-14.5 0-1.9 1.9-3 4.5-3 7.2v8.2h-2.9v-8.2c0-3.5 1.4-6.8 3.9-9.3 2.5-2.5 5.8-3.8 9.3-3.8 3.5 0 6.8 1.4 9.3 3.8 5.1 5.1 5.1 13.5 0 18.6-2.5 2.5-5.8 3.9-9.3 3.9H49.2v2h8.2v8.2h2v-8.2h2.9v8.2h2v-8.2h8.2c4.1 0 7.9-1.6 10.8-4.5 6-5.9 6-15.6.1-21.5m-16.6 4.9c3.2-3.2 8.4-3.2 11.6 0 1.5 1.5 2.4 3.6 2.4 5.8 0 2.2-.9 4.3-2.4 5.8-1.6 1.5-3.6 2.4-5.8 2.4h-8.2v-8.2c0-2.1.9-4.2 2.4-5.8"/><path class="st4" d="M64.5 106.8v-8.2h-2v8.2h-2.9v-8.2h-2v8.2h-8.2c-4 0-7.9 1.6-10.7 4.5-5.9 5.9-5.9 15.6 0 21.5 3 3 6.8 4.4 10.7 4.4 3.9 0 7.8-1.5 10.8-4.4 2.9-2.9 4.5-6.7 4.5-10.8v-8.2H72v-7h-7.5zm7.1 5H49.3c-2.7 0-5.3 1.1-7.2 3-1.9 1.9-3 4.5-3 7.2s1.1 5.3 3 7.2c2 2 4.6 3 7.2 3 2.6 0 5.3-1 7.3-3 1.9-1.9 3-4.5 3-7.2v-8.2h2.9v8.2c0 3.5-1.4 6.8-3.9 9.3-2.6 2.6-6 3.9-9.3 3.8-3.4 0-6.7-1.3-9.3-3.8-5.1-5.1-5.1-13.5 0-18.6 2.5-2.5 5.8-3.8 9.3-3.9h22.4v3zM57.5 122c0 2.2-.9 4.3-2.4 5.8-1.6 1.6-3.7 2.4-5.8 2.4-2.1 0-4.2-.8-5.8-2.4-1.5-1.5-2.4-3.6-2.4-5.8 0-2.2.9-4.3 2.4-5.8s3.6-2.4 5.8-2.4h8.2v8.2z"/><path class="st5" d="M116.3 140.4c-.6 0-1 .5-1 1s.5 1 1 1h39.8v-2h-39.8z"/><path class="st6" d="M195.9 142.5c.6 0 1-.5 1-1s-.5-1-1-1h-39.8v2h39.8zM99.3 109.5c1.5 0 2.8-1.3 2.8-2.8v-1c0-1.5-1.3-2.8-2.8-2.8h-8.2v-2.4c0-.6-.5-1.1-1.1-1.1h-9.9c-2.1 0-3.7 1.3-3.7 2.9v.7h-3.7c-.1 0-.2 0-.3.1-.5.1-.8.5-.8 1v12.3c0 .1 0 .3.1.4.1.3.3.5.6.6h.1c.1 0 .2.1.3.1h3.7v.6c0 1.7 1.7 3 3.7 3H90c.6 0 1.1-.5 1.1-1.1v-2.2h8.2c1.5 0 2.8-1.3 2.8-2.8v-1c0-1.5-1.3-2.8-2.8-2.8h-8.2v-1.6h8.2zm-8.2-4.4h8.2c.4 0 .7.3.7.7v1c0 .4-.3.7-.7.7h-8.2v-2.4zm-14.7.1v10h-2.6v-10h2.6zM89 118.8h-8.9c-1 0-1.6-.5-1.6-.9v-15.6c0-.2.6-.7 1.6-.7H89v17.2zm10.3-5.5c.4 0 .7.3.7.7v1c0 .4-.3.7-.7.7h-8.2v-2.3h8.2z"/></g></svg>