<?xml version="1.0" encoding="iso-8859-1"?>
<!-- Generator: Adobe Illustrator 19.0.0, SVG Export Plug-In . SVG Version: 6.00 Build 0)  -->
<svg version="1.1" id="Layer_1" xmlns="http://www.w3.org/2000/svg" xmlns:xlink="http://www.w3.org/1999/xlink" x="0px" y="0px"
	 viewBox="0 0 480 480" style="enable-background:new 0 0 480 480;" xml:space="preserve">
<g>
	<g>
		<rect x="232" width="16" height="48"/>
	</g>
</g>
<g>
	<g>
		<rect x="383.71" y="60.011" transform="matrix(0.7071 -0.7071 0.7071 0.7071 72.5777 311.2406)" width="56.559" height="16"/>
	</g>
</g>
<g>
	<g>
		<rect x="59.995" y="39.715" transform="matrix(0.7071 -0.7071 0.7071 0.7071 -28.164 67.9949)" width="16" height="56.559"/>
	</g>
</g>
<g>
	<g>
		<rect x="39.71" y="403.968" transform="matrix(0.7071 -0.7071 0.7071 0.7071 -271.3917 168.7385)" width="56.559" height="16"/>
	</g>
</g>
<g>
	<g>
		<path d="M450.392,218.096C454.08,209.888,456,201.008,456,192c0-35.288-28.712-64-64-64c-4.104,0-8.192,0.4-12.232,1.192
			C370.44,104.584,346.896,88,320,88c-9.008,0-17.888,1.92-26.096,5.608C282.256,75.392,261.896,64,240,64
			s-42.256,11.392-53.904,29.608C177.888,89.92,169.008,88,160,88c-26.896,0-50.44,16.584-59.768,41.192
			C96.192,128.4,92.104,128,88,128c-35.288,0-64,28.712-64,64c0,9.008,1.92,17.888,5.608,26.096C11.392,229.752,0,250.104,0,272
			c0,35.288,28.712,64,64,64h122.808c-1.744,3.648-2.808,7.688-2.808,12c0,7.84,3.256,14.912,8.464,20
			c-5.208,5.088-8.464,12.16-8.464,20c0,7.84,3.256,14.912,8.464,20c-5.208,5.088-8.464,12.16-8.464,20
			c0,14.424,11.008,26.2,25.04,27.704C212.512,469.616,225.024,480,240,480s27.488-10.384,30.96-24.296
			C284.992,454.2,296,442.424,296,428c0-7.84-3.256-14.912-8.464-20c5.208-5.088,8.464-12.16,8.464-20c0-7.84-3.256-14.912-8.464-20
			c5.208-5.088,8.464-12.16,8.464-20c0-4.312-1.064-8.352-2.808-12H336.4c4.024,40.368,38.184,72,79.6,72c4.424,0,8-3.584,8-8
			v-64.496c31.52-3.952,56-30.928,56-63.504C480,250.104,468.608,229.752,450.392,218.096z M240,464c-5.896,0-11-3.24-13.776-8
			h27.552C251,460.76,245.896,464,240,464z M268,440h-56c-6.616,0-12-5.384-12-12c0-6.616,5.384-12,12-12h56c6.616,0,12,5.384,12,12
			C280,434.616,274.616,440,268,440z M268,400h-56c-6.616,0-12-5.384-12-12c0-6.616,5.384-12,12-12h56c6.616,0,12,5.384,12,12
			C280,394.616,274.616,400,268,400z M268,360h-56c-6.616,0-12-5.384-12-12c0-6.616,5.384-12,12-12h56c6.616,0,12,5.384,12,12
			C280,354.616,274.616,360,268,360z M206.4,234.224c1.552,1.528,3.576,2.296,5.6,2.296s4.048-0.768,5.6-2.296
			C226.888,225.112,232,212.96,232,200c0-2.208-0.2-4.384-0.496-6.536c-0.072-0.512-0.144-1.016-0.224-1.52
			c-0.36-2.12-0.816-4.208-1.448-6.248c-0.048-0.16-0.12-0.312-0.168-0.472c-0.616-1.904-1.376-3.752-2.224-5.56
			c-0.216-0.456-0.424-0.904-0.648-1.352c-0.96-1.872-2.016-3.704-3.216-5.448c-0.048-0.072-0.08-0.152-0.136-0.224
			c9.904-6.056,23.232-6.056,33.144,0c-0.048,0.072-0.08,0.152-0.136,0.224c-1.208,1.744-2.264,3.576-3.216,5.448
			c-0.232,0.448-0.44,0.896-0.648,1.352c-0.848,1.808-1.608,3.656-2.224,5.56c-0.048,0.16-0.12,0.312-0.168,0.472
			c-0.632,2.032-1.088,4.128-1.448,6.248c-0.088,0.504-0.16,1.008-0.224,1.52c-0.32,2.152-0.52,4.328-0.52,6.536
			c0,12.96,5.112,25.112,14.4,34.224c1.552,1.528,3.576,2.296,5.6,2.296c2.024,0,4.048-0.768,5.6-2.296
			C282.888,225.112,288,212.96,288,200c0-2.208-0.2-4.384-0.496-6.536c-0.072-0.512-0.144-1.016-0.224-1.52
			c-0.36-2.12-0.816-4.208-1.448-6.248c-0.048-0.16-0.12-0.312-0.168-0.472c-0.616-1.904-1.376-3.752-2.224-5.56
			c-0.216-0.456-0.424-0.904-0.648-1.352c-0.96-1.872-2.016-3.704-3.216-5.448c-0.048-0.072-0.08-0.152-0.136-0.224
			c11.992-7.32,28.68-5.552,38.968,4.544C324.584,183.272,328,191.376,328,200v19.72l-68.44,45.624
			c-2.224,1.488-3.56,3.984-3.56,6.656v48h-32v-48c0-2.672-1.336-5.168-3.56-6.656L152,219.728V200c0-17.648,14.352-32,32-32
			c5.92,0,11.616,1.616,16.568,4.648c-0.048,0.072-0.08,0.152-0.128,0.224c-1.208,1.744-2.264,3.576-3.216,5.448
			c-0.232,0.448-0.44,0.896-0.648,1.352c-0.848,1.808-1.608,3.656-2.224,5.56c-0.048,0.16-0.12,0.312-0.168,0.472
			c-0.632,2.032-1.088,4.128-1.448,6.248c-0.088,0.504-0.16,1.008-0.224,1.52C192.2,195.616,192,197.792,192,200
			C192,212.96,197.112,225.112,206.4,234.224z M208,200c0-1.92,0.232-3.808,0.56-5.656c0.072-0.416,0.152-0.84,0.24-1.248
			c0.4-1.8,0.92-3.56,1.616-5.248c0.096-0.24,0.232-0.464,0.336-0.696c0.352-0.792,0.832-1.528,1.248-2.296
			c0.416,0.768,0.896,1.504,1.248,2.296c0.104,0.224,0.232,0.448,0.336,0.688c0.696,1.696,1.216,3.456,1.616,5.248
			c0.088,0.416,0.168,0.832,0.24,1.256C215.768,196.2,216,198.08,216,200s-0.232,3.8-0.56,5.656c-0.072,0.424-0.152,0.84-0.24,1.256
			c-0.4,1.8-0.92,3.56-1.616,5.248c-0.096,0.232-0.224,0.456-0.328,0.688c-0.352,0.8-0.832,1.536-1.248,2.296
			c-0.416-0.768-0.896-1.504-1.248-2.296c-0.104-0.232-0.232-0.464-0.336-0.696c-0.696-1.696-1.216-3.456-1.616-5.248
			c-0.088-0.416-0.168-0.832-0.24-1.248C208.232,203.808,208,201.92,208,200z M264,200c0-1.92,0.232-3.808,0.56-5.656
			c0.072-0.416,0.152-0.84,0.24-1.248c0.4-1.8,0.92-3.56,1.616-5.248c0.096-0.24,0.232-0.464,0.336-0.696
			c0.352-0.792,0.832-1.528,1.248-2.296c0.416,0.768,0.896,1.504,1.248,2.296c0.104,0.224,0.232,0.448,0.336,0.688
			c0.696,1.696,1.216,3.456,1.616,5.248c0.088,0.416,0.168,0.832,0.24,1.256C271.768,196.2,272,198.08,272,200
			s-0.232,3.8-0.56,5.656c-0.072,0.424-0.152,0.84-0.24,1.256c-0.4,1.8-0.92,3.56-1.616,5.248c-0.096,0.232-0.224,0.456-0.328,0.688
			c-0.352,0.8-0.832,1.536-1.248,2.296c-0.416-0.768-0.896-1.504-1.248-2.296c-0.104-0.232-0.232-0.464-0.336-0.696
			c-0.696-1.696-1.216-3.456-1.616-5.248c-0.088-0.416-0.168-0.832-0.24-1.248C264.232,203.808,264,201.92,264,200z M416,320
			c-4.424,0-8,3.584-8,8v63.504c-31.52-3.952-56-30.928-56-63.504c0-4.416-3.576-8-8-8h-72v-43.72l68.44-45.624
			c2.224-1.488,3.56-3.984,3.56-6.656v-24c0-12.96-5.112-25.112-14.4-34.224l-5.6,5.704l5.6-5.712
			C320.552,156.888,308.624,152,296,152c-10.176,0-19.872,3.224-28,9.112c-8.128-5.888-17.824-9.112-28-9.112
			c-10.176,0-19.872,3.224-28,9.112c-8.128-5.888-17.824-9.112-28-9.112c-26.472,0-48,21.528-48,48v24.008
			c0,2.672,1.336,5.168,3.56,6.656L208,276.28V320H64c-26.472,0-48-21.528-48-48c0-18.52,10.88-35.576,27.736-43.456
			c2.064-0.968,3.616-2.768,4.272-4.952c0.656-2.184,0.344-4.544-0.848-6.496C42.48,209.504,40,200.824,40,192
			c0-26.472,21.528-48,48-48c5.088,0,10.168,0.832,15.096,2.464c2.128,0.712,4.456,0.488,6.4-0.6c1.96-1.088,3.368-2.944,3.896-5.12
			C118.6,119.112,137.768,104,160,104c8.832,0,17.504,2.472,25.104,7.152c1.936,1.192,4.272,1.512,6.496,0.848
			c2.176-0.656,3.984-2.208,4.952-4.28C204.416,90.88,221.48,80,240,80s35.584,10.88,43.456,27.728
			c0.968,2.064,2.776,3.624,4.952,4.28c2.208,0.664,4.552,0.344,6.496-0.848c7.592-4.688,16.264-7.16,25.096-7.16
			c22.232,0,41.4,15.112,46.608,36.744c0.528,2.176,1.936,4.032,3.896,5.12c1.952,1.088,4.28,1.32,6.4,0.6
			C381.832,144.832,386.912,144,392,144c26.472,0,48,21.528,48,48c0,8.824-2.48,17.504-7.16,25.096
			c-1.192,1.944-1.504,4.304-0.848,6.496c0.656,2.184,2.208,3.992,4.272,4.952C453.12,236.424,464,253.48,464,272
			C464,298.472,442.472,320,416,320z"/>
	</g>
</g>
<g>
	<g>
		<rect x="144" y="352" width="16" height="16"/>
	</g>
</g>
<g>
	<g>
		<rect x="112" y="352" width="16" height="16"/>
	</g>
</g>
<g>
	<g>
		<rect x="80" y="352" width="16" height="16"/>
	</g>
</g>
<g>
</g>
<g>
</g>
<g>
</g>
<g>
</g>
<g>
</g>
<g>
</g>
<g>
</g>
<g>
</g>
<g>
</g>
<g>
</g>
<g>
</g>
<g>
</g>
<g>
</g>
<g>
</g>
<g>
</g>
</svg>
