<?xml version="1.0" encoding="iso-8859-1"?>
<!-- Generator: Adobe Illustrator 19.0.0, SVG Export Plug-In . SVG Version: 6.00 Build 0)  -->
<svg version="1.1" id="Layer_1" xmlns="http://www.w3.org/2000/svg" xmlns:xlink="http://www.w3.org/1999/xlink" x="0px" y="0px"
	 viewBox="0 0 480 480" style="enable-background:new 0 0 480 480;" xml:space="preserve">
<g>
	<g>
		<path d="M140.8,278.4c2.016-1.504,3.2-3.88,3.2-6.4V96c0-4.424-3.576-8-8-8H8c-4.424,0-8,3.576-8,8v176
			c0,2.512,1.184,4.888,3.2,6.4L64,324v12.472C28.056,340.464,0,371,0,408c0,39.704,32.296,72,72,72s72-32.296,72-72
			c0-37-28.056-67.536-64-71.528V324L140.8,278.4z M112,104h16v164l-16,12V104z M32,280l-16-12V104h16V280z M128,408
			c0,30.872-25.128,56-56,56s-56-25.128-56-56s25.128-56,56-56S128,377.128,128,408z M72,310l-24-18V104h48v188L72,310z"/>
	</g>
</g>
<g>
	<g>
		<path d="M316.44,190.656c2.224-1.488,3.56-3.984,3.56-6.656V8c0-4.424-3.576-8-8-8H168c-4.424,0-8,3.576-8,8v176
			c0,2.672,1.336,5.168,3.56,6.656L232,236.28v25.504L211.472,296H168c-3.08,0-5.872,1.768-7.208,4.528
			c-1.328,2.776-0.96,6.064,0.96,8.472l28.008,35l-28.008,35c-1.92,2.408-2.288,5.696-0.96,8.472
			c1.336,2.76,4.128,4.528,7.208,4.528h43.472l21.672,36.12c1.44,2.4,4.04,3.88,6.856,3.88s5.416-1.48,6.856-3.88L268.528,392H312
			c3.08,0,5.872-1.768,7.208-4.528c1.328-2.776,0.96-6.064-0.96-8.472l-28.008-35l28.008-35c1.92-2.408,2.288-5.696,0.96-8.472
			C317.872,297.768,315.08,296,312,296h-43.472L248,261.784V236.28L316.44,190.656z M288,16h16v163.72l-16,10.664V16z M192,190.384
			l-16-10.664V16h16V190.384z M257.144,308.112c1.44,2.408,4.04,3.888,6.856,3.888h31.352l-21.6,27c-2.336,2.92-2.336,7.08,0,10
			l21.6,27H264c-2.816,0-5.416,1.48-6.856,3.88L240,408.456l-17.144-28.568c-1.44-2.408-4.04-3.888-6.856-3.888h-31.352l21.6-27
			c2.336-2.92,2.336-7.08,0-10l-21.6-27H216c2.816,0,5.416-1.48,6.856-3.88L240,279.544L257.144,308.112z M240,222.384l-32-21.336
			V16h64v185.048L240,222.384z"/>
	</g>
</g>
<g>
	<g>
		<path d="M72,368c-22.056,0-40,17.944-40,40c0,22.056,17.944,40,40,40c22.056,0,40-17.944,40-40C112,385.944,94.056,368,72,368z
			 M72,432c-13.232,0-24-10.768-24-24s10.768-24,24-24s24,10.768,24,24S85.232,432,72,432z"/>
	</g>
</g>
<g>
	<g>
		<path d="M476.8,278.4c2.016-1.504,3.2-3.88,3.2-6.4V96c0-4.424-3.576-8-8-8H344c-4.424,0-8,3.576-8,8v176
			c0,2.512,1.184,4.888,3.2,6.4L400,324v12.472C364.056,340.464,336,371,336,408c0,39.704,32.296,72,72,72c39.704,0,72-32.296,72-72
			c0-37-28.056-67.536-64-71.528V324L476.8,278.4z M448,104h16v164l-16,12V104z M368,280l-16-12V104h16V280z M464,408
			c0,30.872-25.128,56-56,56s-56-25.128-56-56s25.128-56,56-56S464,377.128,464,408z M408,310l-24-18V104h48v188L408,310z"/>
	</g>
</g>
<g>
	<g>
		<path d="M408,368c-22.056,0-40,17.944-40,40c0,22.056,17.944,40,40,40c22.056,0,40-17.944,40-40C448,385.944,430.056,368,408,368z
			 M408,432c-13.232,0-24-10.768-24-24s10.768-24,24-24s24,10.768,24,24S421.232,432,408,432z"/>
	</g>
</g>
<g>
	<g>
		<rect x="264" y="448" width="16" height="16"/>
	</g>
</g>
<g>
	<g>
		<rect x="232" y="448" width="16" height="16"/>
	</g>
</g>
<g>
	<g>
		<rect x="200" y="448" width="16" height="16"/>
	</g>
</g>
<g>
	<g>
		<rect x="232" y="32" width="16" height="16"/>
	</g>
</g>
<g>
	<g>
		<rect x="232" y="64" width="16" height="16"/>
	</g>
</g>
<g>
	<g>
		<rect x="232" y="96" width="16" height="16"/>
	</g>
</g>
<g>
	<g>
		<rect x="232" y="128" width="16" height="16"/>
	</g>
</g>
<g>
	<g>
		<rect x="232" y="160" width="16" height="16"/>
	</g>
</g>
<g>
	<g>
		<rect x="232" y="192" width="16" height="16"/>
	</g>
</g>
<g>
	<g>
		<rect x="432" y="56" width="16" height="16"/>
	</g>
</g>
<g>
	<g>
		<rect x="400" y="56" width="16" height="16"/>
	</g>
</g>
<g>
	<g>
		<rect x="368" y="56" width="16" height="16"/>
	</g>
</g>
<g>
	<g>
		<rect x="96" y="56" width="16" height="16"/>
	</g>
</g>
<g>
	<g>
		<rect x="64" y="56" width="16" height="16"/>
	</g>
</g>
<g>
	<g>
		<rect x="32" y="56" width="16" height="16"/>
	</g>
</g>
<g>
</g>
<g>
</g>
<g>
</g>
<g>
</g>
<g>
</g>
<g>
</g>
<g>
</g>
<g>
</g>
<g>
</g>
<g>
</g>
<g>
</g>
<g>
</g>
<g>
</g>
<g>
</g>
<g>
</g>
</svg>
