<?xml version="1.0" encoding="iso-8859-1"?>
<!-- Generator: Adobe Illustrator 19.0.0, SVG Export Plug-In . SVG Version: 6.00 Build 0)  -->
<svg version="1.1" id="Layer_1" xmlns="http://www.w3.org/2000/svg" xmlns:xlink="http://www.w3.org/1999/xlink" x="0px" y="0px"
	 viewBox="0 0 480 480" style="enable-background:new 0 0 480 480;" xml:space="preserve">
<g>
	<g>
		<path d="M176,32c-26.472,0-48,21.528-48,48s21.528,48,48,48s48-21.528,48-48S202.472,32,176,32z M176,112
			c-17.648,0-32-14.352-32-32s14.352-32,32-32s32,14.352,32,32S193.648,112,176,112z"/>
	</g>
</g>
<g>
	<g>
		<path d="M472,0H8C3.576,0,0,3.584,0,8v288c0,4.416,3.576,8,8,8h64v24.72c-22.664,3.832-40,23.544-40,47.28
			c0,16.688,8.568,31.392,21.52,40C40.568,424.608,32,439.312,32,456v24h16v-24c0-17.648,14.352-32,32-32s32,14.352,32,32v24h16v-24
			c0-17.648,14.352-32,32-32s32,14.352,32,32v24h16v-24c0-17.648,14.352-32,32-32s32,14.352,32,32v24h16v-24
			c0-17.648,14.352-32,32-32s32,14.352,32,32v24h16v-24c0-17.648,14.352-32,32-32s32,14.352,32,32v24h16v-24
			c0-16.688-8.568-31.392-21.52-40c12.96-8.608,21.52-23.312,21.52-40c0-23.736-17.336-43.448-40-47.28V304h64c4.424,0,8-3.584,8-8
			V8C480,3.584,476.424,0,472,0z M80,408c-17.648,0-32-14.352-32-32s14.352-32,32-32s32,14.352,32,32S97.648,408,80,408z
			 M169.76,197.008c1.512,1.888,3.808,2.992,6.24,2.992s4.728-1.104,6.248-3L213,158.56l54.144-23.208
			c0.752-0.32,1.448-0.752,2.056-1.28l50.376-43.176L332.688,104l-49.432,49.424l-62.832,31.416C217.712,186.2,216,188.968,216,192
			v64h-80v-64c0-2.12-0.84-4.16-2.344-5.656L70.992,123.68L50.32,61.664l16.696-4.168l21.496,57.32
			c0.496,1.304,1.304,2.448,2.368,3.336l47.384,39.488L169.76,197.008z M160.648,160h30.712L176,179.192L160.648,160z M392,272
			v56.72c-13.328,2.248-24.808,9.968-32,20.8c-8.608-12.96-23.312-21.52-40-21.52s-31.392,8.568-40,21.52
			c-8.608-12.96-23.312-21.52-40-21.52s-31.392,8.568-40,21.52c-8.608-12.96-23.312-21.52-40-21.52s-31.392,8.568-40,21.52
			c-7.192-10.832-18.672-18.552-32-20.8V272H392z M120,429.52c-3.56-5.36-8.16-9.96-13.52-13.52c5.36-3.56,9.96-8.16,13.52-13.52
			c3.56,5.36,8.16,9.96,13.52,13.52C128.16,419.56,123.56,424.16,120,429.52z M160,408c-17.648,0-32-14.352-32-32s14.352-32,32-32
			s32,14.352,32,32S177.648,408,160,408z M200,429.52c-3.56-5.36-8.16-9.96-13.52-13.52c5.36-3.56,9.96-8.16,13.52-13.52
			c3.56,5.36,8.16,9.96,13.52,13.52C208.16,419.56,203.56,424.16,200,429.52z M240,408c-17.648,0-32-14.352-32-32s14.352-32,32-32
			s32,14.352,32,32S257.648,408,240,408z M280,429.52c-3.56-5.36-8.16-9.96-13.52-13.52c5.36-3.56,9.96-8.16,13.52-13.52
			c3.56,5.36,8.16,9.96,13.52,13.52C288.16,419.56,283.56,424.16,280,429.52z M320,408c-17.648,0-32-14.352-32-32s14.352-32,32-32
			s32,14.352,32,32S337.648,408,320,408z M360,429.52c-3.56-5.36-8.16-9.96-13.52-13.52c5.36-3.56,9.96-8.16,13.52-13.52
			c3.56,5.36,8.16,9.96,13.52,13.52C368.16,419.56,363.56,424.16,360,429.52z M432,376c0,17.648-14.352,32-32,32s-32-14.352-32-32
			s14.352-32,32-32S432,358.352,432,376z M464,288h-56v-24c0-4.416-3.576-8-8-8H232v-59.056l59.576-29.792
			c0.768-0.384,1.472-0.888,2.08-1.504l56-56c3.128-3.128,3.128-8.184,0-11.312l-24-24c-2.96-2.96-7.696-3.144-10.856-0.416
			l-55.072,47.2L206.36,144h-59.464l-44.152-36.792L79.488,45.192c-1.432-3.808-5.496-5.936-9.432-4.952l-32,8
			c-2.168,0.536-4,1.96-5.08,3.912c-1.072,1.96-1.28,4.264-0.568,6.384l24,72c0.392,1.176,1.056,2.248,1.928,3.128L120,195.312V256
			H80c-4.424,0-8,3.584-8,8v24H16V16h448V288z"/>
	</g>
</g>
<g>
	<g>
		<rect x="256" y="40" width="184" height="16"/>
	</g>
</g>
<g>
	<g>
		<rect x="360" y="72" width="80" height="16"/>
	</g>
</g>
<g>
	<g>
		<rect x="368" y="104" width="72" height="16"/>
	</g>
</g>
<g>
	<g>
		<rect x="336" y="136" width="104" height="16"/>
	</g>
</g>
<g>
	<g>
		<rect x="304" y="168" width="136" height="16"/>
	</g>
</g>
<g>
	<g>
		<rect x="256" y="200" width="184" height="16"/>
	</g>
</g>
<g>
	<g>
		<rect x="360" y="288" width="16" height="16"/>
	</g>
</g>
<g>
	<g>
		<rect x="328" y="288" width="16" height="16"/>
	</g>
</g>
<g>
	<g>
		<rect x="296" y="288" width="16" height="16"/>
	</g>
</g>
<g>
</g>
<g>
</g>
<g>
</g>
<g>
</g>
<g>
</g>
<g>
</g>
<g>
</g>
<g>
</g>
<g>
</g>
<g>
</g>
<g>
</g>
<g>
</g>
<g>
</g>
<g>
</g>
<g>
</g>
</svg>
