<?xml version="1.0" encoding="iso-8859-1"?>
<!-- Generator: Adobe Illustrator 19.0.0, SVG Export Plug-In . SVG Version: 6.00 Build 0)  -->
<svg version="1.1" id="Layer_1" xmlns="http://www.w3.org/2000/svg" xmlns:xlink="http://www.w3.org/1999/xlink" x="0px" y="0px"
	 viewBox="0 0 480 480" style="enable-background:new 0 0 480 480;" xml:space="preserve">
<g>
	<g>
		<path d="M448,160h-72v-56V40c0-22.056-17.944-40-40-40H144c-22.056,0-40,17.944-40,40v64v56H32c-17.648,0-32,14.352-32,32
			s14.352,32,32,32h416c17.648,0,32-14.352,32-32S465.648,160,448,160z M120,40c0-13.232,10.768-24,24-24h192
			c13.232,0,24,10.768,24,24v56H120V40z M120,112h240v48H120V112z M448,208H32c-8.824,0-16-7.176-16-16c0-8.824,7.176-16,16-16h80
			h256h80c8.824,0,16,7.176,16,16C464,200.824,456.824,208,448,208z"/>
	</g>
</g>
<g>
	<g>
		<path d="M160,248c-35.288,0-64,28.712-64,64c0,35.288,28.712,64,64,64c35.288,0,64-28.712,64-64C224,276.712,195.288,248,160,248z
			 M160,360c-26.472,0-48-21.528-48-48s21.528-48,48-48s48,21.528,48,48S186.472,360,160,360z"/>
	</g>
</g>
<g>
	<g>
		<path d="M64,304c-22.056,0-40,17.944-40,40v128h16V344c0-13.232,10.768-24,24-24h32v-8v-8H64z"/>
	</g>
</g>
<g>
	<g>
		<path d="M414.384,428.936c-1.96-3.488-6.216-5-9.944-3.496c-22,8.8-47.168,5.064-65.672-9.736l-32.144-25.72
			c-11.056-8.848-26.392-10.48-39.064-4.136c-8.328,4.168-14.688,11.272-17.904,20.016c-2.464,6.696-2.168,14.328,0.816,21.504
			c9.512,22.84,28.424,40.424,51.896,48.248c8.824,2.936,17.944,4.384,27.016,4.384c18.264,0,36.32-5.856,51.32-17.104l31.512-23.64
			C415.424,436.848,416.36,432.432,414.384,428.936z M371.104,450.096c-18.24,13.68-42.048,17.56-63.68,10.336
			c-19.08-6.36-34.456-20.656-42.184-39.216c-1.432-3.44-1.64-6.928-0.568-9.824c1.808-4.904,5.376-8.896,10.048-11.232
			c7.096-3.568,15.704-2.648,21.912,2.32l32.152,25.72c13.808,11.04,30.584,17.128,47.712,17.864L371.104,450.096z"/>
	</g>
</g>
<g>
	<g>
		<path d="M229.752,405.864c-3.208-8.744-9.568-15.856-17.896-20.016c-12.656-6.336-28-4.72-39.064,4.136l-32.152,25.72
			c-18.512,14.808-43.672,18.528-65.672,9.736c-3.744-1.512-7.984,0.008-9.944,3.504c-1.968,3.496-1.04,7.912,2.168,10.32
			l31.512,23.64C113.712,474.152,131.76,480,150.024,480c9.072,0,18.2-1.448,27.024-4.384c23.464-7.824,42.384-25.408,51.896-48.248
			C231.928,420.2,232.216,412.568,229.752,405.864z M214.176,421.216c-7.736,18.568-23.112,32.856-42.184,39.216
			c-21.624,7.224-45.432,3.352-63.68-10.336l-5.384-4.04c17.128-0.736,33.912-6.824,47.712-17.864l32.152-25.72
			c6.208-4.968,14.8-5.872,21.92-2.32c4.664,2.336,8.24,6.32,10.04,11.224C215.816,414.288,215.616,417.776,214.176,421.216z"/>
	</g>
</g>
<g>
	<g>
		<rect x="328" y="128" width="16" height="16"/>
	</g>
</g>
<g>
	<g>
		<rect x="296" y="128" width="16" height="16"/>
	</g>
</g>
<g>
	<g>
		<rect x="264" y="128" width="16" height="16"/>
	</g>
</g>
<g>
	<g>
		<path d="M371.08,279.384l-6.16-14.768l-96,40c-2.976,1.24-4.92,4.152-4.92,7.384s1.944,6.144,4.92,7.384l96,40l6.16-14.768
			L292.8,312L371.08,279.384z"/>
	</g>
</g>
<g>
</g>
<g>
</g>
<g>
</g>
<g>
</g>
<g>
</g>
<g>
</g>
<g>
</g>
<g>
</g>
<g>
</g>
<g>
</g>
<g>
</g>
<g>
</g>
<g>
</g>
<g>
</g>
<g>
</g>
</svg>
