<?xml version="1.0" standalone="no"?>
<!DOCTYPE svg PUBLIC "-//W3C//DTD SVG 20010904//EN"
 "http://www.w3.org/TR/2001/REC-SVG-20010904/DTD/svg10.dtd">
<svg version="1.0" xmlns="http://www.w3.org/2000/svg"
 width="277.000000pt" height="277.000000pt" viewBox="0 0 277.000000 277.000000"
 preserveAspectRatio="xMidYMid meet">
<metadata>
Created by potrace 1.11, written by Peter Selinger 2001-2013
</metadata>
<g transform="translate(0.000000,277.000000) scale(0.100000,-0.100000)"
fill="#000000" stroke="none">
<path d="M1129 2706 c-2 -2 -52 -7 -110 -10 -58 -4 -116 -8 -130 -11 -13 -2
-67 -9 -119 -15 -52 -7 -104 -14 -115 -16 -11 -2 -47 -8 -80 -14 -119 -19
-264 -78 -312 -125 -8 -8 -22 -20 -31 -27 -9 -7 -37 -35 -61 -63 -70 -81 -125
-205 -137 -308 -3 -29 -7 -62 -9 -75 -28 -175 -27 -771 1 -982 2 -19 7 -53 10
-75 15 -110 79 -243 157 -323 86 -89 209 -158 316 -177 9 -1 45 -8 81 -14 94
-17 113 -19 132 -20 10 -1 34 -34 64 -88 26 -49 56 -103 67 -122 10 -19 30
-56 44 -83 36 -69 74 -98 130 -98 78 0 86 9 223 265 18 33 45 83 60 110 37 67
138 254 184 339 22 40 34 72 29 77 -5 5 -106 11 -224 14 -118 2 -227 6 -244 9
-16 3 -61 7 -100 11 -38 3 -83 7 -100 10 -16 3 -43 7 -60 9 -99 14 -125 18
-170 28 -88 19 -129 62 -139 149 -29 233 -29 769 0 954 14 91 59 135 149 149
22 3 54 8 70 11 224 39 376 50 680 50 279 0 367 -5 570 -34 212 -30 241 -38
280 -76 33 -34 41 -57 50 -160 26 -281 26 -587 -1 -854 -10 -105 -43 -160
-107 -180 -31 -10 -181 -34 -282 -46 -106 -13 -131 -16 -146 -21 -8 -2 -30
-32 -49 -67 -18 -34 -71 -131 -117 -214 -83 -152 -94 -182 -70 -184 43 -4 286
7 337 16 14 2 50 7 80 10 368 40 513 91 640 225 57 60 123 167 137 224 38 153
56 373 56 671 0 163 -9 381 -18 445 -2 14 -7 54 -10 90 -22 214 -154 403 -346
493 -57 27 -187 59 -289 72 -30 4 -62 9 -71 10 -18 4 -86 12 -174 21 -33 3
-73 8 -90 11 -36 6 -630 14 -636 9z"/>
<path d="M1152 1896 l-37 -34 -2 -291 c-1 -325 1 -340 67 -374 63 -32 90 -21
319 132 116 78 216 152 222 164 19 34 16 99 -4 130 -10 16 -113 91 -228 167
-191 128 -214 140 -255 140 -37 0 -51 -6 -82 -34z"/>
</g>
</svg>
