<svg id="Warstwa_1" xmlns="http://www.w3.org/2000/svg" viewBox="0 0 184.8 63.7"><style>.st0,.st1{fill:#313d76;stroke:#313d76;stroke-linejoin:round}.st1{fill:#6dccde;stroke:#6dccde}.st2{fill:#313d76}</style><path class="st0" d="M31.1 35.8c-.4.3-.9.4-1.4.4-1.4 0-2.5-1.1-2.5-2.5v-12c0-1.4 1.1-2.5 2.5-2.5.5 0 1 .2 1.4.4l9 6c.7.4 1.1 1.2 1.1 2.1 0 .9-.4 1.6-1.1 2.1l-9 6z"/><path class="st1" d="M65.1 14.5c-.7-6.1-5.4-10.9-11.3-12.1C47.1 1.1 40.2.5 33.2.5s-14 .7-20.6 1.9C6.6 3.6 2 8.4 1.3 14.5.8 18.8.5 23.2.5 27.7s.3 8.9.8 13.2C2 47 6.6 51.9 12.6 53c1.8.3 3.7.6 5.5.9l4.4 8.1c.4.8 1.2 1.3 2.2 1.3.9 0 1.8-.5 2.2-1.3l9.3-17.1c-1 0-2 .1-3 .1-6.4 0-12.7-.6-18.7-1.8-1.7-.3-3-1.7-3.2-3.5-.5-3.9-.7-7.9-.7-12s.2-8.1.7-12c.2-1.7 1.5-3.1 3.2-3.5 6.1-1.2 12.3-1.8 18.7-1.8s12.7.6 18.7 1.8c1.7.3 3 1.7 3.2 3.5.5 3.9.7 7.9.7 12s-.2 8.1-.7 12c-.2 1.7-1.5 3.1-3.2 3.5-3.2.6-6.5 1.1-9.9 1.4L36.4 55c5.9-.2 11.7-.8 17.4-1.9 5.9-1.1 10.5-6 11.3-12.1.5-4.3.8-8.7.8-13.2 0-4.6-.3-9-.8-13.3z"/><g><path class="st2" d="M81.9 38.7c.6 0 1 0 1.4-.1.4-.1.6-.2.9-.4.2-.2.4-.3.5-.6.1-.2.1-.5.1-.7 0-.6-.3-1-.8-1.4-.5-.4-1.4-.8-2.8-1.2-.6-.2-1.1-.4-1.7-.7-.6-.3-1.1-.6-1.5-1-.5-.4-.8-.9-1.1-1.4-.3-.6-.4-1.2-.4-2s.2-1.5.5-2.2c.3-.6.7-1.2 1.3-1.6.5-.4 1.2-.8 2-1 .8-.2 1.7-.4 2.6-.4 1.2 0 2.2.1 3 .4s1.5.5 2.1.8l-1.1 3.1c-.5-.2-1-.5-1.6-.7-.6-.2-1.3-.3-2.1-.3-.9 0-1.6.1-2 .4-.4.3-.6.7-.6 1.2 0 .3.1.6.2.8.1.2.4.4.6.6.3.2.6.3.9.5.4.1.8.3 1.2.4.9.3 1.7.7 2.4 1 .7.3 1.2.7 1.7 1.1.4.4.8.9 1 1.5.2.6.3 1.3.3 2.1 0 1.6-.6 2.9-1.7 3.8-1.1.9-2.8 1.3-5.1 1.3-.8 0-1.5 0-2.1-.1-.6-.1-1.2-.2-1.6-.3-.5-.1-.9-.3-1.2-.4-.3-.2-.6-.3-.9-.4l1.1-3.1c.5.3 1.2.5 1.9.8.6.1 1.5.2 2.6.2zM90.6 25.3l3.7-.6v3.9h4.5v3.1h-4.5v4.6c0 .8.1 1.4.4 1.9.3.5.8.7 1.7.7.4 0 .8 0 1.2-.1l1.2-.3.5 2.9c-.4.2-.9.3-1.5.5-.5.1-1.2.2-2 .2-1 0-1.9-.1-2.5-.4-.7-.3-1.2-.7-1.6-1.2-.4-.5-.7-1.1-.8-1.8-.2-.7-.2-1.5-.2-2.3V25.3zM105.8 28.2c1.1 0 2 .1 2.8.4s1.3.6 1.8 1.1c.4.5.8 1 .9 1.7.2.7.3 1.4.3 2.2v7.8c-.5.1-1.3.3-2.2.4-.9.2-2.1.2-3.4.2-.9 0-1.6-.1-2.3-.2-.7-.1-1.3-.4-1.8-.7-.5-.3-.9-.8-1.1-1.3-.3-.6-.4-1.2-.4-2s.2-1.4.5-2c.3-.5.7-1 1.2-1.3.5-.3 1.1-.5 1.8-.7.7-.1 1.4-.2 2.1-.2.5 0 .9 0 1.3.1s.7.1.9.2v-.3c0-.6-.2-1.1-.6-1.5-.4-.4-1-.6-2-.6-.6 0-1.3 0-1.9.1-.6.1-1.1.2-1.6.4l-.5-3c.2-.1.5-.1.8-.2.3-.1.7-.1 1.1-.2.4-.1.8-.1 1.2-.1.3-.3.7-.3 1.1-.3zm.3 10.9h1c.3 0 .6 0 .8-.1v-2.8c-.2 0-.4-.1-.7-.1h-.8c-.3 0-.7 0-1 .1-.3 0-.6.1-.8.2-.2.1-.4.3-.5.5-.1.2-.2.4-.2.8 0 .6.2 1 .6 1.2.4.1 1 .2 1.6.2zM122.1 31.9c-.3-.1-.7-.2-1.2-.3-.5-.1-.9-.1-1.5-.1-.2 0-.5 0-.8.1-.3 0-.6.1-.7.1v10h-3.7V29.3c.7-.2 1.5-.5 2.4-.7.9-.2 1.9-.3 3-.3h.7c.3 0 .6.1.8.1.3 0 .6.1.9.1.3.1.5.1.7.2l-.6 3.2zM123.9 25.3l3.7-.6v3.9h4.5v3.1h-4.5v4.6c0 .8.1 1.4.4 1.9.3.5.8.7 1.7.7.4 0 .8 0 1.2-.1l1.2-.3.5 2.9c-.4.2-.9.3-1.5.5-.5.1-1.2.2-2 .2-1 0-1.9-.1-2.5-.4-.7-.3-1.2-.7-1.6-1.2-.4-.5-.7-1.1-.8-1.8-.2-.7-.2-1.5-.2-2.3V25.3zM145.6 41.3c-.6.2-1.4.4-2.4.5-1 .2-2.1.2-3.2.2s-2-.1-2.8-.4c-.7-.3-1.3-.7-1.8-1.3-.4-.5-.7-1.2-.9-1.9-.2-.8-.3-1.6-.3-2.5v-7.3h3.7v6.9c0 1.2.2 2.1.5 2.6s.9.8 1.8.8h.9c.3 0 .6-.1.8-.1V28.6h3.7v12.7zM160.5 35.1c0 1-.1 1.9-.4 2.8s-.6 1.5-1.1 2.1c-.5.6-1.1 1.1-1.8 1.4-.7.3-1.5.5-2.5.5-.5 0-1 0-1.4-.1-.5-.1-.9-.2-1.3-.4v5h-3.7V29c.3-.1.7-.2 1.2-.3.4-.1.9-.2 1.4-.2.5-.1 1-.1 1.5-.2.5 0 1-.1 1.4-.1 1.1 0 2 .2 2.9.5.8.3 1.6.8 2.1 1.4.6.6 1 1.3 1.3 2.2.3.8.4 1.8.4 2.8zm-3.8.1c0-1.1-.3-2.1-.8-2.8-.5-.7-1.3-1-2.3-1h-.9c-.3 0-.5.1-.7.1v6.7c.2.1.5.3.9.4.4.1.8.1 1.1.1 1.9.1 2.7-1.1 2.7-3.5zM162.5 25.3l3.7-.6v3.9h4.5v3.1h-4.5v4.6c0 .8.1 1.4.4 1.9.3.5.8.7 1.7.7.4 0 .8 0 1.2-.1l1.2-.3.5 2.9c-.4.2-.9.3-1.5.5-.5.1-1.2.2-2 .2-1 0-1.9-.1-2.5-.4-.7-.3-1.2-.7-1.6-1.2-.4-.5-.7-1.1-.8-1.8-.2-.7-.2-1.5-.2-2.3V25.3zM176.6 41.7c-.9-1.7-1.7-3.6-2.6-5.9-.9-2.2-1.7-4.7-2.5-7.3h4c.2.6.4 1.4.6 2.1.2.8.5 1.5.7 2.3.2.8.5 1.5.7 2.3.2.7.5 1.4.7 2 .2-.6.5-1.3.7-2 .3-.7.5-1.5.7-2.3.2-.8.5-1.5.7-2.3.2-.8.4-1.5.6-2.1h3.9c-.8 2.6-1.6 5.1-2.5 7.3-.9 2.2-1.7 4.2-2.6 5.9h-3.1z"/><g><path class="st2" d="M81.7 19.1c-.2-.3-.5-.7-.8-1.1-.3-.4-.6-.7-.9-1.1-.3-.4-.7-.7-1-1-.3-.3-.7-.6-1-.8v4h-1.6v-9H78v3.7l.9-.9c.3-.3.6-.7.9-1 .3-.3.6-.7.9-1 .3-.3.5-.6.8-.8h2c-.3.3-.6.7-.9 1-.3.4-.6.7-1 1.1-.3.4-.7.7-1 1.1-.3.4-.7.7-1 1 .4.3.7.6 1.1 1 .4.4.7.8 1.1 1.2.4.4.7.9 1 1.3.3.5.6.9.9 1.4h-2zM88.2 13.8c-.1 0-.3-.1-.5-.1s-.5-.1-.8-.1c-.2 0-.4 0-.6.1-.2 0-.3.1-.4.1v5.4h-1.6v-6.5c.3-.1.7-.2 1.1-.3.5-.1 1-.1 1.5-.1h.4c.1 0 .3 0 .4.1.1 0 .3 0 .4.1.1 0 .2.1.3.1l-.2 1.2zM91.4 12.2c.5 0 1 .1 1.3.2.4.1.6.3.9.5.2.2.4.5.5.9.1.3.1.7.1 1.1V19c-.2.1-.6.1-1.1.2-.5.1-1 .1-1.7.1-.4 0-.8 0-1.1-.1-.3-.1-.6-.2-.9-.4-.2-.2-.4-.4-.6-.7-.1-.3-.2-.6-.2-1s.1-.7.2-1c.2-.3.4-.5.6-.7.3-.2.6-.3.9-.4.3-.1.7-.1 1.1-.1h.5c.2 0 .4.1.6.1v-.3c0-.2 0-.4-.1-.5 0-.2-.1-.3-.2-.4-.1-.1-.3-.2-.4-.3-.2-.1-.4-.1-.7-.1-.4 0-.7 0-1 .1-.3.1-.6.1-.7.2l-.2-1.3c.2-.1.5-.1.9-.2h1.3zm.1 5.8c.5 0 .9 0 1.1-.1v-1.7c-.1 0-.2-.1-.4-.1h-1c-.2 0-.3.1-.5.1-.1.1-.3.2-.3.3-.1.1-.1.3-.1.5 0 .4.1.6.4.8.1.2.4.2.8.2zM97.3 15c.2-.2.4-.4.6-.7.2-.2.4-.5.7-.7.2-.2.4-.5.6-.7.2-.2.4-.4.5-.6h1.9c-.4.5-.9 1-1.4 1.5-.5.5-1 1-1.4 1.5.3.2.5.5.8.8.3.3.6.6.8 1 .3.3.5.7.8 1 .2.3.4.7.6 1H100c-.2-.3-.3-.6-.5-.8-.2-.3-.4-.6-.7-.9-.2-.3-.5-.5-.7-.8-.2-.2-.5-.5-.7-.6v3.1h-1.6V9.3l1.5-.3v6zM108.6 15.7c0 .5-.1 1-.2 1.5-.2.4-.4.8-.7 1.1-.3.3-.6.6-1 .7-.4.2-.8.3-1.3.3s-.9-.1-1.3-.3c-.4-.2-.7-.4-1-.7-.3-.3-.5-.7-.7-1.1-.2-.4-.2-.9-.2-1.5 0-.5.1-1 .2-1.5.2-.4.4-.8.7-1.1.3-.3.6-.6 1-.7.4-.2.8-.3 1.3-.3s.9.1 1.3.3c.4.2.7.4 1 .7.3.3.5.7.7 1.1.1.5.2 1 .2 1.5zm-1.6 0c0-.7-.1-1.2-.4-1.6-.3-.4-.7-.6-1.2-.6s-.9.2-1.2.6c-.3.4-.4.9-.4 1.6 0 .7.1 1.2.4 1.6.3.4.7.6 1.2.6s.9-.2 1.2-.6c.3-.3.4-.9.4-1.6zm0-6.1l-2.1 2.1-.8-.7 1.9-2.3 1 .9zM113.9 14.9c-.2.8-.4 1.5-.6 2.2-.2.7-.5 1.4-.7 2h-1.3c-.2-.4-.4-.9-.5-1.4-.2-.5-.4-1.1-.6-1.6l-.6-1.8c-.2-.6-.4-1.3-.6-2h1.7l.3 1.2c.1.4.2.8.3 1.3.1.4.2.9.4 1.3s.2.8.4 1.1c.1-.4.3-.8.4-1.2.1-.4.2-.8.4-1.3l.3-1.2c.1-.4.2-.8.3-1.1h1.2c.1.4.2.7.3 1.1l.3 1.2c.1.4.2.8.4 1.3.1.4.3.8.4 1.2.1-.3.2-.7.4-1.1s.2-.8.4-1.3c.1-.4.2-.9.3-1.3l.3-1.2h1.6c-.2.7-.4 1.3-.6 2-.2.6-.4 1.3-.6 1.8-.2.6-.4 1.1-.6 1.6-.2.5-.4 1-.6 1.4h-1.3c-.2-.6-.5-1.3-.7-2-.4-.7-.6-1.5-.8-2.2z"/></g></g></svg>