<svg xmlns="http://www.w3.org/2000/svg" viewBox="0 0 473.931 473.931"><circle cx="236.966" cy="236.966" r="236.966" fill="#d42428"/><path d="M404.518 69.38c92.541 92.549 92.549 242.593 0 335.142-92.541 92.541-242.593 92.545-335.142 0L404.518 69.38z" fill="#cc202d"/><path d="M470.321 277.964L310.843 118.487l-12.864 12.864-12.864-12.864-14.099 14.099 9.47 9.47-3.091 3.091-24.557-24.557-1.048 1.055-33.092-33.092-14.099 14.099 3.858 3.858-5.665 5.665-23.854-23.854-9.889 9.889 23.255 56.003-10.473 42.997 28.632 28.639-72.418 5.066-1.096 125.667 116.537 116.679c109.192-7.756 198.35-89.428 216.835-195.297z" fill="#ba202e"/><path d="M321.724 291.91h-15.289l.075-8.875c0-3.948 3.237-7.169 7.199-7.169h.98c3.963 0 7.214 3.222 7.214 7.169l-.179 8.875zm-57.32-19.02c-3.865 0-7.038 2.608-7.038 5.796v43.161c0 3.188 3.173 5.781 7.038 5.781 3.895 0 7.068-2.593 7.068-5.781v-43.165c0-3.184-3.173-5.792-7.068-5.792zm93.069-24.138v82.102c0 19.697-17.077 35.809-37.96 35.809H163.444c-20.887 0-37.96-16.116-37.96-35.809v-82.102c0-19.697 17.074-35.816 37.96-35.816h156.073c20.878 0 37.956 16.123 37.956 35.816zM173.85 339.771l-.007-86.487 19.345.007v-12.819l-51.573-.079v12.595l16.101.049v86.73h16.134v.004zm57.997-73.601h-16.131v46.181c0 6.683.4 10.024-.022 11.199-1.317 3.581-7.214 7.383-9.508.389-.389-1.227-.045-4.924-.052-11.274l-.075-46.499h-16.041l.06 45.765c.007 7.016-.161 12.247.052 14.627.393 4.198.247 9.096 4.15 11.884 7.252 5.235 21.163-.778 24.643-8.251l-.03 9.534 12.95.019V266.17h.004zm51.603 52.882l-.03-38.439c-.015-14.653-10.971-23.427-25.856-11.573l.067-28.58-16.116.026-.079 98.637 13.25-.195 1.205-6.148c16.939 15.552 27.588 4.903 27.559-13.728zm50.491-5.092l-12.101.064c0 .483-.022 1.033-.03 1.639v6.75c0 3.611-2.982 6.552-6.608 6.552h-2.369c-3.633 0-6.615-2.941-6.615-6.552V304.655h27.697V294.23c0-7.614-.198-15.229-.827-19.584-1.979-13.781-21.317-15.966-31.09-8.913-3.068 2.204-5.407 5.152-6.776 9.119-1.373 3.963-2.054 9.369-2.054 16.247v22.918c.01 38.098 46.284 32.713 40.773-.057zm-62.046-124.436c.827 2.028 2.118 3.663 3.88 4.905 1.725 1.212 3.948 1.83 6.6 1.83 2.324 0 4.385-.629 6.174-1.927 1.792-1.291 3.304-3.214 4.531-5.788l-.307 6.331h17.979v-76.467h-14.155v59.513c0 3.218-2.66 5.856-5.905 5.856-3.222 0-5.89-2.638-5.89-5.856v-59.513h-14.769v51.573c0 6.571.116 10.952.314 13.175a22.514 22.514 0 0 0 1.548 6.368zm-54.487-43.187c0-7.341.614-13.07 1.826-17.201 1.22-4.12 3.427-7.431 6.608-9.923 3.18-2.511 7.252-3.764 12.191-3.764 4.157 0 7.723.819 10.705 2.417 2.982 1.609 5.298 3.693 6.892 6.271 1.639 2.586 2.739 5.246 3.334 7.966.606 2.754.898 6.919.898 12.52v19.341c0 7.094-.284 12.31-.834 15.626-.543 3.323-1.717 6.402-3.536 9.287-1.796 2.859-4.116 4.995-6.93 6.357-2.836 1.381-6.08 2.054-9.755 2.054-4.093 0-7.551-.565-10.391-1.751-2.851-1.175-5.059-2.949-6.627-5.302-1.594-2.357-2.705-5.227-3.375-8.572-.681-3.349-1.003-8.374-1.003-15.079v-20.247h-.003zm14.076 30.379c0 4.325 3.229 7.861 7.154 7.861s7.132-3.532 7.132-7.861v-40.71c0-4.325-3.207-7.861-7.132-7.861s-7.154 3.532-7.154 7.861v40.71zm-49.762 20.553h16.969l.015-58.648 20.045-50.241h-18.555l-10.657 37.324-10.81-37.421h-18.357l21.324 50.372.026 58.614z" fill="#fff"/></svg>