<?xml version="1.0" encoding="utf-8"?>
<!-- Generator: Adobe Illustrator 19.0.0, SVG Export Plug-In . SVG Version: 6.00 Build 0)  -->
<svg version="1.1" id="Warstwa_1" xmlns="http://www.w3.org/2000/svg" xmlns:xlink="http://www.w3.org/1999/xlink" x="0px" y="0px"
	 viewBox="0 0 184.8 63.7" style="enable-background:new 0 0 184.8 63.7;" xml:space="preserve">
<style type="text/css">
	.st0{fill:#313D76;stroke:#313D76;stroke-linejoin:round;}
	.st1{fill:#6DCCDE;stroke:#6DCCDE;stroke-linejoin:round;}
	.st2{fill:#313D76;}
</style>
<g>
	<g>
		<path class="st0" d="M31.1,35.8c-0.4,0.3-0.9,0.4-1.4,0.4c-1.4,0-2.5-1.1-2.5-2.5v-12c0-1.4,1.1-2.5,2.5-2.5c0.5,0,1,0.2,1.4,0.4
			l9,6c0.7,0.4,1.1,1.2,1.1,2.1c0,0.9-0.4,1.6-1.1,2.1L31.1,35.8z"/>
		<path class="st1" d="M65.1,14.5C64.4,8.4,59.7,3.6,53.8,2.4c-6.7-1.3-13.6-1.9-20.6-1.9S19.2,1.2,12.6,2.4C6.6,3.6,2,8.4,1.3,14.5
			c-0.5,4.3-0.8,8.7-0.8,13.2c0,4.5,0.3,8.9,0.8,13.2c0.7,6.1,5.3,11,11.3,12.1c1.8,0.3,3.7,0.6,5.5,0.9l4.4,8.1
			c0.4,0.8,1.2,1.3,2.2,1.3c0.9,0,1.8-0.5,2.2-1.3l9.3-17.1c-1,0-2,0.1-3,0.1c-6.4,0-12.7-0.6-18.7-1.8c-1.7-0.3-3-1.7-3.2-3.5
			c-0.5-3.9-0.7-7.9-0.7-12c0-4.1,0.2-8.1,0.7-12c0.2-1.7,1.5-3.1,3.2-3.5c6.1-1.2,12.3-1.8,18.7-1.8s12.7,0.6,18.7,1.8
			c1.7,0.3,3,1.7,3.2,3.5c0.5,3.9,0.7,7.9,0.7,12c0,4.1-0.2,8.1-0.7,12c-0.2,1.7-1.5,3.1-3.2,3.5c-3.2,0.6-6.5,1.1-9.9,1.4
			l-5.6,10.4c5.9-0.2,11.7-0.8,17.4-1.9c5.9-1.1,10.5-6,11.3-12.1c0.5-4.3,0.8-8.7,0.8-13.2C65.9,23.2,65.6,18.8,65.1,14.5z"/>
	</g>
	<g>
		<g>
			<path class="st2" d="M81.9,38.7c0.6,0,1,0,1.4-0.1c0.4-0.1,0.6-0.2,0.9-0.4c0.2-0.2,0.4-0.3,0.5-0.6c0.1-0.2,0.1-0.5,0.1-0.7
				c0-0.6-0.3-1-0.8-1.4c-0.5-0.4-1.4-0.8-2.8-1.2c-0.6-0.2-1.1-0.4-1.7-0.7c-0.6-0.3-1.1-0.6-1.5-1c-0.5-0.4-0.8-0.9-1.1-1.4
				c-0.3-0.6-0.4-1.2-0.4-2c0-0.8,0.2-1.5,0.5-2.2c0.3-0.6,0.7-1.2,1.3-1.6c0.5-0.4,1.2-0.8,2-1c0.8-0.2,1.7-0.4,2.6-0.4
				c1.2,0,2.2,0.1,3,0.4s1.5,0.5,2.1,0.8l-1.1,3.1c-0.5-0.2-1-0.5-1.6-0.7c-0.6-0.2-1.3-0.3-2.1-0.3c-0.9,0-1.6,0.1-2,0.4
				c-0.4,0.3-0.6,0.7-0.6,1.2c0,0.3,0.1,0.6,0.2,0.8c0.1,0.2,0.4,0.4,0.6,0.6c0.3,0.2,0.6,0.3,0.9,0.5c0.4,0.1,0.8,0.3,1.2,0.4
				c0.9,0.3,1.7,0.7,2.4,1c0.7,0.3,1.2,0.7,1.7,1.1c0.4,0.4,0.8,0.9,1,1.5c0.2,0.6,0.3,1.3,0.3,2.1c0,1.6-0.6,2.9-1.7,3.8
				c-1.1,0.9-2.8,1.3-5.1,1.3c-0.8,0-1.5,0-2.1-0.1c-0.6-0.1-1.2-0.2-1.6-0.3c-0.5-0.1-0.9-0.3-1.2-0.4c-0.3-0.2-0.6-0.3-0.9-0.4
				l1.1-3.1c0.5,0.3,1.2,0.5,1.9,0.8C79.9,38.6,80.8,38.7,81.9,38.7z"/>
			<path class="st2" d="M90.6,25.3l3.7-0.6v3.9h4.5v3.1h-4.5v4.6c0,0.8,0.1,1.4,0.4,1.9c0.3,0.5,0.8,0.7,1.7,0.7
				c0.4,0,0.8,0,1.2-0.1c0.4-0.1,0.8-0.2,1.2-0.3l0.5,2.9c-0.4,0.2-0.9,0.3-1.5,0.5c-0.5,0.1-1.2,0.2-2,0.2c-1,0-1.9-0.1-2.5-0.4
				c-0.7-0.3-1.2-0.7-1.6-1.2c-0.4-0.5-0.7-1.1-0.8-1.8c-0.2-0.7-0.2-1.5-0.2-2.3V25.3z"/>
			<path class="st2" d="M105.8,28.2c1.1,0,2,0.1,2.8,0.4s1.3,0.6,1.8,1.1c0.4,0.5,0.8,1,0.9,1.7c0.2,0.7,0.3,1.4,0.3,2.2v7.8
				c-0.5,0.1-1.3,0.3-2.2,0.4c-0.9,0.2-2.1,0.2-3.4,0.2c-0.9,0-1.6-0.1-2.3-0.2c-0.7-0.1-1.3-0.4-1.8-0.7c-0.5-0.3-0.9-0.8-1.1-1.3
				c-0.3-0.6-0.4-1.2-0.4-2c0-0.8,0.2-1.4,0.5-2c0.3-0.5,0.7-1,1.2-1.3c0.5-0.3,1.1-0.5,1.8-0.7c0.7-0.1,1.4-0.2,2.1-0.2
				c0.5,0,0.9,0,1.3,0.1s0.7,0.1,0.9,0.2v-0.3c0-0.6-0.2-1.1-0.6-1.5c-0.4-0.4-1-0.6-2-0.6c-0.6,0-1.3,0-1.9,0.1
				c-0.6,0.1-1.1,0.2-1.6,0.4l-0.5-3c0.2-0.1,0.5-0.1,0.8-0.2c0.3-0.1,0.7-0.1,1.1-0.2c0.4-0.1,0.8-0.1,1.2-0.1
				C105,28.2,105.4,28.2,105.8,28.2z M106.1,39.1c0.4,0,0.7,0,1,0c0.3,0,0.6,0,0.8-0.1v-2.8c-0.2,0-0.4-0.1-0.7-0.1
				c-0.3,0-0.6,0-0.8,0c-0.3,0-0.7,0-1,0.1c-0.3,0-0.6,0.1-0.8,0.2c-0.2,0.1-0.4,0.3-0.5,0.5c-0.1,0.2-0.2,0.4-0.2,0.8
				c0,0.6,0.2,1,0.6,1.2C104.9,39,105.5,39.1,106.1,39.1z"/>
			<path class="st2" d="M122.1,31.9c-0.3-0.1-0.7-0.2-1.2-0.3c-0.5-0.1-0.9-0.1-1.5-0.1c-0.2,0-0.5,0-0.8,0.1
				c-0.3,0-0.6,0.1-0.7,0.1v10h-3.7V29.3c0.7-0.2,1.5-0.5,2.4-0.7c0.9-0.2,1.9-0.3,3-0.3c0.2,0,0.4,0,0.7,0c0.3,0,0.6,0.1,0.8,0.1
				c0.3,0,0.6,0.1,0.9,0.1c0.3,0.1,0.5,0.1,0.7,0.2L122.1,31.9z"/>
			<path class="st2" d="M123.9,25.3l3.7-0.6v3.9h4.5v3.1h-4.5v4.6c0,0.8,0.1,1.4,0.4,1.9c0.3,0.5,0.8,0.7,1.7,0.7
				c0.4,0,0.8,0,1.2-0.1c0.4-0.1,0.8-0.2,1.2-0.3l0.5,2.9c-0.4,0.2-0.9,0.3-1.5,0.5c-0.5,0.1-1.2,0.2-2,0.2c-1,0-1.9-0.1-2.5-0.4
				c-0.7-0.3-1.2-0.7-1.6-1.2c-0.4-0.5-0.7-1.1-0.8-1.8c-0.2-0.7-0.2-1.5-0.2-2.3V25.3z"/>
			<path class="st2" d="M145.6,41.3c-0.6,0.2-1.4,0.4-2.4,0.5c-1,0.2-2.1,0.2-3.2,0.2c-1.1,0-2-0.1-2.8-0.4
				c-0.7-0.3-1.3-0.7-1.8-1.3c-0.4-0.5-0.7-1.2-0.9-1.9c-0.2-0.8-0.3-1.6-0.3-2.5v-7.3h3.7v6.9c0,1.2,0.2,2.1,0.5,2.6
				c0.3,0.5,0.9,0.8,1.8,0.8c0.3,0,0.6,0,0.9,0c0.3,0,0.6-0.1,0.8-0.1V28.6h3.7V41.3z"/>
			<path class="st2" d="M160.5,35.1c0,1-0.1,1.9-0.4,2.8s-0.6,1.5-1.1,2.1c-0.5,0.6-1.1,1.1-1.8,1.4c-0.7,0.3-1.5,0.5-2.5,0.5
				c-0.5,0-1,0-1.4-0.1c-0.5-0.1-0.9-0.2-1.3-0.4v5h-3.7V29c0.3-0.1,0.7-0.2,1.2-0.3c0.4-0.1,0.9-0.2,1.4-0.2c0.5-0.1,1-0.1,1.5-0.2
				c0.5,0,1-0.1,1.4-0.1c1.1,0,2,0.2,2.9,0.5c0.8,0.3,1.6,0.8,2.1,1.4c0.6,0.6,1,1.3,1.3,2.2C160.4,33.1,160.5,34.1,160.5,35.1z
				 M156.7,35.2c0-1.1-0.3-2.1-0.8-2.8c-0.5-0.7-1.3-1-2.3-1c-0.3,0-0.6,0-0.9,0c-0.3,0-0.5,0.1-0.7,0.1v6.7
				c0.2,0.1,0.5,0.3,0.9,0.4c0.4,0.1,0.8,0.1,1.1,0.1C155.9,38.8,156.7,37.6,156.7,35.2z"/>
			<path class="st2" d="M162.5,25.3l3.7-0.6v3.9h4.5v3.1h-4.5v4.6c0,0.8,0.1,1.4,0.4,1.9c0.3,0.5,0.8,0.7,1.7,0.7
				c0.4,0,0.8,0,1.2-0.1c0.4-0.1,0.8-0.2,1.2-0.3l0.5,2.9c-0.4,0.2-0.9,0.3-1.5,0.5c-0.5,0.1-1.2,0.2-2,0.2c-1,0-1.9-0.1-2.5-0.4
				c-0.7-0.3-1.2-0.7-1.6-1.2c-0.4-0.5-0.7-1.1-0.8-1.8c-0.2-0.7-0.2-1.5-0.2-2.3V25.3z"/>
			<path class="st2" d="M176.6,41.7c-0.9-1.7-1.7-3.6-2.6-5.9c-0.9-2.2-1.7-4.7-2.5-7.3h4c0.2,0.6,0.4,1.4,0.6,2.1
				c0.2,0.8,0.5,1.5,0.7,2.3c0.2,0.8,0.5,1.5,0.7,2.3c0.2,0.7,0.5,1.4,0.7,2c0.2-0.6,0.5-1.3,0.7-2c0.3-0.7,0.5-1.5,0.7-2.3
				c0.2-0.8,0.5-1.5,0.7-2.3c0.2-0.8,0.4-1.5,0.6-2.1h3.9c-0.8,2.6-1.6,5.1-2.5,7.3c-0.9,2.2-1.7,4.2-2.6,5.9H176.6z"/>
		</g>
		<g>
			<path class="st2" d="M81.7,19.1c-0.2-0.3-0.5-0.7-0.8-1.1c-0.3-0.4-0.6-0.7-0.9-1.1c-0.3-0.4-0.7-0.7-1-1c-0.3-0.3-0.7-0.6-1-0.8
				v4h-1.6v-9h1.6v3.7c0.3-0.3,0.6-0.6,0.9-0.9c0.3-0.3,0.6-0.7,0.9-1c0.3-0.3,0.6-0.7,0.9-1c0.3-0.3,0.5-0.6,0.8-0.8h2
				c-0.3,0.3-0.6,0.7-0.9,1c-0.3,0.4-0.6,0.7-1,1.1c-0.3,0.4-0.7,0.7-1,1.1c-0.3,0.4-0.7,0.7-1,1c0.4,0.3,0.7,0.6,1.1,1
				c0.4,0.4,0.7,0.8,1.1,1.2c0.4,0.4,0.7,0.9,1,1.3c0.3,0.5,0.6,0.9,0.9,1.4H81.7z"/>
			<path class="st2" d="M88.2,13.8c-0.1,0-0.3-0.1-0.5-0.1c-0.2,0-0.5-0.1-0.8-0.1c-0.2,0-0.4,0-0.6,0.1c-0.2,0-0.3,0.1-0.4,0.1v5.4
				h-1.6v-6.5c0.3-0.1,0.7-0.2,1.1-0.3c0.5-0.1,1-0.1,1.5-0.1c0.1,0,0.2,0,0.4,0c0.1,0,0.3,0,0.4,0.1c0.1,0,0.3,0,0.4,0.1
				c0.1,0,0.2,0.1,0.3,0.1L88.2,13.8z"/>
			<path class="st2" d="M91.4,12.2c0.5,0,1,0.1,1.3,0.2c0.4,0.1,0.6,0.3,0.9,0.5c0.2,0.2,0.4,0.5,0.5,0.9c0.1,0.3,0.1,0.7,0.1,1.1
				V19c-0.2,0.1-0.6,0.1-1.1,0.2c-0.5,0.1-1,0.1-1.7,0.1c-0.4,0-0.8,0-1.1-0.1c-0.3-0.1-0.6-0.2-0.9-0.4c-0.2-0.2-0.4-0.4-0.6-0.7
				c-0.1-0.3-0.2-0.6-0.2-1c0-0.4,0.1-0.7,0.2-1c0.2-0.3,0.4-0.5,0.6-0.7c0.3-0.2,0.6-0.3,0.9-0.4c0.3-0.1,0.7-0.1,1.1-0.1
				c0.2,0,0.4,0,0.5,0c0.2,0,0.4,0.1,0.6,0.1v-0.3c0-0.2,0-0.4-0.1-0.5c0-0.2-0.1-0.3-0.2-0.4c-0.1-0.1-0.3-0.2-0.4-0.3
				c-0.2-0.1-0.4-0.1-0.7-0.1c-0.4,0-0.7,0-1,0.1c-0.3,0.1-0.6,0.1-0.7,0.2l-0.2-1.3c0.2-0.1,0.5-0.1,0.9-0.2
				C90.6,12.2,91,12.2,91.4,12.2z M91.5,18c0.5,0,0.9,0,1.1-0.1v-1.7c-0.1,0-0.2-0.1-0.4-0.1c-0.2,0-0.3,0-0.5,0c-0.2,0-0.3,0-0.5,0
				c-0.2,0-0.3,0.1-0.5,0.1c-0.1,0.1-0.3,0.2-0.3,0.3c-0.1,0.1-0.1,0.3-0.1,0.5c0,0.4,0.1,0.6,0.4,0.8C90.8,18,91.1,18,91.5,18z"/>
			<path class="st2" d="M97.3,15c0.2-0.2,0.4-0.4,0.6-0.7c0.2-0.2,0.4-0.5,0.7-0.7c0.2-0.2,0.4-0.5,0.6-0.7c0.2-0.2,0.4-0.4,0.5-0.6
				h1.9c-0.4,0.5-0.9,1-1.4,1.5c-0.5,0.5-1,1-1.4,1.5c0.3,0.2,0.5,0.5,0.8,0.8c0.3,0.3,0.6,0.6,0.8,1c0.3,0.3,0.5,0.7,0.8,1
				c0.2,0.3,0.4,0.7,0.6,1h-1.8c-0.2-0.3-0.3-0.6-0.5-0.8c-0.2-0.3-0.4-0.6-0.7-0.9c-0.2-0.3-0.5-0.5-0.7-0.8
				c-0.2-0.2-0.5-0.5-0.7-0.6v3.1h-1.6V9.3L97.3,9V15z"/>
			<path class="st2" d="M108.6,15.7c0,0.5-0.1,1-0.2,1.5c-0.2,0.4-0.4,0.8-0.7,1.1c-0.3,0.3-0.6,0.6-1,0.7c-0.4,0.2-0.8,0.3-1.3,0.3
				c-0.5,0-0.9-0.1-1.3-0.3c-0.4-0.2-0.7-0.4-1-0.7c-0.3-0.3-0.5-0.7-0.7-1.1c-0.2-0.4-0.2-0.9-0.2-1.5c0-0.5,0.1-1,0.2-1.5
				c0.2-0.4,0.4-0.8,0.7-1.1c0.3-0.3,0.6-0.6,1-0.7c0.4-0.2,0.8-0.3,1.3-0.3c0.5,0,0.9,0.1,1.3,0.3c0.4,0.2,0.7,0.4,1,0.7
				c0.3,0.3,0.5,0.7,0.7,1.1C108.5,14.7,108.6,15.2,108.6,15.7z M107,15.7c0-0.7-0.1-1.2-0.4-1.6c-0.3-0.4-0.7-0.6-1.2-0.6
				c-0.5,0-0.9,0.2-1.2,0.6c-0.3,0.4-0.4,0.9-0.4,1.6c0,0.7,0.1,1.2,0.4,1.6c0.3,0.4,0.7,0.6,1.2,0.6c0.5,0,0.9-0.2,1.2-0.6
				C106.9,17,107,16.4,107,15.7z M107,9.6l-2.1,2.1l-0.8-0.7l1.9-2.3L107,9.6z"/>
			<path class="st2" d="M113.9,14.9c-0.2,0.8-0.4,1.5-0.6,2.2c-0.2,0.7-0.5,1.4-0.7,2h-1.3c-0.2-0.4-0.4-0.9-0.5-1.4
				c-0.2-0.5-0.4-1.1-0.6-1.6c-0.2-0.6-0.4-1.2-0.6-1.8c-0.2-0.6-0.4-1.3-0.6-2h1.7c0.1,0.4,0.2,0.8,0.3,1.2
				c0.1,0.4,0.2,0.8,0.3,1.3c0.1,0.4,0.2,0.9,0.4,1.3s0.2,0.8,0.4,1.1c0.1-0.4,0.3-0.8,0.4-1.2c0.1-0.4,0.2-0.8,0.4-1.3
				c0.1-0.4,0.2-0.8,0.3-1.2c0.1-0.4,0.2-0.8,0.3-1.1h1.2c0.1,0.4,0.2,0.7,0.3,1.1c0.1,0.4,0.2,0.8,0.3,1.2c0.1,0.4,0.2,0.8,0.4,1.3
				c0.1,0.4,0.3,0.8,0.4,1.2c0.1-0.3,0.2-0.7,0.4-1.1s0.2-0.8,0.4-1.3c0.1-0.4,0.2-0.9,0.3-1.3s0.2-0.8,0.3-1.2h1.6
				c-0.2,0.7-0.4,1.3-0.6,2c-0.2,0.6-0.4,1.3-0.6,1.8c-0.2,0.6-0.4,1.1-0.6,1.6c-0.2,0.5-0.4,1-0.6,1.4h-1.3c-0.2-0.6-0.5-1.3-0.7-2
				C114.3,16.4,114.1,15.6,113.9,14.9z"/>
		</g>
	</g>
</g>
</svg>
